<?xml version="1.0" encoding="UTF-8" standalone="no"?>
<svg
   width="49"
   height="45"
   viewBox="0 0 49 45"
   fill="none"
   version="1.1"
   id="svg3"
   xml:space="preserve"
   xmlns="http://www.w3.org/2000/svg"
   xmlns:svg="http://www.w3.org/2000/svg"><defs
     id="defs3"><rect
       x="30.320267"
       y="100.16517"
       width="156.47424"
       height="19.4916"
       id="rect1" /><rect
       x="30.320267"
       y="100.16517"
       width="156.47424"
       height="19.4916"
       id="rect1-1" /></defs><text
     xml:space="preserve"
     transform="translate(46.856924,-10.54436)"
     id="text1"
     style="font-style:normal;font-variant:normal;font-weight:bold;font-stretch:normal;font-size:16px;line-height:1.35;font-family:Arial;-inkscape-font-specification:'Arial, Bold';font-variant-ligatures:none;font-variant-caps:normal;font-variant-numeric:normal;font-variant-east-asian:normal;text-align:start;white-space:pre;shape-inside:url(#rect1)"
     x="59.453125"
     y="0"><tspan
       x="30.320312"
       y="115.37809"
       id="tspan1">Website Builds</tspan></text><g
     id="g16"
     transform="matrix(0.83249295,0,0,0.83249295,89.549902,-62.576879)"><path
       d="m -78.138672,87.255859 c -14.862673,3e-6 -27.165588,11.055153 -29.144528,25.378911 -0.18316,1.32572 -0.28516,2.67713 -0.28516,4.05273 0,0.14994 0.009,0.29785 0.0117,0.44727 h 2.59961 3.53515 3.242193 40.082031 3.242187 3.535157 2.599609 c 0.0022,-0.14942 0.01172,-0.29732 0.01172,-0.44727 0,-1.37562 -0.101995,-2.72699 -0.285157,-4.05273 -1.978944,-14.323758 -14.281855,-25.378911 -29.144531,-25.378911 z m 0,2.601563 c 13.454828,0 24.575341,9.872085 26.525391,22.777348 h -3.595703 c -1.931401,-10.91075 -11.480382,-19.253911 -22.929688,-19.253911 -11.449305,10e-7 -20.998287,8.343161 -22.929688,19.253911 h -3.5957 c 1.95005,-12.905263 13.070562,-22.777345 26.525388,-22.777348 z m 0,6.738281 c 9.517632,0.02094 17.714906,6.717047 19.634766,16.039067 h -39.269531 c 1.919859,-9.32202 10.117133,-16.018128 19.634765,-16.039067 z"
       style="fill:#000000;fill-rule:evenodd;stroke-linecap:square;stroke-linejoin:round;stroke-miterlimit:3.8;stroke-dashoffset:13.6845;paint-order:stroke fill markers"
       id="path15" /><path
       id="path16"
       style="opacity:1;fill:#008000;fill-rule:evenodd;stroke-width:1.42254;stroke-linecap:square;stroke-linejoin:round;stroke-miterlimit:3.8;stroke-dashoffset:13.6845"
       d="m -74.925026,110.04381 c -1.924344,1.69485 -3.818231,2.14939 -4.774057,1.21946 -0.955825,-0.92994 0.248534,-2.55563 2.172902,-4.25048 1.924345,-1.69484 6.161872,-3.68176 8.394319,-4.81748 -1.407582,2.02384 -4.455211,6.6701 -5.793164,7.8485 z" /></g></svg>
