<?xml version="1.0" encoding="UTF-8" standalone="no"?>
<svg
   width="49"
   height="45"
   viewBox="0 0 49 45"
   fill="none"
   version="1.1"
   id="svg3"
   xml:space="preserve"
   xmlns="http://www.w3.org/2000/svg"
   xmlns:svg="http://www.w3.org/2000/svg"><defs
     id="defs3"><rect
       x="30.320267"
       y="100.16517"
       width="156.47424"
       height="19.4916"
       id="rect1" /><rect
       x="30.320267"
       y="100.16517"
       width="156.47424"
       height="19.4916"
       id="rect1-1" /></defs><g
     id="g19"
     transform="translate(-1.5982212,2.1049164)"><path
       d="m 46.551909,37.332184 0.711134,0.743519 q -3.753216,3.015383 -8.17806,2.850156 -4.405091,-0.144573 -7.269388,-3.139301 -1.066703,-1.11528 -2.884049,-3.965434 -1.77784,-2.808851 -2.469222,-3.531715 -1.540794,-1.610958 -4.02977,-1.610957 -2.508727,-0.02065 -4.898935,1.900103 l -0.829657,-0.867439 q 1.876608,-2.581664 1.837102,-5.183979 -0.05926,-2.62297 -1.738333,-4.378501 Q 15.91381,19.219238 13.484098,17.670241 11.034631,16.059283 9.948172,14.92335 6.9653534,11.804703 6.7875694,7.3642414 6.5900317,2.9031279 9.533344,-1.3721059 l 0.651873,0.68155893 q -3.5161702,5.86553817 0.355569,9.91358517 0.88892,0.9293988 2.824789,2.2099038 3.121096,2.065331 4.168045,3.159955 2.330945,2.43709 2.706266,6.010111 0.395075,3.552369 -1.52104,7.74499 3.832232,-1.858796 7.38791,-1.44573 3.555679,0.371758 5.689085,2.602315 1.106211,1.156586 2.607498,3.63498 1.876609,2.994731 2.765529,3.924128 1.738331,1.817491 4.168045,1.962065 2.429713,0.144572 5.214996,-1.693572 z"
       id="path19"
       style="font-size:72.1444px;line-height:1.35;font-family:'Century Schoolbook';-inkscape-font-specification:'Century Schoolbook, Normal';font-variant-ligatures:none;fill:#008000;fill-opacity:1;stroke-width:3.65633"
       aria-label="{" /><path
       d="m 45.314509,38.664561 0.72194,0.72194 q -3.81024,2.927869 -8.302314,2.767438 -4.472019,-0.140377 -7.379834,-3.048192 -1.082911,-1.082911 -2.927869,-3.850349 -1.804851,-2.72733 -2.506737,-3.429216 -1.564205,-1.564205 -4.090996,-1.564204 -2.546845,-0.02005 -4.973367,1.844958 l -0.842263,-0.842263 q 1.90512,-2.506738 1.865013,-5.033529 -0.06016,-2.546845 -1.764744,-4.251426 Q 14.210913,21.077292 11.744284,19.57325 9.2576,18.009046 8.1546354,16.906081 5.1264971,13.877943 4.946012,9.5663546 4.745473,5.2347126 7.7335039,1.0835557 l 0.6617786,0.6617786 q -3.5695939,5.6953071 0.3609702,9.6258707 0.9024253,0.902426 2.8677073,2.145768 3.168516,2.005389 4.231373,3.068246 2.366359,2.36636 2.747383,5.835684 0.401078,3.449271 -1.54415,7.520212 3.890457,-1.80485 7.500159,-1.403772 3.609701,0.36097 5.775522,2.526791 1.123018,1.123018 2.647114,3.529485 1.905121,2.907816 2.807547,3.810241 1.764742,1.764743 4.231372,1.905121 2.466629,0.140377 5.294229,-1.64442 z"
       id="text19"
       style="font-size:72.1444px;line-height:1.35;font-family:'Century Schoolbook';-inkscape-font-specification:'Century Schoolbook, Normal';font-variant-ligatures:none;fill:#000000;stroke-width:3.63015"
       aria-label="{" /></g></svg>
