<?xml version="1.0" encoding="UTF-8" standalone="no"?>
<svg
   width="49"
   height="45"
   viewBox="0 0 49 45"
   fill="none"
   version="1.1"
   id="svg3"
   xml:space="preserve"
   xmlns="http://www.w3.org/2000/svg"
   xmlns:svg="http://www.w3.org/2000/svg"><defs
     id="defs3" /><path
     style="fill:#000000;stroke-width:0.0427809"
     d="m 23.344941,43.983632 c -6.17575,-0.284885 -12.12416,-2.835739 -17.04792,-7.310651 -0.59584,-0.541524 -1.95344,-1.900028 -2.46022,-2.461864 -0.98542,-1.092468 -3.45511003,-4.218305 -3.62931003,-4.593549 -0.20086,-0.432639 -0.16894,-1.072348 0.0728,-1.459945 0.13354,-0.214092 2.49548003,-3.202247 2.95885003,-3.74333 1.37146,-1.601453 3.01017,-3.194575 4.53776,-4.411504 3.56082,-2.836663 7.54745,-4.734663 11.70703,-5.573616 1.68333,-0.33951 3.13473,-0.477748 5.01606,-0.477748 1.46229,0 2.38161,0.06084 3.62568,0.239929 6.60942,0.951473 12.73741,4.503809 17.63517,10.222939 0.46337,0.541083 2.82531,3.529238 2.95885,3.74333 0.24177,0.387597 0.27368,1.027307 0.0728,1.459945 -0.1742,0.375244 -2.64389,3.501081 -3.62931,4.593549 -0.50678,0.561836 -1.86438,1.92034 -2.46022,2.461863 -3.51399,3.193655 -7.63613,5.459068 -11.89362,6.536391 -1.80497,0.456733 -3.37485,0.687875 -5.2755,0.776742 -0.97232,0.04546 -1.15411,0.04526 -2.18896,-0.0023 z m 2.69733,-3.249665 c 2.96737,-0.227008 5.76733,-0.992852 8.44709,-2.310443 3.2301,-1.588184 6.30199,-4.028163 8.85013,-7.029576 0.59145,-0.696669 1.90927,-2.369433 1.90927,-2.423528 0,-0.05066 -1.07511,-1.430068 -1.66518,-2.13649 -4.40743,-5.27648 -9.89966,-8.554693 -15.81082,-9.437177 -2.11187,-0.315284 -4.4336,-0.315284 -6.54548,0 -5.91116,0.882484 -11.40339,4.160697 -15.81082,9.437177 -0.59007,0.706421 -1.66518,2.085825 -1.66518,2.13649 0,0.0541 1.31782,1.726859 1.90927,2.423528 1.83545,2.161946 4.01241,4.094084 6.26189,5.557648 3.35709,2.184214 7.09366,3.475508 10.93052,3.777406 0.67936,0.05345 2.51808,0.05632 3.18931,0.005 z M 9.676441,15.39385 c -0.29994,-0.07774 -0.531,-0.205786 -0.75891,-0.420596 -0.10776,-0.101564 -0.81305,-0.833733 -1.56732,-1.627044 -0.9028,-0.94954 -1.40707,-1.512804 -1.47583,-1.648492 -0.4757,-0.938758 0.0241,-2.0419304 1.04346,-2.3030714 0.43595,-0.111687 0.8914,-0.03207 1.28266,0.224251 0.0824,0.05395 0.8139,0.7918524 1.62567,1.6397804 1.26301,1.319273 1.49921,1.586358 1.63723,1.851308 0.20226,0.388275 0.24298,0.703342 0.14239,1.101723 -0.21441,0.849163 -1.10608,1.395504 -1.92935,1.182141 z m 28.94691,0.01176 c -0.29173,-0.05733 -0.56388,-0.20845 -0.7992,-0.443762 -0.51747,-0.517469 -0.62472,-1.224525 -0.28307,-1.866173 0.12868,-0.241691 0.42188,-0.571495 1.63279,-1.836629 0.81177,-0.848122 1.54332,-1.5861804 1.62567,-1.6401334 0.39126,-0.256312 0.84671,-0.335938 1.28266,-0.224251 1.01935,0.261141 1.51916,1.3643124 1.04345,2.3030714 -0.0687,0.135688 -0.57302,0.698952 -1.47582,1.648492 -0.75427,0.79331 -1.4597,1.525607 -1.56763,1.627328 -0.40906,0.385515 -0.92226,0.537509 -1.45885,0.432057 z m -22.14475,-3.821384 c -0.43714,-0.138614 -0.80208,-0.433796 -0.98123,-0.79368 -0.0532,-0.106954 -0.53736,-1.2917954 -1.07582,-2.6329764 l -0.97901,-2.438511 0.002,-0.363638 c 0.004,-0.494485 0.11681,-0.780679 0.43899,-1.10714 0.60588,-0.613913 1.48229,-0.672936 2.17391,-0.146399 0.28032,0.21342 0.43208,0.534919 1.42968,3.028947 0.92512,2.312824 0.99389,2.503322 1.01291,2.805783 0.0357,0.5675464 -0.17533,1.0409344 -0.61368,1.3767564 -0.37629,0.288274 -0.98439,0.405241 -1.40819,0.270858 z m 15.10166,-0.02465 c -0.70144,-0.232023 -1.12787,-0.872429 -1.08069,-1.6229694 0.019,-0.30246 0.0878,-0.492959 1.01291,-2.805783 0.61506,-1.537674 1.04988,-2.565823 1.14338,-2.703565 0.24162,-0.355974 0.57044,-0.565368 1.02974,-0.655729 0.51477,-0.101275 1.02922,0.07018 1.43046,0.476746 0.32219,0.326461 0.43567,0.612655 0.43899,1.10714 l 0.002,0.363638 -0.97901,2.438511 c -0.53845,1.341181 -1.02257,2.5260224 -1.07581,2.6329764 -0.33015,0.663203 -1.19565,1.009437 -1.92242,0.769035 z m -7.45323,-0.510274 c -0.62398,-0.160654 -1.1089,-0.69081 -1.21297,-1.3261264 -0.0575,-0.351188 -0.0513,-7.070359 0.007,-7.384928 0.15851,-0.857483 0.99628,-1.458553 1.82053,-1.306183 0.70864,0.130998 1.21105,0.621604 1.3376,1.306183 0.0582,0.314569 0.0644,7.03374 0.007,7.384928 -0.12459,0.7605684 -0.73499,1.3104804 -1.49425,1.3461944 -0.17985,0.0085 -0.38896,-3.88e-4 -0.4647,-0.02007 z"
     id="path2" /><path
     d="m 13.4488,27.16675 h 2.236042 v 0.407393 h -0.12963 c -0.141969,0 -0.240728,0.02006 -0.296278,0.06019 -0.05246,0.03703 -0.0787,0.08642 -0.0787,0.148144 0,0.04321 0.0108,0.08796 0.03239,0.134254 l 0.907382,2.004561 0.782384,-1.865678 c -0.126543,-0.237646 -0.223764,-0.374987 -0.291661,-0.412023 -0.07716,-0.0463 -0.206784,-0.06944 -0.388876,-0.06944 v -0.407392 h 2.425844 v 0.407392 h -0.143509 c -0.148143,0 -0.249994,0.02161 -0.305551,0.06481 -0.05558,0.04012 -0.08337,0.09414 -0.08337,0.162031 0,0.08024 0.02159,0.165119 0.06478,0.254621 l 0.856448,1.865678 0.74072,-1.810125 c 0.01848,-0.05247 0.02771,-0.108023 0.02771,-0.16666 0,-0.114195 -0.03239,-0.203698 -0.09717,-0.268511 -0.06174,-0.0679 -0.143528,-0.101847 -0.245367,-0.101847 h -0.175911 v -0.407392 h 1.726785 v 0.407392 c -0.35801,0.02468 -0.61263,0.222212 -0.763861,0.592573 l -1.398105,3.481365 h -0.347202 l -1.337921,-2.990641 -1.217553,2.990641 h -0.351845 l -1.65272,-3.731358 c -0.06175,-0.132711 -0.125007,-0.220671 -0.189802,-0.26388 -0.06175,-0.0463 -0.163593,-0.07254 -0.305555,-0.07871 z m 7.196317,0 h 2.23603 v 0.407393 h -0.129629 c -0.141969,0 -0.240729,0.02006 -0.29628,0.06019 -0.05246,0.03703 -0.07869,0.08642 -0.07869,0.148144 0,0.04321 0.0108,0.08796 0.03239,0.134254 l 0.907371,2.004561 0.782383,-1.865678 c -0.126542,-0.237646 -0.223762,-0.374987 -0.29166,-0.412023 -0.07716,-0.0463 -0.206784,-0.06944 -0.388877,-0.06944 v -0.407392 h 2.425844 v 0.407392 H 25.70049 c -0.148144,0 -0.249995,0.02161 -0.305552,0.06481 -0.05558,0.04012 -0.08337,0.09414 -0.08337,0.162031 0,0.08024 0.0216,0.165119 0.06478,0.254621 l 0.856447,1.865678 0.740721,-1.810125 c 0.01848,-0.05247 0.02771,-0.108023 0.02771,-0.16666 0,-0.114195 -0.03239,-0.203698 -0.09717,-0.268511 -0.06174,-0.0679 -0.143528,-0.101847 -0.245367,-0.101847 h -0.175911 v -0.407392 h 1.726786 v 0.407392 c -0.358011,0.02468 -0.612631,0.222212 -0.763862,0.592573 l -1.398093,3.481365 h -0.347214 l -1.33792,-2.990641 -1.217553,2.990641 h -0.351834 l -1.652721,-3.731357 c -0.06174,-0.13271 -0.12501,-0.22067 -0.189814,-0.26388 -0.06174,-0.0463 -0.163586,-0.07253 -0.30554,-0.07871 z m 7.196306,0 h 2.23603 v 0.407393 h -0.129629 c -0.141969,0 -0.240729,0.02006 -0.296279,0.06019 -0.05246,0.03703 -0.07869,0.08642 -0.07869,0.148144 0,0.04321 0.0108,0.08796 0.03239,0.134254 l 0.90737,2.004561 0.782383,-1.865678 c -0.126542,-0.237646 -0.223762,-0.374987 -0.29166,-0.412023 -0.07716,-0.0463 -0.206784,-0.06944 -0.388876,-0.06944 v -0.407392 h 2.425844 v 0.407392 h -0.14351 c -0.148143,0 -0.249993,0.02161 -0.305551,0.06481 -0.05558,0.04012 -0.08337,0.09414 -0.08337,0.162031 0,0.08024 0.02159,0.165119 0.06478,0.254621 l 0.856447,1.865678 0.740721,-1.810125 c 0.01848,-0.05247 0.02771,-0.108023 0.02771,-0.16666 0,-0.114195 -0.03239,-0.203698 -0.09717,-0.268511 -0.06174,-0.0679 -0.143528,-0.101847 -0.245367,-0.101847 h -0.175911 v -0.407392 h 1.726786 v 0.407392 c -0.358011,0.02468 -0.612631,0.222212 -0.763862,0.592573 l -1.398094,3.481365 h -0.347213 l -1.337921,-2.990641 -1.217553,2.990641 h -0.351832 l -1.652722,-3.731357 c -0.06174,-0.132711 -0.12501,-0.220671 -0.189813,-0.26388 -0.06174,-0.0463 -0.163586,-0.07253 -0.305541,-0.07871 z"
     id="text3"
     style="font-weight:bold;font-size:8.31316px;line-height:1.35;font-family:'Century Schoolbook';-inkscape-font-specification:'Century Schoolbook, Bold';font-variant-ligatures:none;fill:#008000;stroke-width:0.592574"
     aria-label="www" /><path
     style="fill:#000000;fill-opacity:1;stroke-width:0.0639268"
     d="m 23.261161,44.109329 c -1.159363,-0.08412 -2.579093,-0.372428 -3.729007,-0.757236 -2.315408,-0.774825 -4.31008,-2.042177 -6.059274,-3.849869 -2.256592,-2.332102 -3.6350805,-5.135378 -4.1278186,-8.394333 -0.1559417,-1.03123 -0.1532971,-3.201535 0.00397,-4.251148 0.4961673,-3.286872 1.9793296,-6.240872 4.2973356,-8.558858 1.93296,-1.932968 4.330862,-3.301696 6.951495,-3.967903 1.368399,-0.347878 2.187906,-0.445195 3.748907,-0.445195 1.561001,0 2.380489,0.0973 3.748886,0.445195 2.620614,0.666207 5.018536,2.034935 6.951516,3.967903 1.952005,1.951996 3.344613,4.411977 3.994836,7.056567 0.330361,1.343694 0.418798,2.11298 0.418798,3.643845 0,0.98111 -0.03182,1.584817 -0.111096,2.109594 -0.49276,3.258955 -1.871234,6.062231 -4.127848,8.394333 -2.389718,2.469634 -5.336922,3.98507 -8.721172,4.484341 -0.683838,0.100869 -2.561737,0.17203 -3.240606,0.122766 z m 5.39757,-4.111243 c 0,0 3.637716,-1.842117 5.418722,-4.534639 1.868,-2.824072 2.433004,-6.156174 1.596021,-9.412371 -1.08791,-4.232225 -4.528235,-7.547456 -8.819389,-8.498737 -3.580469,-0.793729 -7.339096,0.172726 -10.170108,2.615055 -3.148322,2.716067 -4.625597,7.043238 -3.797221,11.122573 0.607386,2.990908 2.456368,5.737987 4.9901,7.413962 1.739446,1.150572 3.457628,1.740891 5.719821,1.965168 0.485735,0.04816 3.118555,-0.201884 3.118555,-0.201884 z"
     id="path3" /></svg>
