<?xml version="1.0" encoding="UTF-8" standalone="no"?>
<svg
   width="49"
   height="45"
   viewBox="0 0 49 45"
   fill="none"
   version="1.1"
   id="svg3"
   sodipodi:docname="features_icons.svg"
   inkscape:version="1.3.2 (091e20e, 2023-11-25, custom)"
   xml:space="preserve"
   xmlns:inkscape="http://www.inkscape.org/namespaces/inkscape"
   xmlns:sodipodi="http://sodipodi.sourceforge.net/DTD/sodipodi-0.dtd"
   xmlns="http://www.w3.org/2000/svg"
   xmlns:svg="http://www.w3.org/2000/svg"><defs
     id="defs3"><rect
       x="30.320267"
       y="100.16517"
       width="156.47424"
       height="19.4916"
       id="rect1" /><rect
       x="30.320267"
       y="100.16517"
       width="156.47424"
       height="19.4916"
       id="rect1-1" /><rect
       x="30.320267"
       y="100.16517"
       width="156.47424"
       height="19.4916"
       id="rect20" /><rect
       x="30.320267"
       y="100.16517"
       width="156.47424"
       height="19.4916"
       id="rect21" /><rect
       x="30.320267"
       y="100.16517"
       width="156.47424"
       height="19.4916"
       id="rect26" /></defs><sodipodi:namedview
     id="namedview3"
     pagecolor="#ffffff"
     bordercolor="#111111"
     borderopacity="1"
     inkscape:showpageshadow="0"
     inkscape:pageopacity="0"
     inkscape:pagecheckerboard="1"
     inkscape:deskcolor="#d1d1d1"
     showgrid="false"
     showguides="true"
     inkscape:zoom="1.439748"
     inkscape:cx="287.55032"
     inkscape:cy="89.946296"
     inkscape:window-width="2400"
     inkscape:window-height="1261"
     inkscape:window-x="1341"
     inkscape:window-y="616"
     inkscape:window-maximized="1"
     inkscape:current-layer="svg3" /><text
     xml:space="preserve"
     transform="translate(46.856924,-10.54436)"
     id="text1"
     style="font-style:normal;font-variant:normal;font-weight:bold;font-stretch:normal;font-size:16px;line-height:1.35;font-family:Arial;-inkscape-font-specification:'Arial, Bold';font-variant-ligatures:none;font-variant-caps:normal;font-variant-numeric:normal;font-variant-east-asian:normal;text-align:start;white-space:pre;shape-inside:url(#rect1)"
     x="59.453125"
     y="0"><tspan
       x="30.320312"
       y="115.37809"
       id="tspan1">Website Builds</tspan></text><g
     id="g3"
     transform="translate(-172.94693,158.36105)"><path
       d="m 110.29412,22.53369 h -1.7308 V 15.6107 c 0,-1.37706 -0.547,-2.69772 -1.5207,-3.67145 -0.9738,-0.973724 -2.2944,-1.52076 -3.6715,-1.52076 H 72.217838 c -1.37707,0 -2.69773,0.547036 -3.67146,1.52076 -0.973724,0.97373 -1.520759,2.29439 -1.520759,3.67145 v 24.216046 c -3.8e-4,1.010657 0.730066,1.745044 1.926849,1.7202 3.972671,0.06386 7.946021,0.02484 11.91905,0.02484 v 8.578285 c 0,1.3771 0.547,2.6977 1.5208,3.6715 0.9737,0.9737 2.294446,1.509443 3.6714,1.5207 9.322612,0.07621 18.660162,0.07621 27.770102,0.07442 0.2948,-0.0133 0.5812,-0.1018 0.8322,-0.257 0.2509,-0.1552 0.458,-0.372 0.6016,-0.6297 0.1435,-0.2578 0.2188,-0.548 0.2187,-0.843 v -25.9611 c 0,-1.3771 -0.5471,-2.6977 -1.5208,-3.6715 -0.9737,-0.9737 -2.2944,-1.5207 -3.6714,-1.5207 z M 70.487098,38.11029 V 15.6107 c 0,-0.45902 0.18234,-0.89924 0.50692,-1.22381 0.32458,-0.32458 0.7648,-0.50692 1.22382,-0.50692 h 31.153282 c 0.459,0 0.8993,0.18234 1.2238,0.50692 0.3246,0.32457 0.5069,0.76479 0.5069,1.22381 v 20.76889 c 0,0.459 -0.1823,0.8992 -0.5069,1.2238 -0.3245,0.3246 -0.7648,0.5069 -1.2238,0.5069 H 78.621518 c -2.711473,4.44e-4 -5.422946,0 -8.13442,0 z M 112.02482,51.880775 H 86.063718 c -0.459,0 -0.8992,-0.1823 -1.2238,-0.5069 -0.3246,-0.3246 -0.5069,-0.7648 -0.5069,-1.2238 V 41.57179 h 19.038102 c 1.3771,0 2.6977,-0.547 3.6715,-1.5208 0.9737,-0.9737 1.5207,-2.2944 1.5207,-3.6714 v -10.3845 h 1.7308 c 0.459,0 0.8992,0.1824 1.2238,0.507 0.3246,0.3245 0.5069,0.7648 0.5069,1.2238 z"
       fill="#000000"
       id="path1"
       sodipodi:nodetypes="scscsscscccsssccccscscscsscsscscccssscssscscsc" /><path
       d="M 106.41198,47.33505 H 90.108161 c -0.360328,0 -0.705906,-0.1824 -0.960697,-0.5069 -0.254799,-0.3246 -0.397938,-0.7648 -0.397938,-1.2239 0,-0.459 0.143139,-0.8992 0.397938,-1.2238 0.254791,-0.3246 0.600369,-0.5069 0.960697,-0.5069 h 16.303819 c 0.36032,0 0.70588,0.1823 0.9607,0.5069 0.25481,0.3246 0.39792,0.7648 0.39792,1.2238 0,0.4591 -0.14311,0.8993 -0.39792,1.2239 -0.25482,0.3245 -0.60038,0.5069 -0.9607,0.5069 z"
       fill="#321CA4"
       id="path4"
       style="fill:#008000;fill-opacity:1;stroke-width:0.886009" /><path
       style="fill:#008000;fill-opacity:1;stroke-width:1.32215"
       d="m 101.54266,32.643192 v -2.162647 l -2.065838,-1.694086 c -2.298299,-1.88478 -2.53827,-1.888161 -4.628057,-0.06477 -0.620122,0.541036 -1.394549,0.983756 -1.72094,0.983756 -0.326381,0 -2.323905,-1.427866 -4.438851,-3.172964 l -3.845451,-3.172963 -4.702641,3.681395 c 0,0 -4.70265,4.383709 -4.70265,4.636532 0,0.101889 0,1.08668 0,1.08668 v 2.041709 h 13.052241 13.052187 z"
       id="path7"
       sodipodi:nodetypes="ccccscccsccccc" /><circle
       style="fill:#008000;fill-opacity:1;fill-rule:evenodd;stroke-width:2.601;stroke-linecap:square;stroke-linejoin:round;stroke-miterlimit:3.8;stroke-dashoffset:13.6845;paint-order:stroke fill markers"
       id="path17"
       cx="95.15554"
       cy="19.795132"
       r="2.778264" /></g><path
     style="fill:#000000;stroke-width:0.0427809"
     d="m -122.03718,150.06821 c -6.17575,-0.28488 -12.12416,-2.83573 -17.04792,-7.31065 -0.59584,-0.54152 -1.95344,-1.90002 -2.46022,-2.46186 -0.98542,-1.09247 -3.45511,-4.21831 -3.62931,-4.59355 -0.20086,-0.43264 -0.16894,-1.07235 0.0728,-1.45994 0.13354,-0.2141 2.49548,-3.20225 2.95885,-3.74333 1.37146,-1.60146 3.01017,-3.19458 4.53776,-4.41151 3.56082,-2.83666 7.54745,-4.73466 11.70703,-5.57361 1.68333,-0.33951 3.13473,-0.47775 5.01606,-0.47775 1.46229,0 2.38161,0.0608 3.62568,0.23993 6.60942,0.95147 12.73741,4.50381 17.635175,10.22294 0.46337,0.54108 2.82531,3.52923 2.95885,3.74333 0.24177,0.38759 0.27368,1.0273 0.0728,1.45994 -0.1742,0.37524 -2.64389,3.50108 -3.629315,4.59355 -0.50678,0.56184 -1.86438,1.92034 -2.46022,2.46186 -3.51399,3.19366 -7.63613,5.45907 -11.89362,6.53639 -1.80497,0.45674 -3.37485,0.68788 -5.2755,0.77675 -0.97232,0.0455 -1.15411,0.0453 -2.18896,-0.002 z m 2.69733,-3.24966 c 2.96737,-0.22701 5.76733,-0.99285 8.44709,-2.31044 3.2301,-1.58819 6.30199,-4.02817 8.85013,-7.02958 0.59145,-0.69667 1.90927,-2.36943 1.90927,-2.42353 0,-0.0507 -1.07511,-1.43007 -1.66518,-2.13649 -4.40743,-5.27648 -9.89966,-8.55469 -15.81082,-9.43717 -2.11187,-0.31529 -4.4336,-0.31529 -6.54548,0 -5.91116,0.88248 -11.40339,4.16069 -15.81082,9.43717 -0.59007,0.70642 -1.66518,2.08583 -1.66518,2.13649 0,0.0541 1.31782,1.72686 1.90927,2.42353 1.83545,2.16195 4.01241,4.09408 6.26189,5.55765 3.35709,2.18421 7.09366,3.47551 10.93052,3.7774 0.67936,0.0534 2.51808,0.0563 3.18931,0.005 z m -16.36583,-25.34012 c -0.29994,-0.0777 -0.531,-0.20578 -0.75891,-0.42059 -0.10776,-0.10157 -0.81305,-0.83374 -1.56732,-1.62705 -0.9028,-0.94954 -1.40707,-1.5128 -1.47583,-1.64849 -0.4757,-0.93876 0.0241,-2.04193 1.04346,-2.30307 0.43595,-0.11169 0.8914,-0.0321 1.28266,0.22425 0.0824,0.054 0.8139,0.79185 1.62567,1.63978 1.26301,1.31927 1.49921,1.58636 1.63723,1.85131 0.20226,0.38827 0.24298,0.70334 0.14239,1.10172 -0.21441,0.84916 -1.10608,1.39551 -1.92935,1.18214 z m 28.94691,0.0118 c -0.29173,-0.0573 -0.56388,-0.20845 -0.7992,-0.44376 -0.51747,-0.51747 -0.62472,-1.22452 -0.28307,-1.86617 0.12868,-0.24169 0.42188,-0.5715 1.63279,-1.83663 0.81177,-0.84812 1.54332,-1.58618 1.62567,-1.64014 0.39126,-0.25631 0.84671,-0.33593 1.28266,-0.22425 1.01935,0.26114 1.51916,1.36432 1.04345,2.30308 -0.0687,0.13568 -0.57302,0.69895 -1.47582,1.64849 -0.75427,0.79331 -1.4597,1.5256 -1.56763,1.62733 -0.40906,0.38551 -0.92226,0.5375 -1.45885,0.43205 z m -22.14475,-3.82138 c -0.43714,-0.13862 -0.80208,-0.4338 -0.98123,-0.79368 -0.0532,-0.10696 -0.53736,-1.2918 -1.07582,-2.63298 l -0.97901,-2.43851 0.002,-0.36364 c 0.004,-0.49448 0.11681,-0.78068 0.43899,-1.10714 0.60588,-0.61391 1.48229,-0.67293 2.17391,-0.1464 0.28032,0.21342 0.43208,0.53492 1.42968,3.02895 0.92512,2.31282 0.99389,2.50332 1.01291,2.80578 0.0357,0.56755 -0.17533,1.04094 -0.61368,1.37676 -0.37629,0.28827 -0.98439,0.40524 -1.40819,0.27086 z m 15.10166,-0.0246 c -0.70144,-0.23202 -1.12787,-0.87243 -1.08069,-1.62297 0.019,-0.30246 0.0878,-0.49296 1.01291,-2.80578 0.61506,-1.53768 1.04988,-2.56583 1.14338,-2.70357 0.24162,-0.35597 0.57044,-0.56537 1.02974,-0.65573 0.51477,-0.10127 1.02922,0.0702 1.43046,0.47675 0.32219,0.32646 0.43567,0.61265 0.43899,1.10714 l 0.002,0.36364 -0.97901,2.43851 c -0.53845,1.34118 -1.02257,2.52602 -1.07581,2.63297 -0.33015,0.66321 -1.19565,1.00944 -1.92242,0.76904 z m -7.45323,-0.51028 c -0.62398,-0.16065 -1.1089,-0.69081 -1.21297,-1.32612 -0.0575,-0.35119 -0.0513,-7.07036 0.007,-7.38493 0.15851,-0.85748 0.99628,-1.45855 1.82053,-1.30618 0.70864,0.13099 1.21105,0.6216 1.3376,1.30618 0.0582,0.31457 0.0644,7.03374 0.007,7.38493 -0.12459,0.76057 -0.73499,1.31048 -1.49425,1.34619 -0.17985,0.009 -0.38896,-3.9e-4 -0.4647,-0.0201 z"
     id="path2"
     sodipodi:nodetypes="csssssssssssssssscccsssssssssssccsssssssssssssssscsssccsccssssscccsssssccsscccscsccscc" /><path
     d="m -131.93332,133.25133 h 2.23605 v 0.4074 h -0.12963 c -0.14197,0 -0.24073,0.0201 -0.29628,0.0602 -0.0525,0.037 -0.0787,0.0864 -0.0787,0.14814 0,0.0432 0.0108,0.088 0.0324,0.13425 l 0.90738,2.00456 0.78238,-1.86567 c -0.12654,-0.23765 -0.22376,-0.37499 -0.29166,-0.41203 -0.0772,-0.0463 -0.20678,-0.0694 -0.38887,-0.0694 v -0.40739 h 2.42584 v 0.40739 h -0.14351 c -0.14814,0 -0.24999,0.0216 -0.30555,0.0648 -0.0556,0.0401 -0.0834,0.0941 -0.0834,0.16203 0,0.0802 0.0216,0.16512 0.0648,0.25463 l 0.85645,1.86567 0.74072,-1.81012 c 0.0185,-0.0525 0.0277,-0.10802 0.0277,-0.16666 0,-0.1142 -0.0324,-0.2037 -0.0972,-0.26851 -0.0617,-0.0679 -0.14353,-0.10185 -0.24537,-0.10185 h -0.17591 v -0.40739 h 1.72679 v 0.40739 c -0.35801,0.0247 -0.61263,0.22221 -0.76387,0.59257 l -1.3981,3.48137 h -0.3472 l -1.33792,-2.99064 -1.21756,2.99064 h -0.35184 l -1.65272,-3.73136 c -0.0617,-0.13271 -0.12501,-0.22067 -0.1898,-0.26388 -0.0617,-0.0463 -0.1636,-0.0725 -0.30556,-0.0787 z m 7.19632,0 h 2.23603 v 0.4074 h -0.12963 c -0.14197,0 -0.24073,0.0201 -0.29628,0.0602 -0.0525,0.037 -0.0787,0.0864 -0.0787,0.14814 0,0.0432 0.0108,0.088 0.0324,0.13425 l 0.90737,2.00456 0.78239,-1.86567 c -0.12655,-0.23765 -0.22377,-0.37499 -0.29166,-0.41203 -0.0772,-0.0463 -0.20679,-0.0694 -0.38888,-0.0694 v -0.40739 h 2.42584 v 0.40739 h -0.14351 c -0.14814,0 -0.24999,0.0216 -0.30555,0.0648 -0.0556,0.0401 -0.0834,0.0941 -0.0834,0.16203 0,0.0802 0.0216,0.16512 0.0648,0.25463 l 0.85645,1.86567 0.74072,-1.81012 c 0.0185,-0.0525 0.0277,-0.10802 0.0277,-0.16666 0,-0.1142 -0.0324,-0.2037 -0.0972,-0.26851 -0.0617,-0.0679 -0.14353,-0.10185 -0.24537,-0.10185 h -0.17591 v -0.40739 h 1.72679 v 0.40739 c -0.35801,0.0247 -0.61263,0.22221 -0.76386,0.59257 l -1.3981,3.48137 h -0.34721 l -1.33792,-2.99064 -1.21755,2.99064 h -0.35184 l -1.65272,-3.73136 c -0.0617,-0.13271 -0.12501,-0.22067 -0.18981,-0.26388 -0.0617,-0.0463 -0.16359,-0.0725 -0.30554,-0.0787 z m 7.19631,0 h 2.23603 v 0.4074 h -0.12963 c -0.14197,0 -0.24073,0.0201 -0.29628,0.0602 -0.0525,0.037 -0.0787,0.0864 -0.0787,0.14814 0,0.0432 0.0108,0.088 0.0324,0.13425 l 0.90737,2.00456 0.78238,-1.86567 c -0.12654,-0.23765 -0.22376,-0.37499 -0.29166,-0.41203 -0.0772,-0.0463 -0.20678,-0.0694 -0.38887,-0.0694 v -0.40739 h 2.42584 v 0.40739 h -0.14351 c -0.14814,0 -0.24999,0.0216 -0.30555,0.0648 -0.0556,0.0401 -0.0834,0.0941 -0.0834,0.16203 0,0.0802 0.0216,0.16512 0.0648,0.25463 l 0.85645,1.86567 0.74072,-1.81012 c 0.0185,-0.0525 0.0277,-0.10802 0.0277,-0.16666 0,-0.1142 -0.0324,-0.2037 -0.0972,-0.26851 -0.0617,-0.0679 -0.14353,-0.10185 -0.24537,-0.10185 h -0.17591 v -0.40739 h 1.72678 v 0.40739 c -0.35801,0.0247 -0.61263,0.22221 -0.76386,0.59257 l -1.39809,3.48137 h -0.34721 l -1.33793,-2.99064 -1.21755,2.99064 h -0.35183 l -1.65272,-3.73136 c -0.0617,-0.13271 -0.12501,-0.22067 -0.18982,-0.26388 -0.0617,-0.0463 -0.16358,-0.0725 -0.30554,-0.0787 z"
     id="text3"
     style="font-weight:bold;font-size:8.31316px;line-height:1.35;font-family:'Century Schoolbook';-inkscape-font-specification:'Century Schoolbook, Bold';font-variant-ligatures:none;fill:#008000;stroke-width:0.592574"
     aria-label="www"
     sodipodi:nodetypes="cccscsccccccccscscccscscccccccccccccccccscsccccccccscscccscscccccccccccccccccscsccccccccscscccscscccccccccccccc" /><path
     style="fill:#000000;fill-opacity:1;stroke-width:0.0639268"
     d="m -122.12096,150.19391 c -1.15936,-0.0841 -2.57909,-0.37243 -3.729,-0.75723 -2.31541,-0.77483 -4.31008,-2.04218 -6.05928,-3.84987 -2.25659,-2.33211 -3.63508,-5.13538 -4.12781,-8.39434 -0.15595,-1.03123 -0.1533,-3.20153 0.004,-4.25114 0.49616,-3.28688 1.97932,-6.24088 4.29733,-8.55886 1.93296,-1.93297 4.33086,-3.3017 6.9515,-3.96791 1.36839,-0.34787 2.1879,-0.44519 3.7489,-0.44519 1.561,0 2.38049,0.0973 3.74889,0.44519 2.62061,0.66621 5.01853,2.03494 6.95151,3.96791 1.95201,1.95199 3.34462,4.41197 3.99484,7.05656 0.33036,1.3437 0.4188,2.11298 0.4188,3.64385 0,0.98111 -0.0318,1.58482 -0.1111,2.10959 -0.49276,3.25896 -1.87123,6.06223 -4.12785,8.39434 -2.38971,2.46963 -5.33692,3.98507 -8.72117,4.48434 -0.68384,0.10087 -2.56173,0.17203 -3.2406,0.12276 z m 5.39757,-4.11124 c 0,0 3.63772,-1.84212 5.41873,-4.53464 1.868,-2.82407 2.433,-6.15617 1.59602,-9.41237 -1.08791,-4.23223 -4.52824,-7.54746 -8.81939,-8.49874 -3.58047,-0.79373 -7.3391,0.17273 -10.17011,2.61506 -3.14832,2.71606 -4.6256,7.04323 -3.79722,11.12257 0.60739,2.99091 2.45637,5.73799 4.9901,7.41396 1.73945,1.15057 3.45763,1.74089 5.71982,1.96517 0.48574,0.0482 3.11856,-0.20188 3.11856,-0.20188 z"
     id="path3"
     sodipodi:nodetypes="cssscssssssssssccssssssssss" /><g
     id="g16"
     transform="matrix(0.83249295,0,0,0.83249295,19.931788,13.313485)"><path
       d="m -78.138672,87.255859 c -14.862673,3e-6 -27.165588,11.055153 -29.144528,25.378911 -0.18316,1.32572 -0.28516,2.67713 -0.28516,4.05273 0,0.14994 0.009,0.29785 0.0117,0.44727 h 2.59961 3.53515 3.242193 40.082031 3.242187 3.535157 2.599609 c 0.0022,-0.14942 0.01172,-0.29732 0.01172,-0.44727 0,-1.37562 -0.101995,-2.72699 -0.285157,-4.05273 -1.978944,-14.323758 -14.281855,-25.378911 -29.144531,-25.378911 z m 0,2.601563 c 13.454828,0 24.575341,9.872085 26.525391,22.777348 h -3.595703 c -1.931401,-10.91075 -11.480382,-19.253911 -22.929688,-19.253911 -11.449305,10e-7 -20.998287,8.343161 -22.929688,19.253911 h -3.5957 c 1.95005,-12.905263 13.070562,-22.777345 26.525388,-22.777348 z m 0,6.738281 c 9.517632,0.02094 17.714906,6.717047 19.634766,16.039067 h -39.269531 c 1.919859,-9.32202 10.117133,-16.018128 19.634765,-16.039067 z"
       style="fill:#000000;fill-rule:evenodd;stroke-linecap:square;stroke-linejoin:round;stroke-miterlimit:3.8;stroke-dashoffset:13.6845;paint-order:stroke fill markers"
       id="path15" /><path
       id="path16"
       style="opacity:1;fill:#008000;fill-rule:evenodd;stroke-width:1.42254;stroke-linecap:square;stroke-linejoin:round;stroke-miterlimit:3.8;stroke-dashoffset:13.6845"
       d="m -74.925026,110.04381 c -1.924344,1.69485 -3.818231,2.14939 -4.774057,1.21946 -0.955825,-0.92994 0.248534,-2.55563 2.172902,-4.25048 1.924345,-1.69484 6.161872,-3.68176 8.394319,-4.81748 -1.407582,2.02384 -4.455211,6.6701 -5.793164,7.8485 z"
       sodipodi:nodetypes="szscs" /></g><g
     id="g19"
     transform="translate(-212.78512,110.15403)"><path
       d="m 46.551909,37.332184 0.711134,0.743519 q -3.753216,3.015383 -8.17806,2.850156 -4.405091,-0.144573 -7.269388,-3.139301 -1.066703,-1.11528 -2.884049,-3.965434 -1.77784,-2.808851 -2.469222,-3.531715 -1.540794,-1.610958 -4.02977,-1.610957 -2.508727,-0.02065 -4.898935,1.900103 l -0.829657,-0.867439 q 1.876608,-2.581664 1.837102,-5.183979 -0.05926,-2.62297 -1.738333,-4.378501 Q 15.91381,19.219238 13.484098,17.670241 11.034631,16.059283 9.948172,14.92335 6.9653534,11.804703 6.7875694,7.3642414 6.5900317,2.9031279 9.533344,-1.3721059 l 0.651873,0.68155893 q -3.5161702,5.86553817 0.355569,9.91358517 0.88892,0.9293988 2.824789,2.2099038 3.121096,2.065331 4.168045,3.159955 2.330945,2.43709 2.706266,6.010111 0.395075,3.552369 -1.52104,7.74499 3.832232,-1.858796 7.38791,-1.44573 3.555679,0.371758 5.689085,2.602315 1.106211,1.156586 2.607498,3.63498 1.876609,2.994731 2.765529,3.924128 1.738331,1.817491 4.168045,1.962065 2.429713,0.144572 5.214996,-1.693572 z"
       id="path19"
       style="font-size:72.1444px;line-height:1.35;font-family:'Century Schoolbook';-inkscape-font-specification:'Century Schoolbook, Normal';font-variant-ligatures:none;fill:#008000;fill-opacity:1;stroke-width:3.65633"
       aria-label="{" /><path
       d="m 45.314509,38.664561 0.72194,0.72194 q -3.81024,2.927869 -8.302314,2.767438 -4.472019,-0.140377 -7.379834,-3.048192 -1.082911,-1.082911 -2.927869,-3.850349 -1.804851,-2.72733 -2.506737,-3.429216 -1.564205,-1.564205 -4.090996,-1.564204 -2.546845,-0.02005 -4.973367,1.844958 l -0.842263,-0.842263 q 1.90512,-2.506738 1.865013,-5.033529 -0.06016,-2.546845 -1.764744,-4.251426 Q 14.210913,21.077292 11.744284,19.57325 9.2576,18.009046 8.1546354,16.906081 5.1264971,13.877943 4.946012,9.5663546 4.745473,5.2347126 7.7335039,1.0835557 l 0.6617786,0.6617786 q -3.5695939,5.6953071 0.3609702,9.6258707 0.9024253,0.902426 2.8677073,2.145768 3.168516,2.005389 4.231373,3.068246 2.366359,2.36636 2.747383,5.835684 0.401078,3.449271 -1.54415,7.520212 3.890457,-1.80485 7.500159,-1.403772 3.609701,0.36097 5.775522,2.526791 1.123018,1.123018 2.647114,3.529485 1.905121,2.907816 2.807547,3.810241 1.764742,1.764743 4.231372,1.905121 2.466629,0.140377 5.294229,-1.64442 z"
       id="text19"
       style="font-size:72.1444px;line-height:1.35;font-family:'Century Schoolbook';-inkscape-font-specification:'Century Schoolbook, Normal';font-variant-ligatures:none;fill:#000000;stroke-width:3.63015"
       aria-label="{" /></g><g
     id="g28"
     transform="translate(215.31546,122.24361)"><path
       id="path4-1"
       style="fill:#000000;stroke-width:1.38424"
       d="m 28.164153,3.889313 c -2.23996,4.71e-4 -3.83927,0.01859 -5.03515,0.128906 h -1.5293 l -0.29102,0.332031 c -1.25469,0.407484 -1.85405,1.171205 -2.75976,2.59961 l -1.06055,1.671875 -2.74609,0.03711 c -1.51075,0.02042 -4.17624,0.01789 -5.9238294,-0.0078 -4.00508,-0.05751 -5.84307,0.427991 -7.05078,1.863281 l -0.94336001,1.11914 v 12.968745 12.9668 l 1.06836001,1.19727 c 0.96289,1.07803 1.3147,1.21377 3.57031,1.3789 v 0.002 c 1.31569,0.0964 8.8316794,0.0976 16.9667994,0.01 l 10.08203,0.11914 c 8.561,0.1008 9.39896,0.1008 10.77539,0 v -0.002 c 2.25561,-0.16512 3.215165,0.003 4.178055,-1.075037 l 0.460615,-1.501133 v -12.9668 -12.968748 l -0.9414,-1.119141 c -2.75318,-3.272126 -4.38398,-1.830568 -8.42969,-1.892578 l -1.06055,-1.671875 c -0.81951,-1.292445 -1.39005,-2.038062 -2.41992,-2.470703 l -0.63086,-0.71875 z m 2.22657,2.333984 c 2.52732,0.100978 2.86184,0.279938 3.66796,1.052735 0.51369,0.492415 0.97507,0.779773 1.36719,0.917968 l 0.375,0.402344 -4.66601,0.09375 c -0.41231,-0.0088 -0.67192,-0.01677 -1.09766,-0.02539 l -9.79297,-0.197265 0.0586,-0.0625 c 0.44708,-0.06475 1.02353,-0.367273 1.68359,-1 1.03084,-0.988229 1.14851,-1.008403 6.28711,-1.130859 z m -11.08399,5.00586 c 3.11667,0.06857 8.60836,0.117042 14.97461,0.11914 9.40067,0 10.01682,0.143707 10.2832,0.3125 0.91986,0.583265 1.13308,3.201245 1.13868,14.000004 0.006,8.68859 -0.0954,10.97816 -0.50391,11.53711 -0.48545,0.66416 -0.384698,0.772679 -10.73437,0.88086 l -0.29297,0.004 -12.5918,-0.13281 c -16.6857694,-0.17442 -17.5438494,-0.2167 -18.0292994,-0.88086 -0.40852,-0.55895 -0.5099,-2.84852 -0.5039,-11.53711 0.006,-10.798756 0.21881,-13.416737 1.13867,-14 0.24188,-0.15327 6.8812894,-0.279616 15.1210894,-0.302734 z m -9.3281195,4.060544 c -0.1785999,-7e-4 -0.3729499,0.006 -0.5800799,0.0195 -1.90917,0.12132 -2.51441,0.86308 -1.60156,1.96289 0.85692,1.0326 4.0384594,0.345 4.0097594,-0.86718 -0.0171,-0.75937 -0.57794,-1.11034 -1.8281195,-1.11524 z"
       sodipodi:nodetypes="ccccccscccccccccccccccccccccccsccccccsccscccscccscccssccsss" /><path
       id="path26"
       style="fill:#008000;fill-opacity:1;stroke-width:1.38424"
       d="m 24.513763,15.813371 v 4e-5 z m -0.0898,2.06836 c -0.56793,-0.0142 -1.17774,0.0541 -1.78125,0.2207 -2.40715,0.66462 -4.60352,3.17036 -4.60352,5.25196 0,0.72542 0.18216,0.93164 0.82227,0.93164 0.61135,-0.003 0.98108,-0.37823 1.43164,-1.45117 0.86697,-2.06451 2.56272,-3.03989 4.80273,-2.76368 1.37656,0.16978 1.7912,0.0958 1.96289,-0.35156 0.39132,-1.01964 -0.93098,-1.79538 -2.63476,-1.83789 z m 6.03516,6.0918 c -0.10006,-0.0134 -0.22192,-0.007 -0.3711,0.0156 -0.52417,0.0798 -0.92724,0.58332 -1.26758,1.58203 -0.58761,1.72441 -1.53006,2.5782 -3.49218,3.16602 -1.35797,0.40695 -1.76223,0.95448 -1.15625,1.56836 0.45057,0.45647 3.07143,-0.052 4.08984,-0.79297 1.11113,-0.80834 2.5957,-3.54017 2.5957,-4.77734 0,-0.50259 -0.0983,-0.72158 -0.39843,-0.76172 z"
       sodipodi:nodetypes="cccsssssssssscscsscs" /><path
       id="path27"
       style="fill:#000000;stroke-width:1.38424"
       d="m 24.771583,13.294914 c -4.67436,-0.12329 -9.34439,2.817947 -10.95899,7.951167 -1.77981,5.65858 2.00848,12.08286 8.07031,13.6836 1.76175,0.46521 5.01339,0.10478 7.08204,-0.78516 2.50076,-1.07581 4.9927,-3.82287 5.73437,-6.32031 1.35836,-4.57417 0.32424,-8.57779 -3.01758,-11.6875 -2.01155,-1.871837 -4.46168,-2.777217 -6.91015,-2.841797 z m -0.25782,2.494137 c 3.84393,0 7.80677,3.39189 8.37305,7.16797 0.53093,3.54059 -1.65781,7.4683 -5.00781,8.98828 v 0.002 c -2.19216,0.99452 -4.81255,0.94691 -7.09375,-0.12891 -2.1822,-1.0291 -3.17747,-2.04283 -4.18164,-4.25781 -0.99852,-2.20269 -0.96151,-4.51019 0.10937,-6.77539 1.56645,-3.31353 4.19402,-4.9961 7.80078,-4.9961 z"
       sodipodi:nodetypes="sssssssscscscsss" /></g><path
     style="fill:#008000;fill-opacity:1;stroke-width:1.96196"
     d="m 359.75148,163.29361 c -0.14117,-0.36867 -0.19248,-4.27868 -0.11353,-8.68841 0.13068,-7.26566 0.23239,-8.03474 1.08527,-8.1985 1.31739,-0.25307 12.81481,7.63894 12.81481,8.79618 0,1.0866 -10.93918,8.76141 -12.48791,8.76141 -0.57272,0 -1.15718,-0.3016 -1.29871,-0.67068 z m 8.07647,-8.12917 c 0,-0.16194 -0.52563,-0.61975 -1.16796,-1.01758 -0.6424,-0.39797 -1.69357,-1.06486 -2.33597,-1.48229 l -1.168,-0.75906 v 3.42324 3.42315 l 2.33597,-1.6466 c 1.28479,-0.9056 2.33596,-1.77892 2.33596,-1.94086 z"
     id="path20"
     sodipodi:nodetypes="scsssssssscccss" /><g
     id="g37"
     transform="matrix(0.66271403,0,0,0.66271403,-58.135926,90.623283)"><path
       style="fill:#000000;stroke:#000000;stroke-width:2.601;stroke-dasharray:none"
       d="m 107.60316,43.574654 c -2.00759,-0.6725 -3.60293,-2.4077 -4.30578,-4.6832 -0.53364,-1.7277 -0.55466,-2.6944 -0.58932,-27.1078 -0.0355,-25.0064 -0.0289,-25.3299 0.53524,-26.4357 0.85942,-1.6847 1.87066,-2.758 3.20858,-3.4057 1.19413,-0.5781 1.42318,-0.5832 26.81753,-0.608 17.99932,-0.018 25.95535,0.067 26.7644,0.285 1.43936,0.3875 3.29334,2.1452 4.09727,3.8844 0.57236,1.2383 0.60652,1.7949 0.74667,12.1658002 0.0808,5.9776 0.14295,17.3890998 0.13815,25.3590998 -0.008,13.3385 -0.0491,14.5951 -0.51613,15.7992 -0.71493,1.8432 -2.40079,3.6461 -4.14748,4.4354 l -1.47352,0.6659 -24.94113,0.057 c -22.68014,0.051 -25.06744,0.014 -26.33448,-0.4105 z m 50.71827,-0.8037 c 2.57268,-0.3757 4.56579,-2.1452 5.31358,-4.7175 0.40534,-1.3944 0.43977,-4.0733 0.33569,-26.1243 -0.0878,-18.6229998 -0.19919,-24.7729 -0.45982,-25.4065 -0.67319,-1.6368 -1.77569,-2.9101 -3.06085,-3.5351 l -1.29259,-0.6286 -25.08046,-0.04 c -16.24431,-0.026 -25.5133,0.061 -26.30903,0.2449 -1.71237,0.3971 -3.21791,1.9579 -3.79134,3.9305 -0.39501,1.3587 -0.43138,4.2312002 -0.33087,26.1364 0.10386,22.6376 0.15237,24.7216 0.60512,26.0032 0.90118,2.5512 2.26498,3.8147 4.65767,4.3152 1.28357,0.2685 47.49558,0.1016 49.4129,-0.1784 z m -37.2206,-8.64372 c 0,0.95084 -3.37586,-1.126708 -5.33924,-2.900651 -3.32876,-3.007281 -3.51728,-3.955747 -3.55053,-17.864149 -0.0231,-9.6705116 0.0822,-11.9909465 0.62592,-13.78828255 1.19802,-3.96019555 3.68179,-6.90418725 7.18509,-8.51653715 1.93518,-0.8906314 2.41671,-0.9243566 14.94134,-1.0456237 l 12.94171,-0.1248546 2.1188,1.0365822 c 1.95497,0.9564332 2.24658,1.291028 3.77176,4.3270105 2.10345,4.18708697 2.40146,6.2767556 2.41161,16.9095103 0.009,9.530589 -0.33332,12.102169 -2.08947,15.692535 -1.34735,2.754557 -4.35247,5.794558 -6.19002,6.261831 -0.61088,0.155423 -6.41973,0.35519 -12.90852,0.444167 -9.57452,0.130596 -13.91845,-0.0766 -13.91845,-0.431108 z m 27.37579,-1.901669 c 1.81119,-0.970567 3.9914,-3.681927 5.036,-6.263122 0.86662,-2.141333 0.90305,-2.707485 0.90305,-14.029095 0,-11.36552401 -0.0336,-11.88087325 -0.91467,-14.06038 -1.28664,-3.1825076 -2.47951,-4.8251384 -4.09237,-5.6354035 -1.23315,-0.6195384 -2.7592,-0.6989002 -13.38954,-0.6951689 -13.24921,0 -15.20806,0.2594685 -17.75854,2.3113937 -1.87538,1.5087347 -3.0911,3.3320464 -3.89818,5.84636511 -0.85479,2.66285299 -1.28518,22.05324459 -0.56129,25.28798959 0.52851,2.361623 2.13021,4.794858 4.06133,6.169984 2.52331,1.796618 4.10392,1.967253 17.15687,1.851009 10.54311,-0.09328 12.36861,-0.200198 13.45734,-0.783572 z m -11.85764,-9.894246 -10.59802,-0.199911 0.0558,-2.599565 c 0.0307,-1.429803 0.0979,-6.918682 0.1492,-12.1977462 0.10304,-10.5737723 0.31694,-13.0401582 1.15571,-13.3185702 0.47658,-0.158293 0.52828,1.825608 0.34394,13.2043352 l -0.21694,13.3903252 11.62988,0.283292 c 11.50401,0.280277 13.9723,0.565434 11.85695,1.369672 -0.56135,0.213545 -1.64116,0.361075 -2.39956,0.328211 -0.7584,-0.03301 -6.14802,-0.150113 -11.97694,-0.260043 z"
       id="path29-3"
       sodipodi:nodetypes="sssssscsscsscssssssssccsssssssssssscssssssssscsscsssssscccssscsscsccc" /><path
       style="fill:#008000;fill-opacity:1;stroke-width:1.96196"
       d="m 134.59784,13.984673 c -0.14117,-0.36867 -0.19248,-4.2786797 -0.11353,-8.6884097 0.13068,-7.26566 0.23239,-8.03474 1.08527,-8.1985 1.31739,-0.25307 12.81481,7.63894 12.81481,8.79618 0,1.0866 -10.93918,8.7614097 -12.48791,8.7614097 -0.57272,0 -1.15718,-0.3016 -1.29871,-0.67068 z m 8.07647,-8.1291697 c 0,-0.16194 -0.52563,-0.61975 -1.16796,-1.01758 -0.6424,-0.39797 -1.69357,-1.06486 -2.33597,-1.48229 l -1.168,-0.75906 v 3.42324 3.42315 l 2.33597,-1.6466 c 1.28479,-0.9056 2.33596,-1.77892 2.33596,-1.94086 z"
       id="path20-9"
       sodipodi:nodetypes="scsssssssscccss" /></g><rect
     style="fill:none;fill-opacity:1;fill-rule:evenodd;stroke:#000000;stroke-width:3.52088;stroke-linecap:square;stroke-linejoin:round;stroke-miterlimit:3.8;stroke-dasharray:none;stroke-dashoffset:13.6845;paint-order:normal"
     id="rect29"
     width="43.078156"
     height="26.623764"
     x="344.31668"
     y="141.80171"
     ry="4.1312737" /><g
     id="g30"
     transform="matrix(1.0752187,0,0,1.0752187,139.49382,93.39552)"><path
       style="fill:#000000;stroke-width:1.14496"
       d="m 22.1165,34.519679 c -0.0063,-1.068354 -0.32422,-1.438024 -2.038366,-2.372933 -2.98059,-1.625506 -7.670542,-4.491267 -8.294799,-5.068424 -0.466022,-0.430811 -1.308037,-0.56515 -3.5431941,-0.56515 -3.3260766,0 -3.7725314,-0.308548 -4.0656256,-2.809777 -0.2812217,-2.399873 -0.1807267,-3.312676 0.4647058,-4.223474 0.5141177,-0.725467 0.8787184,-0.883248 2.0402532,-0.883248 h 1.4142553 c 0.061392,-1.802714 1.6222267,-1.518746 1.5301394,3.93e-4 H 11.1053 c 0.907769,0 1.673145,0.204804 1.976476,0.528286 0.740426,0.790176 22.213781,0.811594 22.952808,0.0223 0.298107,-0.318098 1.078441,-0.532825 1.961476,-0.539693 l 1.466425,-0.0079 c -0.0073,-1.186855 1.545459,-1.275657 1.545459,2.75e-4 h 1.522584 c 1.98291,0 2.542666,0.70114 2.542666,3.1849 0,2.15506 -0.413749,3.913953 -1.030165,4.379388 -0.256578,0.19384 -1.739304,0.352289 -3.294971,0.352289 -2.745452,0 -2.882539,0.03881 -4.671061,1.309354 -1.013452,0.720172 -2.53121,1.682689 -3.3728,2.139017 -4.448248,2.411889 -5.270626,3.545599 -5.25312,4.343851 0.0179,0.814246 -3.49232,1.224602 -5.334563,0.210886 z m 5.234883,-4.163344 c 0.126461,-0.558794 -0.605108,-1.255513 -2.635327,-1.255513 -1.925135,0 -1.975529,0.363068 -2.188405,0.914296 -0.07172,0.830439 -0.02827,2.193841 2.21215,2.193841 2.135296,0 2.236689,-0.196002 2.611582,-1.852624 z m -0.416555,-4.140294 c 0.444352,0.06838 0.834112,1.680733 0.964793,2.036186 0.188177,0.511869 0.669922,1.591158 3.220178,0.09019 l 4.636738,-2.728877 -0.08295,-1.619317 c -0.04561,-0.890568 -0.139351,-1.700226 -0.208329,-1.799195 -0.06901,-0.09896 -5.022118,-0.179947 -11.006939,-0.179947 H 13.57687 l -0.07577,1.832404 -0.07556,1.832551 1.478353,0.928405 c 0.81311,0.51067 2.853133,1.701347 4.533416,2.646031 2.99974,1.686492 1.56825,-1.24272 2.218278,-2.053547 0.574337,-0.716418 0.904149,-1.08204 1.630621,-1.204373 0.466829,-0.0787 1.382314,-0.129377 1.986043,-0.03635 z m -15.066429,-3.521293 0.07677,-1.479525 -1.033806,-0.195549 c -0.568585,-0.107683 -1.9515962,-0.106868 -3.0733075,0 L 5.7985484,21.21708 v 1.328012 c 0,0.730321 0.080162,1.440942 0.1779344,1.578946 0.09796,0.137983 1.4463077,0.205384 2.996592,0.149793 l 2.8187272,-0.100963 z m 31.419637,0.08715 c 0,-1.537218 -0.02131,-1.577147 -0.956374,-1.795235 -0.526004,-0.122696 -1.849381,-0.224809 -2.940864,-0.227039 -2.219776,-0.0079 -2.397689,0.192317 -2.112457,2.3377 l 0.167149,1.25673 h 2.921283 2.921304 z"
       id="path21"
       sodipodi:nodetypes="sssssssccscccccsssscsscsscssscscssscccssscsscscccsccccsccscccsc" /><path
       id="rect25"
       style="fill:#008000;fill-rule:evenodd;stroke-width:2.89935;stroke-linecap:square;stroke-linejoin:round;stroke-miterlimit:3.8;stroke-dashoffset:13.6845"
       d="m 34.113081,15.10145 h 12.09668 c 0.448723,0 0.80998,0.280644 0.80998,0.629259 v 0.786589 c 0,0.348615 -0.361257,0.629269 -0.80998,0.629269 h -12.09668 c -0.448723,0 -0.809981,-0.280654 -0.809981,-0.629269 v -0.786589 c 0,-0.348615 0.361258,-0.629259 0.809981,-0.629259 z" /><path
       id="rect30"
       style="fill:#008000;fill-rule:evenodd;stroke-width:2.89935;stroke-linecap:square;stroke-linejoin:round;stroke-miterlimit:3.8;stroke-dashoffset:13.6845"
       d="M 2.8142007,14.978667 H 14.910881 c 0.448723,0 0.80998,0.280644 0.80998,0.629259 v 0.786589 c 0,0.348615 -0.361257,0.629269 -0.80998,0.629269 H 2.8142007 c -0.4487231,0 -0.8099805,-0.280654 -0.8099805,-0.629269 v -0.786589 c 0,-0.348615 0.3612574,-0.629259 0.8099805,-0.629259 z" /></g><g
     id="g34"
     transform="translate(52.09245,150.72082)"><path
       style="fill:#000000;stroke:#000000;stroke-width:1.45687;stroke-dasharray:none"
       d="m 33.405658,41.102805 c -0.04997,-0.04985 -0.09561,-3.262856 -0.101459,-7.139825 -0.0059,-3.876913 -0.05727,-11.51642 -0.114303,-16.97662 l -0.103695,-9.9276439 0.375537,-0.089675 c 0.206521,-0.04929 3.064826,-0.093708 6.35175,-0.098693 4.608937,-0.00728 5.990934,0.035287 6.040493,0.1837187 0.140398,0.4212088 0.22706,5.5170512 0.331657,19.5028632 l 0.109436,14.627484 -6.399311,0.0056 c -3.519608,0.0056 -6.440158,-0.03641 -6.490105,-0.08626 z m 12.28432,-6.813557 c -0.05841,-3.45548 -0.122655,-6.302112 -0.143177,-6.325917 -0.02062,-0.02352 -2.685425,-0.08659 -5.921838,-0.139525 l -5.884387,-0.09623 0.07698,0.998018 c 0.04235,0.548915 0.08164,3.4389 0.08736,6.422089 l 0.01047,5.424128 h 5.940254 5.940248 z m -0.0911,-11.73072 -0.05483,-4.745769 -0.702399,-0.09079 c -0.566823,-0.07326 -5.839259,-0.12457 -10.262859,-0.09987 l -0.819486,0.0056 v 4.734734 c 0,2.604102 0.04683,4.781561 0.10407,4.838748 0.05722,0.05724 2.733522,0.104071 5.9473,0.104071 h 5.84323 z M 45.465914,12.317777 V 7.4771243 l -5.814357,0.040888 -5.814299,0.040889 -0.04128,4.7196107 -0.04133,4.719611 5.270308,0.04312 c 2.898649,0.02352 5.533686,0.05988 5.85562,0.08016 l 0.585334,0.03641 z M 1.5271882,40.692126 c 0.10603,-0.370182 4.7003093,-14.310568 8.6046738,-26.109176 1.25001,-3.777324 2.373058,-7.0259529 2.495662,-7.2190816 0.219818,-0.346265 0.269596,-0.3511941 3.556151,-0.3511941 2.480068,0 3.372756,0.04985 3.487748,0.1950892 0.085,0.1073186 0.264757,0.5462829 0.39946,0.9755574 0.499457,1.5915756 3.527271,10.9509251 3.761966,11.6286681 0.242206,0.699475 0.980727,2.978596 3.995619,12.330999 0.871756,2.704251 1.860393,5.734713 2.196984,6.734412 0.336575,0.999699 0.611974,1.895215 0.611974,1.9901 0,0.260679 -5.994787,0.238946 -6.209407,-0.0224 -0.151641,-0.184783 -0.68628,-1.854608 -2.22563,-6.95129 l -0.673385,-2.229494 -5.277292,0.01624 c -3.815446,0.01233 -5.310306,0.06693 -5.396475,0.19789 -0.06555,0.09959 -0.78645,2.184069 -1.6020149,4.63212 l -1.4828456,4.451035 -3.1723741,0.04257 -3.1723524,0.04257 z m 5.8935626,-0.492904 c 0.065249,-0.09556 0.5470443,-1.508285 1.0706659,-3.139405 1.5073503,-4.695694 1.8841133,-5.76776 2.0684263,-5.885553 0.09485,-0.06061 2.642945,-0.114544 5.662429,-0.119922 4.818534,-0.0084 5.520322,0.02073 5.738163,0.238387 0.136501,0.136501 0.248183,0.344193 0.248183,0.461537 0,0.117345 0.172427,0.762097 0.3832,1.43267 0.21075,0.670686 0.773903,2.516555 1.25146,4.101969 0.477534,1.585414 0.935145,2.94947 1.016889,3.031247 0.08176,0.08172 1.285801,0.181366 2.675644,0.221415 2.428578,0.06995 2.522453,0.06139 2.409891,-0.221583 C 29.762488,39.859231 28.329885,35.51137 26.505704,29.879719 25.58804,27.046698 24.497619,23.710298 24.082544,22.465492 23.407052,20.439657 20.507092,11.491042 19.681768,8.885709 19.504996,8.3276634 19.305862,7.8114586 19.239225,7.7384752 19.034451,7.5142041 13.280387,7.599062 13.06548,7.8294943 12.964054,7.9382693 11.424138,12.452373 9.6434895,17.860817 7.8628299,23.269374 5.4661742,30.515509 4.3175793,33.963428 3.1689781,37.411347 2.229212,40.268509 2.229212,40.31259 c 0,0.184895 0.6702154,0.218671 2.8096028,0.141766 1.3984635,-0.05041 2.3086216,-0.147759 2.381936,-0.255134 z M 13.159491,26.710571 c -0.555789,-0.02576 -1.0578,-0.123898 -1.115599,-0.217381 -0.122122,-0.197611 0.0087,-0.669958 1.720677,-6.212943 2.313557,-7.490739 2.343428,-7.572236 2.657217,-7.250336 0.271955,0.278883 4.176308,13.439473 4.030392,13.585384 -0.08648,0.08648 -5.868828,0.161986 -7.292687,0.09528 z m 6.573898,-0.811107 c -0.06403,-0.26852 -1.312289,-4.574148 -2.194739,-7.570332 -0.328694,-1.116036 -0.722989,-2.468161 -0.876193,-3.004754 -0.153214,-0.536537 -0.323977,-0.975502 -0.379463,-0.975502 -0.05551,0 -0.581995,1.597905 -1.169996,3.550982 -0.58799,1.953076 -1.374351,4.521889 -1.747457,5.708611 -0.3731,1.18661 -0.678174,2.240192 -0.677939,2.341293 0,0.135662 0.931319,0.183831 3.551025,0.183831 3.076847,0 3.543151,-0.03137 3.494762,-0.234129 z"
       id="path31"
       sodipodi:nodetypes="ccsccsccccccccsccccccccccsssccccscccssccssssssssssssccsscccsssssssssssssssssssssssssssssssssscsssscc" /><path
       style="opacity:1;fill:#ffffff;fill-opacity:1;fill-rule:evenodd;stroke:none;stroke-width:0.588818;stroke-linecap:square;stroke-linejoin:round;stroke-miterlimit:3.8;stroke-dasharray:none;stroke-dashoffset:13.6845;paint-order:normal"
       d="m 37.02905,16.192493 -2.387571,-0.05363 V 12.236825 8.3347919 h 5.035603 5.035604 v 3.9937541 3.993755 l -2.648033,-0.03809 c -1.456418,-0.02095 -3.72244,-0.06222 -5.035603,-0.09172 z"
       id="path32" /><path
       style="opacity:1;fill:#000000;fill-opacity:1;fill-rule:evenodd;stroke:none;stroke-width:0.588818;stroke-linecap:square;stroke-linejoin:round;stroke-miterlimit:3.8;stroke-dasharray:none;stroke-dashoffset:13.6845;paint-order:normal"
       d="m 34.64152,34.163965 4.1e-5,-5.599938 h 5.013206 5.013206 l 0.108136,1.389132 c 0.05947,0.764022 0.108605,3.283994 0.109178,5.599938 l 0.001,4.210806 h -5.122424 -5.122424 z"
       id="path33" /><path
       style="opacity:1;fill:#008000;fill-opacity:1;fill-rule:evenodd;stroke:none;stroke-width:0.588818;stroke-linecap:square;stroke-linejoin:round;stroke-miterlimit:3.8;stroke-dasharray:none;stroke-dashoffset:13.6845;paint-order:normal"
       d="m 36.247663,26.437775 -1.606184,-0.0573 V 22.381153 18.38183 l 4.93458,0.0555 c 2.714019,0.03052 4.969228,0.09456 5.011575,0.142315 0.04235,0.04775 0.128127,1.864476 0.190621,4.037165 l 0.113625,3.950344 -3.519017,-0.03604 c -1.935459,-0.01982 -4.241799,-0.06182 -5.1252,-0.09334 z"
       id="path34" /></g><path
     style="color:#000000;fill:#008000;-inkscape-stroke:none"
     d="m 12.158581,61.3324 v -1.717671 h 0.60116 c 0.874768,0 6.781722,-0.04509 9.069043,0 0.934597,0.01842 0.807283,-0.229889 0.807283,1.92372 v 1.51156 h -5.238743 -5.238743 z m 7.068949,1.030553 h 2.721487 v -1.090402 -1.090402 l -4.594635,0.07575 c -2.527056,0.04191 -4.597716,0.08789 -4.601482,0.102809 -0.0037,0.01479 0.02299,0.521317 0.05948,1.125596 l 0.06631,1.098599 1.8137,-0.110944 c 0.997529,-0.06102 3.038358,-0.111007 4.535175,-0.111007 z m -5.12842,-2.748224 h 3.386398 3.386409 c -1.78183,0.05724 -5.870821,-0.105943 -6.772807,0 z"
     id="path35" /><path
     style="color:#000000;fill:#008000;-inkscape-stroke:none"
     d="m 38.777045,58.180849 c -1.019392,-0.01532 -1.710758,-0.0044 -2.371094,0.01758 -0.205944,0.001 -0.532044,-8.05e-4 -0.697266,0 -0.317484,0.0015 -1.214909,0 -1.339843,0 h -1.402344 v 2.519531 2.519532 h 6.041015 6.039063 v -2.3125 c 0,-0.530504 0.0087,-0.912727 0.0059,-1.214844 -0.0029,-0.302117 0.01806,-0.516376 -0.117187,-0.84961 -0.06762,-0.166616 -0.214056,-0.370127 -0.400391,-0.488281 -0.186334,-0.118154 -0.36411,-0.148428 -0.490234,-0.162109 -0.252248,-0.02736 -0.39131,-0.0078 -0.589844,-0.01172 -0.248897,-0.0049 -0.652149,0.003 -0.972656,0 -0.129361,-0.0012 -0.253979,9.26e-4 -0.392578,0 -0.868067,0.01556 -2.08869,8.08e-4 -3.3125,-0.01758 z m 3.980468,2.203125 v 0.275391 0.289062 h -1.919921 c -0.0077,0 -0.01567,-2e-6 -0.02344,0 -1.512143,4.98e-4 -3.528445,0.04819 -4.560547,0.111328 l -1.013672,0.0625 -0.01758,-0.298828 c -0.0071,-0.117002 -0.01141,-0.196067 -0.01758,-0.302734 0.174096,-0.0044 0.306831,-0.0087 0.53125,-0.01367 0.831674,-0.01855 1.979891,-0.04157 3.242188,-0.0625 z"
     id="path36" /><g
     id="g36"
     transform="translate(-11.113056,145.85886)"><path
       style="fill:#000000;stroke:#000000;stroke-width:1.60315;stroke-dasharray:none"
       d="m 20.399577,37.333692 c 0.695112,0 0.712943,-0.07618 0.324372,-1.385826 -0.382088,-1.287822 -0.989375,-2.437333 -1.976518,-3.741303 -0.461123,-0.609149 -0.838403,-1.2493 -0.838403,-1.422559 0,-0.17332 0.917796,-2.036082 2.039547,-4.139656 1.12175,-2.103513 2.670754,-5.085892 3.442251,-6.627655 0.771485,-1.5417 1.482715,-2.776392 1.580495,-2.743848 0.09779,0.03267 0.873018,1.409984 1.722743,3.060781 0.84972,1.650857 2.428353,4.672191 3.508086,6.714191 1.079729,2.041938 1.963139,3.826361 1.963139,3.965288 0,0.138928 -0.389971,0.738584 -0.866608,1.332447 -1.049577,1.307792 -1.596066,2.352521 -1.954825,3.736991 -0.339115,1.308717 -0.344847,1.251149 0.124764,1.251149 z m 8.214651,-0.748877 c 0.208293,-1.519576 0.950199,-3.00075 2.760795,-5.511738 0.103696,-0.143797 -0.382679,-1.224707 -1.480024,-3.289019 -0.898948,-1.691167 -2.275551,-4.311497 -3.059092,-5.823058 -0.783565,-1.511499 -1.450103,-2.779659 -1.481229,-2.81812 -0.03113,-0.03821 -0.05362,2.406947 -0.05005,5.434197 0.0065,5.236839 0.02281,5.518885 0.34187,5.807711 0.374772,0.339121 0.44439,1.103038 0.129257,1.418182 -0.451323,0.45136 -1.855045,0.02527 -1.855045,-0.563353 0,-0.129065 0.194597,-0.466029 0.432425,-0.748692 l 0.432445,-0.513859 -0.01079,-5.531643 c -0.0055,-3.042413 -0.04524,-5.497312 -0.08724,-5.455338 -0.07233,0.0723 -1.409375,2.609605 -4.650656,8.825408 -0.792355,1.51945 -1.440649,2.87353 -1.440649,3.008945 0,0.135414 0.320076,0.631337 0.711267,1.101927 0.855477,1.029136 1.714966,2.760491 2.128167,4.28697 l 0.303267,1.120357 h 3.386398 3.386409 z m -3.319423,-5.533002 c 0,-0.159946 -0.116868,-0.24753 -0.286361,-0.214678 -0.43091,0.08352 -0.490074,0.484951 -0.07149,0.484951 0.210993,0 0.357847,-0.110944 0.357847,-0.270273 z M 3.6527823,27.969768 c 0,-1.196046 0.073242,-2.169093 0.1676683,-2.227463 0.092214,-0.05671 0.5478144,-0.148666 1.0124325,-0.203707 L 5.677641,25.438563 5.7931777,24.12923 C 5.9532524,22.315037 6.6047999,19.476762 7.2371973,17.838725 9.1158801,12.972565 13.825805,8.631975 19.093566,6.9121468 L 20.571338,6.4296604 13.928885,6.4234968 7.2864197,6.4173332 7.089875,7.0129216 C 6.7932395,7.9116971 6.0202446,8.4785014 5.0910515,8.4785014 c -1.4111555,0 -2.2970863,-0.8150124 -2.2970863,-2.1131273 0,-2.0383016 2.8964098,-2.9298659 3.9971294,-1.2303773 l 0.3828087,0.591089 h 7.3287757 c 4.030832,0 7.451043,0.049309 7.600473,0.1064453 0.227554,0.087215 0.271692,-0.049925 0.271692,-0.845214 0,-0.9218893 0.01541,-0.9528305 0.532048,-1.0663023 0.292622,-0.064225 1.298059,-0.062006 2.234303,0.00616 1.581469,0.1131636 1.709252,0.1496521 1.800708,0.5139823 0.05412,0.2156643 0.07282,0.5701944 0.04154,0.7877694 -0.0424,0.2945583 0.04345,0.4199258 0.336089,0.4909305 0.216145,0.052391 3.282975,0.056705 6.815178,0.00925 l 6.422178,-0.085921 0.570595,-0.6562998 c 1.356583,-1.5604379 3.782544,-0.6689352 3.782544,1.3900144 0,1.1646114 -1.34886,2.246446 -2.525669,2.0256659 C 41.661703,8.2670284 40.771531,7.4085626 40.632438,6.713001 L 40.528809,6.194889 38.622902,6.3047243 c -1.048256,0.060403 -3.760935,0.1172316 -6.028189,0.1262921 l -4.122291,0.016642 0.963445,0.3030641 c 1.475074,0.4639956 4.51504,1.9695772 6.081857,3.012088 1.970866,1.3113665 4.072394,3.6214215 5.627888,6.1863405 1.309358,2.159046 2.234779,4.968722 2.602364,7.900992 l 0.193765,1.545891 0.767552,0.08592 0.767572,0.08586 0.04814,2.189988 0.04808,2.189926 h -2.243179 -2.243161 l 0.04808,-2.189926 0.04801,-2.189988 H 42.2134 43.243972 L 43.189239,24.53726 C 43.11715,23.179173 42.441934,20.344474 41.784408,18.639499 40.64053,15.673268 37.576927,11.87415 34.916299,10.122394 33.324285,9.0742747 30.618928,7.7962529 28.727041,7.1985691 c -1.555698,-0.4914236 -1.909618,-0.4787266 -1.767862,0.0633 0.05054,0.1932285 0.04197,0.5501624 -0.01904,0.7932547 -0.0825,0.328643 -0.190757,0.4165358 -0.422558,0.3429425 -0.321364,-0.1019459 -3.103242,-0.14392 -3.713315,-0.056089 -0.296721,0.042529 -0.350696,-0.062437 -0.396122,-0.7722371 l -0.05257,-0.8219154 -0.63445,0.1142731 C 20.584793,7.0667298 17.650268,8.0868665 16.434541,8.6998978 12.478394,10.694869 9.1984107,14.39463 7.6266873,18.635062 7.0368804,20.226317 6.457003,22.952045 6.3710208,24.537137 l -0.055904,1.030554 h 0.7729335 0.7729274 v 2.232948 2.232947 l -2.1040853,0.0302 -2.1040856,0.0302 z m 3.6381554,-0.169253 0.054733,-1.63212 H 5.7568679 4.1680713 v 1.63175 1.631751 h 1.53407 1.5340759 z M 43.866582,29.260918 H 44.87568 V 27.71817 26.175421 l -1.546582,0.03945 c -0.850595,0.02219 -1.546231,0.09782 -1.545855,0.168636 v 1.610302 1.481482 l 0.536775,-0.10737 c 0.295206,-0.05917 0.990841,-0.107308 1.545855,-0.107308 z M 5.5963925,7.7705507 C 6.6663002,7.2234084 6.8641394,6.1662283 6.049158,5.3512775 5.5853288,4.8874668 5.4434182,4.8387127 4.80564,4.9242635 3.9222733,5.0427278 3.4789997,5.5361854 3.4864823,6.3926172 3.4969604,7.5896491 4.5742955,8.2932853 5.5963925,7.7705507 Z M 43.783996,7.3834768 c 0.622018,-0.535 0.65103,-1.4554099 0.06553,-2.0786729 -0.889234,-0.9465436 -2.587737,-0.3033722 -2.575385,0.9750811 0.0127,1.319934 1.498728,1.973337 2.509855,1.1035918 z M 26.282916,6.1786787 c 0.05079,-1.6815525 0.09418,-1.6452489 -1.975748,-1.649132 l -1.245281,-0.00616 v 1.5458918 1.5458299 h 1.588803 1.588803 z"
       id="path30"
       sodipodi:nodetypes="cssssssssssscccsssscssssccssssscccccsssccssscccssssccssscsssccssssccccsssscccccccccccssssssssscsssscccccccscccscccccccsssccccscssscsssccsccccccsccc" /><rect
       style="opacity:1;fill:none;fill-opacity:1;fill-rule:evenodd;stroke:#008000;stroke-width:1.91096;stroke-linecap:square;stroke-linejoin:round;stroke-miterlimit:3.8;stroke-dasharray:none;stroke-dashoffset:13.6845;stroke-opacity:1;paint-order:normal"
       id="rect36"
       width="10.116834"
       height="2.6936579"
       x="19.749071"
       y="37.452602"
       ry="0"
       rx="0" /></g><g
     id="g40"
     transform="translate(-145.51158,-157.66648)"><path
       style="fill:#000000;stroke:#000000;stroke-width:0.558;stroke-dasharray:none"
       d="m 148.21014,198.15168 c -0.97418,-0.52941 -0.93073,0.30173 -0.93073,-17.80246 0,-18.16903 -0.0477,-17.28729 0.96297,-17.80991 0.67116,-0.34708 41.39595,-0.34708 42.06712,0 1.01064,0.52262 0.96296,-0.35912 0.96296,17.80991 0,18.16904 0.0477,17.2873 -0.96296,17.80992 -0.66215,0.34241 -41.46886,0.33518 -42.09936,-0.008 z m 41.63252,-1.33422 c 0.0914,-0.17082 0.16381,-1.32501 0.16381,-2.61168 v -2.3056 l -20.69097,0.0402 -20.69098,0.0402 -0.0439,2.2573 c -0.0268,1.37794 0.0216,2.37971 0.12425,2.57154 0.16644,0.31098 0.37903,0.31423 20.57109,0.31423 20.0098,0 20.40606,-0.006 20.56672,-0.30609 z m -35.86098,-1.38594 c -0.2572,-0.0503 -0.3566,-0.20851 -0.409,-0.651 -0.12069,-1.01931 -0.0176,-1.16028 0.80885,-1.1067 l 0.73117,0.0474 0.0493,0.68425 c 0.0722,1.00419 -0.17829,1.222 -1.18026,1.02605 z m 4.79023,-0.094 c -0.20962,-0.15327 -0.26594,-0.37802 -0.22806,-0.90993 l 0.0503,-0.70638 0.75168,-0.0482 0.75168,-0.0482 v 0.86211 c 0,0.64015 -0.0644,0.88684 -0.25031,0.95816 -0.39414,0.15125 -0.77329,0.11335 -1.0753,-0.10749 z m 5.03291,0.0824 c -0.28317,-0.19389 -0.39599,-0.68305 -0.28904,-1.25313 0.0998,-0.53188 0.11311,-0.53976 0.83399,-0.49306 l 0.73258,0.0474 0.0503,0.70637 c 0.0379,0.53191 -0.0184,0.75666 -0.22805,0.90993 -0.30629,0.22397 -0.8352,0.26362 -1.09979,0.0824 z m 4.84783,-0.10456 c -0.10302,-0.12413 -0.16514,-0.53359 -0.13807,-0.90993 l 0.0492,-0.68425 0.75169,-0.0482 0.75168,-0.0482 v 0.86211 c 0,0.64014 -0.0644,0.88683 -0.25032,0.95816 -0.43077,0.1653 -0.9692,0.10535 -1.16421,-0.12963 z m 5.21249,0.11033 c -0.34399,-0.13095 -0.4699,-0.37566 -0.4699,-0.91327 0,-0.73933 0.17991,-0.89691 0.96033,-0.84107 l 0.69643,0.0498 0.0503,0.70638 c 0.0664,0.93246 -0.40678,1.31423 -1.23718,0.99813 z m 4.77735,-0.0211 c -0.13732,-0.0871 -0.19082,-0.3939 -0.15825,-0.9075 l 0.0492,-0.77594 h 0.71212 0.71212 l 0.0492,0.77594 c 0.0534,0.843 -0.0902,1.03907 -0.76134,1.03907 -0.21759,0 -0.48899,-0.0592 -0.6031,-0.13157 z m 4.97442,-0.0671 c -0.20961,-0.15328 -0.26594,-0.37802 -0.22806,-0.90993 l 0.0503,-0.70638 0.69644,-0.0499 c 0.80451,-0.0576 0.95921,0.0958 0.96275,0.95419 0.002,0.42088 -0.0845,0.6344 -0.30367,0.75168 -0.41246,0.22074 -0.84134,0.20627 -1.17777,-0.0397 z m -30.95706,-14.99303 v -10.29088 l -2.01767,0.0443 -2.01766,0.0443 -0.041,10.04878 c -0.0226,5.52683 -0.007,10.13779 0.0346,10.24659 0.0549,0.1437 0.61805,0.1978 2.05868,0.1978 h 1.98307 z m 31.88706,0.005 v -10.20698 l -15.18202,-0.0404 c -12.04101,-0.032 -15.2081,5.3e-4 -15.30811,0.15824 -0.1458,0.22966 -0.17934,19.74851 -0.0346,20.12576 0.0872,0.22728 1.53946,0.24728 15.31053,0.21075 l 15.21417,-0.0403 z m 5.38044,0 v -10.20698 l -2.01767,-0.0443 -2.01766,-0.0443 v 10.2956 10.2956 l 2.01766,-0.0443 2.01767,-0.0443 z m 0.0791,-13.85714 c 0,-1.28627 -0.0724,-2.44028 -0.16382,-2.6111 -0.16065,-0.30015 -0.55692,-0.30605 -20.56672,-0.30605 -20.00979,0 -20.40606,0.006 -20.56672,0.30609 -0.17833,0.3332 -0.23052,4.63841 -0.0583,4.8106 0.058,0.058 9.38677,0.10551 20.73054,0.10551 h 20.62504 z m -36.48347,0.19627 c -0.0531,-0.21172 -0.0733,-0.5894 -0.0447,-0.83926 0.0495,-0.43274 0.0895,-0.4543 0.84317,-0.4543 h 0.79124 v 0.79124 0.79124 l -0.74654,0.048 c -0.67712,0.0436 -0.75553,0.0122 -0.84316,-0.33694 z m 5.10499,0.26999 c -0.0621,-0.0621 -0.11295,-0.45713 -0.11295,-0.87781 v -0.76487 h 0.79951 0.79952 l -0.0478,0.8308 -0.0479,0.83081 -0.63874,0.047 c -0.3513,0.0259 -0.68956,-0.004 -0.75168,-0.0659 z m 4.85637,-0.12267 c -0.0466,-0.12141 -0.0622,-0.49527 -0.0346,-0.83081 l 0.0501,-0.61007 h 0.79124 c 0.7537,0 0.79371,0.0216 0.84317,0.4543 0.0286,0.24986 0.009,0.62373 -0.0426,0.83081 -0.0821,0.32691 -0.18854,0.37649 -0.80857,0.37649 -0.46482,0 -0.74363,-0.077 -0.79877,-0.22072 z m 5.00033,-0.64097 v -0.87904 h 0.79952 0.7995 l -0.0479,0.8308 -0.0478,0.83081 -0.75168,0.0482 -0.75168,0.0482 z m 4.96932,0.64097 c -0.0466,-0.12141 -0.0622,-0.49527 -0.0346,-0.83081 0.0492,-0.59912 0.0626,-0.61097 0.74654,-0.6599 0.76635,-0.0548 0.95882,0.10282 0.96275,0.78856 0.004,0.77452 -0.1386,0.92287 -0.88984,0.92287 -0.45291,0 -0.73006,-0.0779 -0.78485,-0.22072 z m 5.00033,-0.64964 v -0.88771 l 0.75168,0.0482 0.75168,0.0482 v 0.79124 0.79124 l -0.75168,0.0482 -0.75168,0.0482 z m 4.96932,0.64964 c -0.0466,-0.12141 -0.0622,-0.49527 -0.0346,-0.83081 0.0492,-0.59912 0.0626,-0.61097 0.74654,-0.6599 0.76634,-0.0548 0.95881,0.10282 0.96274,0.78856 0.004,0.77452 -0.13859,0.92287 -0.88984,0.92287 -0.45291,0 -0.73006,-0.0779 -0.78485,-0.22072 z"
       id="path37-1"
       sodipodi:nodetypes="cscsssccsscccccsssccccccccccccsccccscccscccccccsccccsccccccccccsscccccccsccccccccsccccccsccccccccccccscsccscsccscccccccscccccccccccsscscccccccccccccscscccccccccccccscscc" /><path
       style="fill:#008000;fill-opacity:1;stroke:#008000;stroke-width:0.358;stroke-dasharray:none;stroke-opacity:1"
       d="m 171.38185,187.36743 c -2.04723,-5.70144 -5.61189,-9.67352 -9.07316,-10.11018 -1.18536,-0.14954 -1.45425,-0.30956 -1.39416,-0.82971 0.0448,-0.38776 0.11587,-0.42879 0.82029,-0.47358 1.53107,-0.0973 3.75075,0.8712 5.5819,2.4356 0.99054,0.84624 2.47505,2.77601 3.4926,4.54015 l 0.73483,1.27396 0.18745,-0.54143 c 0.31292,-0.90385 1.12558,-2.42099 1.69971,-3.17313 0.49958,-0.6545 0.54218,-0.79794 0.53668,-1.80727 -0.0121,-2.23282 1.42437,-3.70746 3.61167,-3.70746 2.10343,0 3.61378,1.48767 3.61489,3.56059 0.002,3.03335 -3.45247,4.76008 -5.8008,2.89987 -0.56618,-0.44849 -0.62126,-0.46184 -0.89259,-0.2163 -0.3714,0.33612 -1.16491,1.8379 -1.50859,2.85512 -0.14703,0.43519 -0.31447,1.39655 -0.37209,2.13636 l -0.10477,1.34511 -0.5154,0.0497 c -0.38316,0.0369 -0.54183,-0.024 -0.61846,-0.23737 z m 7.5495,-6.90445 c 0.63813,-0.44697 0.94075,-1.08111 0.94187,-1.9737 0.001,-0.75174 -0.0604,-0.90282 -0.60274,-1.48422 -0.51713,-0.55439 -0.71834,-0.6583 -1.40196,-0.72398 -2.98012,-0.28636 -3.72078,3.92108 -0.79921,4.53994 0.61185,0.12961 1.37545,-0.0172 1.86204,-0.35804 z"
       id="path38-4"
       sodipodi:nodetypes="ccsssssscssssssssscsssscssss" /><ellipse
       style="fill:#008000;fill-opacity:1;fill-rule:evenodd;stroke:none;stroke-width:2;stroke-linecap:square;stroke-linejoin:round;stroke-miterlimit:3.8;stroke-dasharray:none;stroke-dashoffset:13.6845;stroke-opacity:1;paint-order:normal"
       id="path40-3"
       cx="159.15923"
       cy="176.38812"
       rx="0.69361466"
       ry="0.42867744" /><ellipse
       style="fill:#008000;fill-opacity:1;fill-rule:evenodd;stroke:none;stroke-width:2;stroke-linecap:square;stroke-linejoin:round;stroke-miterlimit:3.8;stroke-dasharray:none;stroke-dashoffset:13.6845;stroke-opacity:1;paint-order:normal"
       id="ellipse40-7"
       cx="97.297569"
       cy="215.47569"
       rx="0.69361466"
       ry="0.42867744"
       transform="rotate(-17.178598)" /></g></svg>
