<?xml version="1.0" encoding="UTF-8" standalone="no"?>
<svg
   width="13"
   height="11"
   viewBox="0 0 13 11"
   fill="none"
   version="1.1"
   id="svg1"
   xml:space="preserve"
   xmlns="http://www.w3.org/2000/svg"
   xmlns:svg="http://www.w3.org/2000/svg"><defs
     id="defs1" /><path
     style="fill:#ffffff;fill-opacity:1;stroke-width:0.0135467"
     d="M 5.1447974,10.079555 C 4.7043241,10.068688 4.2373912,10.050882 3.5801554,10.019839 3.356633,10.009277 3.0731681,9.9970713 2.9502342,9.9926883 2.8272951,9.9883052 2.6931858,9.9821263 2.652206,9.9789609 2.6112262,9.9757954 2.5258841,9.9695252 2.4625535,9.9650203 1.9784492,9.9306714 1.497464,9.8398239 1.230332,9.7322814 0.9139864,9.604927 0.63696423,9.3917899 0.48009584,9.1550636 0.36766501,8.9853885 0.27264241,8.7399388 0.20881178,8.4542991 0.1672299,8.2682212 0.08767423,7.6974409 0.0588001,7.3779879 -0.01419442,6.5704628 -0.01935726,5.472407 0.04403781,4.2351567 0.05472449,4.0265366 0.07010467,3.7217359 0.07820902,3.5578197 0.11957053,2.7216286 0.23891225,2.2299773 0.49334691,1.8475883 0.84067474,1.3255896 1.4270615,1.0841859 2.4760952,1.0313278 c 3.2469042,-0.16360211 4.799838,-0.16360211 8.0467368,0 1.273546,0.06417 1.880449,0.4036121 2.186411,1.2228597 0.123961,0.3319294 0.189082,0.7502015 0.217714,1.3984609 0.0043,0.096859 0.01679,0.3528922 0.0278,0.5689604 0.07376,1.4471427 0.05714,2.6412418 -0.04845,3.4814996 -0.10665,0.8486066 -0.19069,1.1564507 -0.402091,1.4728202 -0.16073,0.2405463 -0.489644,0.4755163 -0.8282,0.5916484 -0.257011,0.08816 -0.71309,0.1671792 -1.139635,0.1974433 -0.06334,0.00451 -0.148673,0.010775 -0.189653,0.01394 -0.04098,0.00316 -0.175095,0.00934 -0.298029,0.013727 -0.1229333,0.00439 -0.4094475,0.01668 -0.6366915,0.027333 C 8.7232379,10.05231 8.3329783,10.06678 7.7796278,10.08055 7.1826568,10.0954 5.76608,10.09486 5.1447957,10.079637 Z M 6.8632583,6.4635868 C 7.765319,5.938314 8.5036002,5.5048079 8.5038744,5.5002393 8.5044222,5.4923863 5.2058582,3.5645952 5.191967,3.5645952 c -0.00361,0 -0.00653,0.8720318 -0.00653,1.9378477 0,1.6517849 0.0028,1.9362531 0.018856,1.9270183 0.01037,-0.00597 0.7569047,-0.4406016 1.6589653,-0.9658744 z"
     id="path2" /></svg>
