<?xml version="1.0" encoding="UTF-8" standalone="no"?>
<!-- Created with Inkscape (http://www.inkscape.org/) -->

<svg
   width="45.534702mm"
   height="27.519629mm"
   viewBox="0 0 45.534702 27.519628"
   version="1.1"
   id="svg1"
   xml:space="preserve"
   xmlns="http://www.w3.org/2000/svg"
   xmlns:svg="http://www.w3.org/2000/svg"><defs
     id="defs1"><rect
       x="30.320267"
       y="100.16517"
       width="156.47424"
       height="19.4916"
       id="rect1" /></defs><g
     id="layer1"
     transform="translate(0,-6.8762035)"><text
       xml:space="preserve"
       transform="matrix(0.26458333,0,0,0.26458333,2.9473726,2.8829915)"
       id="text1"
       style="font-style:normal;font-variant:normal;font-weight:bold;font-stretch:normal;font-size:16px;line-height:1.35;font-family:Arial;-inkscape-font-specification:'Arial, Bold';font-variant-ligatures:none;font-variant-caps:normal;font-variant-numeric:normal;font-variant-east-asian:normal;text-align:start;white-space:pre;shape-inside:url(#rect1)"
       x="59.453125"
       y="0"><tspan
         x="30.320312"
         y="115.37809"
         id="tspan2">Google Ads</tspan></text><path
       style="fill:#000000;stroke-width:0.270823"
       d="m 16.148488,24.891188 c -0.142617,-0.02126 -0.437662,-0.257744 -0.959995,-0.769426 -0.711936,-0.697446 -0.751552,-0.75148 -0.708503,-0.966699 0.03335,-0.16692 0.367236,-0.563363 1.246618,-1.480312 0.660556,-0.688787 1.201018,-1.288258 1.201018,-1.332162 0,-0.04392 -0.448382,-0.346876 -0.996405,-0.673288 -0.548023,-0.326395 -1.023139,-0.635599 -1.055811,-0.687115 -0.196498,-0.309829 0.08832,-0.538009 1.231413,-0.986556 1.689623,-0.662974 5.089356,-2.008191 6.007296,-2.376963 0.913369,-0.366952 1.255422,-0.415618 1.391576,-0.19801 0.069,0.110257 -0.125106,0.872383 -1.375955,5.402542 -0.152346,0.551743 -0.414217,1.519086 -0.581933,2.149647 -0.167715,0.630561 -0.349571,1.219038 -0.404126,1.307711 -0.09909,0.161073 -0.405128,0.218711 -0.564832,0.106377 -0.04114,-0.02898 -0.379737,-0.49587 -0.75238,-1.037612 -0.372641,-0.541723 -0.696261,-0.985103 -0.719149,-0.98525 -0.02286,-1.66e-4 -0.554929,0.544426 -1.182307,1.210158 -0.627864,0.666284 -1.234089,1.246138 -1.348438,1.289821 -0.114259,0.04363 -0.210993,0.0745 -0.214968,0.06858 -0.0042,-0.0063 -0.09987,-0.02453 -0.213119,-0.04142 z m 1.571516,-2.208352 c 1.003424,-1.044377 1.382939,-1.395242 1.491909,-1.379357 0.0966,0.01415 0.364067,0.342941 0.788833,0.969898 0.35347,0.52172 0.652441,0.938828 0.664378,0.926895 0.02154,-0.02162 0.539337,-1.891204 1.42951,-5.161914 0.255973,-0.940501 0.455667,-1.71888 0.443749,-1.729745 -0.03579,-0.03258 -6.43479,2.491871 -6.43479,2.538588 0,0.02375 0.427245,0.300692 0.949432,0.615466 0.780861,0.470702 0.952372,0.604124 0.966012,0.751445 0.0134,0.14517 -0.241171,0.444226 -1.342032,1.57643 l -1.35861,1.397266 0.456402,0.447847 c 0.251017,0.246308 0.48859,0.447848 0.527925,0.447848 0.03933,0 0.677119,-0.630303 1.417282,-1.400667 z m 6.624889,-4.44246 c -0.700049,-0.195859 -0.865915,-0.406684 -0.589,-0.748668 l 0.128503,-0.158703 0.488111,0.150778 c 2.15877,0.666762 4.192886,-1.05789 3.849449,-3.263852 -0.152177,-0.977455 -0.746236,-1.773355 -1.639459,-2.196474 -0.443124,-0.209924 -0.542179,-0.228787 -1.199562,-0.228622 -0.653817,1.47e-4 -0.757326,0.01965 -1.182306,0.222867 -0.964442,0.461122 -1.580757,1.297084 -1.686878,2.288034 -0.0476,0.444777 -0.06497,0.480223 -0.286054,0.585664 -0.411917,0.196428 -0.482497,0.106303 -0.447572,-0.571471 0.126135,-2.448004 2.825207,-4.031127 5.107978,-2.99607 0.3174,0.14392 0.635856,0.371144 0.963637,0.687592 0.783946,0.756849 1.150466,1.60046 1.148931,2.644488 -0.0015,1.090782 -0.333646,1.891039 -1.104314,2.661513 -0.414912,0.414809 -0.611264,0.550401 -1.080319,0.74602 -0.502521,0.209592 -0.666055,0.242042 -1.325619,0.262983 -0.52286,0.01655 -0.872315,-0.0097 -1.145526,-0.08608 z m 5.205704,-1.183021 c -0.424972,-0.304314 -0.47916,-0.432625 -0.294218,-0.696657 0.16101,-0.22989 0.302898,-0.199462 0.766228,0.164273 0.427983,0.335992 0.500867,0.508887 0.299416,0.710353 -0.173629,0.173631 -0.331193,0.137265 -0.771426,-0.177969 z M 25.22171,16.870523 c -0.04927,-0.01987 -0.08956,-0.129745 -0.08956,-0.244175 0,-0.172289 -0.04572,-0.227114 -0.266091,-0.319206 -0.637021,-0.266164 -0.958431,-0.943884 -0.503994,-1.062726 0.243144,-0.06358 0.457757,0.0196 0.545069,0.21121 0.159341,0.349707 0.704891,0.409239 0.872932,0.09525 0.127622,-0.238457 -0.07962,-0.472539 -0.535784,-0.605133 -0.587971,-0.170929 -0.92794,-0.464487 -1.004329,-0.867217 -0.07802,-0.411279 0.210486,-0.884701 0.654451,-1.073905 0.161947,-0.06902 0.234611,-0.152506 0.250796,-0.288079 0.04809,-0.403079 0.498657,-0.405616 0.54684,-0.0028 0.01598,0.133147 0.106601,0.235075 0.311555,0.350277 0.49107,0.275982 0.666401,0.852858 0.301396,0.991648 -0.260586,0.09908 -0.410532,0.0344 -0.505884,-0.218234 -0.04461,-0.118235 -0.132416,-0.234651 -0.19508,-0.258699 -0.178514,-0.0685 -0.459967,0.03057 -0.546563,0.192366 -0.130158,0.243201 0.07935,0.472502 0.558771,0.611532 0.280676,0.08141 0.497075,0.204683 0.680306,0.387562 0.230429,0.229982 0.268703,0.3138 0.268703,0.588458 0,0.397013 -0.217649,0.740689 -0.591154,0.933423 -0.187171,0.09658 -0.268701,0.186537 -0.268701,0.296445 0,0.267267 -0.212931,0.391533 -0.483677,0.282287 z m -4.995631,-3.655716 c -0.471647,-0.05657 -0.898892,-0.13721 -0.949431,-0.179147 -0.160747,-0.133404 -0.112557,-0.482283 0.07865,-0.569411 0.1951,-0.08889 1.875705,0.108528 2.032649,0.238788 0.142034,0.117868 0.104692,0.396663 -0.06949,0.518649 -0.08759,0.06135 -0.176263,0.107591 -0.197053,0.102756 -0.02078,-0.0048 -0.423688,-0.0551 -0.895343,-0.111635 z m 9.1047,-0.153022 c -0.125405,-0.242502 -0.0918,-0.41981 0.08938,-0.471601 0.333485,-0.09533 1.241823,-0.198892 1.398794,-0.159493 0.197617,0.0496 0.294838,0.253754 0.225253,0.473017 -0.05309,0.167159 -0.358752,0.259564 -1.086943,0.328527 l -0.513194,0.04865 z M 22.112431,10.555574 C 21.36456,9.747061 21.047802,9.3410765 21.047802,9.1910704 c 0,-0.1855993 0.303578,-0.3986483 0.48016,-0.3369656 0.196434,0.068577 1.415661,1.5209432 1.440704,1.7161402 0.02182,0.170174 -0.201542,0.400358 -0.388506,0.400358 -0.04607,0 -0.256578,-0.186758 -0.467729,-0.415029 z m 5.328621,0.303485 c -0.08759,-0.06135 -0.159252,-0.173593 -0.159252,-0.249414 0,-0.150024 1.202834,-1.5938046 1.42837,-1.7145042 0.188319,-0.1007883 0.261671,-0.093636 0.393718,0.038425 0.212646,0.2126445 0.124592,0.4130075 -0.50216,1.1424272 -0.834375,0.971093 -0.863858,0.990986 -1.160676,0.783085 z M 24.933119,9.9275493 C 24.779927,9.8202532 24.773868,9.772727 24.773868,8.6786906 c 0,-1.2246639 0.03891,-1.3624986 0.384893,-1.3624986 0.306183,0 0.331658,0.1054766 0.331658,1.373254 0,1.1143518 -0.01,1.2066649 -0.1386,1.2754627 -0.183866,0.098416 -0.230839,0.094224 -0.4187,-0.037377 z"
       id="path2-9" /></g></svg>
