<?xml version="1.0" encoding="UTF-8" standalone="no"?>
<!-- Created with Inkscape (http://www.inkscape.org/) -->

<svg
   width="45.534702mm"
   height="27.519629mm"
   viewBox="0 0 45.534702 27.519628"
   version="1.1"
   id="svg1"
   xml:space="preserve"
   xmlns="http://www.w3.org/2000/svg"
   xmlns:svg="http://www.w3.org/2000/svg"><defs
     id="defs1"><rect
       x="30.320267"
       y="100.16517"
       width="156.47424"
       height="19.4916"
       id="rect1" /></defs><g
     id="layer1"
     transform="translate(0,-6.8762035)"><text
       xml:space="preserve"
       transform="matrix(0.26458333,0,0,0.26458333,1.9779227,2.8829915)"
       id="text1"
       style="font-style:normal;font-variant:normal;font-weight:bold;font-stretch:normal;font-size:16px;line-height:1.35;font-family:Arial;-inkscape-font-specification:'Arial, Bold';font-variant-ligatures:none;font-variant-caps:normal;font-variant-numeric:normal;font-variant-east-asian:normal;text-align:start;white-space:pre;shape-inside:url(#rect1)"
       x="59.453125"
       y="0"><tspan
         x="30.320312"
         y="115.37809"
         id="tspan2">Web Hosting</tspan></text><g
       id="g1"
       transform="matrix(0.20036476,0,0,0.20036476,-4.5354359,-269.98386)"><path
         style="fill:#000000;stroke:#000000;stroke-width:1.796;stroke-dasharray:none"
         d="m 103.88528,1479.9019 c -2.43269,-0.079 -3.36384,-0.1795 -3.86256,-0.4187 -0.92387,-0.4433 -2.176343,-1.7096 -2.71037,-2.7402 -0.432618,-0.8349 -0.453304,-1.1644 -0.465863,-7.4222 l -0.01317,-6.5485 0.565406,-0.8421 c 0.801383,-1.1934 1.9486,-2.2019 2.952127,-2.5952 0.82189,-0.3222 2.50424,-0.335 36.23107,-0.2758 l 35.36917,0.062 0.81706,0.4516 c 1.029,0.5687 1.89708,1.4624 2.47157,2.5445 0.42673,0.8037 0.44702,1.1391 0.44702,7.3906 0,6.2512 -0.0203,6.5868 -0.44702,7.3904 -0.61228,1.1533 -1.44356,1.9705 -2.62065,2.5764 l -0.99252,0.5108 -32.26795,0.01 c -17.74735,0.01 -33.71036,-0.036 -35.47335,-0.094 z m 68.60048,-0.8872 c 1.07462,-0.635 1.27914,-0.853 1.98496,-2.1163 l 0.57497,-1.029 0.0514,-6.144 c 0.0584,-6.9983 0.0178,-7.2041 -1.71989,-8.6936 -1.8386,-1.5759 1.65419,-1.4335 -36.66223,-1.4957 -24.54886,-0.04 -34.37901,0.01 -35.2107,0.1544 -1.547408,0.2813 -2.808185,1.14 -3.565476,2.4281 l -0.604183,1.0278 0.08044,6.3615 c 0.07535,5.9599 0.108402,6.4146 0.52386,7.2033 0.518011,0.9836 1.547876,1.9411 2.621629,2.4376 0.73508,0.3399 1.93537,0.352 35.91771,0.36 l 35.15723,0.01 z m -16.45892,-7.6809 c -0.48431,-0.097 -1.32834,-0.7281 -1.63033,-1.2186 -0.30325,-0.4925 0.15797,-1.739 0.80952,-2.1877 1.07802,-0.7424 2.62751,-0.3785 3.29961,0.775 0.49521,0.8498 0.38061,1.4249 -0.41257,2.0705 -0.60748,0.4943 -1.36849,0.7009 -2.06623,0.5608 z m 1.38902,-1.1711 c 0.23507,-0.2057 0.42739,-0.4944 0.42739,-0.6414 0,-0.7313 -1.57741,-1.1651 -2.12719,-0.5851 -0.39003,0.4115 -0.17984,1.0957 0.41763,1.3593 0.70748,0.3124 0.78264,0.3046 1.28217,-0.1328 z m 7.77386,1.0409 c -1.29911,-0.495 -1.72619,-1.661 -1.00175,-2.7347 1.02731,-1.5228 3.71922,-0.9916 4.05115,0.7994 0.1498,0.8082 -0.17083,1.3643 -1.06035,1.8393 -0.79681,0.4253 -1.08789,0.4394 -1.98905,0.096 z m 1.66531,-0.9763 c 0.44642,-0.3537 0.512,-1.0062 0.13436,-1.3368 -0.57301,-0.5018 -2.09421,-0.033 -2.09421,0.6463 0,0.3533 0.78383,1.0001 1.21192,1.0001 0.19642,0 0.533,-0.1393 0.74793,-0.3096 z m -63.11252,-13.723 c -3.06619,-0.091 -3.15453,-0.106 -4.053476,-0.6597 -0.505437,-0.3113 -1.233701,-0.9273 -1.618366,-1.3689 -1.26177,-1.4483 -1.346097,-2.033 -1.288761,-8.9351 0.03489,-4.1982 0.127982,-6.2771 0.289096,-6.455 0.130713,-0.1444 0.297625,-0.4828 0.370928,-0.7522 0.177057,-0.6506 1.280506,-1.5809 2.596839,-2.1896 1.28149,-0.5924 -2.868287,-0.5551 40.67733,-0.3648 l 31.06106,0.136 0.99318,0.5326 c 1.12411,0.6028 2.49101,2.1815 2.82282,3.2605 0.13878,0.4512 0.19779,3.0462 0.15769,6.9344 l -0.0641,6.2133 -0.63391,1.0019 c -0.66934,1.0582 -1.65797,1.8851 -2.84183,2.377 -0.64125,0.2663 -4.01786,0.3001 -33.02415,0.3299 -17.77044,0.018 -33.7204,-0.01 -35.44438,-0.061 z m 69.02808,-1.4231 c 2.34527,-1.8582 2.2786,-1.5977 2.25345,-8.8036 -0.0211,-6.0364 -0.0345,-6.2259 -0.49946,-7.0164 -0.63674,-1.0825 -1.59772,-1.9358 -2.68296,-2.3825 -0.8705,-0.3582 -1.65054,-0.3674 -35.49168,-0.4194 -27.21361,-0.042 -34.79612,-0.01 -35.51261,0.181 -1.121901,0.2883 -2.274439,1.1503 -2.89467,2.1651 -0.443497,0.7256 -0.471709,1.0351 -0.534166,5.8593 -0.110608,8.5428 0.343775,10.0888 3.218796,10.9518 0.85908,0.2577 16.44828,0.412 47.93342,0.4743 l 22.87856,0.045 z m -16.95744,-6.9879 c -0.5878,-0.2129 -1.30451,-0.9458 -1.45517,-1.4881 -0.28167,-1.0139 0.85022,-2.2625 2.051,-2.2625 2.32894,0 3.15745,2.4945 1.17924,3.5504 -0.75819,0.4049 -1.10276,0.4437 -1.77507,0.2002 z m 1.60271,-1.1312 c 0.51435,-0.4503 0.53438,-0.7186 0.0947,-1.2681 -0.39392,-0.4925 -1.08302,-0.5373 -1.6272,-0.1062 -0.53132,0.421 -0.49188,1.1039 0.0842,1.4572 0.62769,0.3849 0.93397,0.3674 1.44831,-0.083 z m 8.22725,1.1763 c -0.64282,-0.1355 -1.56515,-0.9749 -1.71128,-1.5574 -0.16106,-0.6421 0.35255,-1.765 0.93122,-2.0361 0.23727,-0.1112 0.81223,-0.2022 1.27766,-0.2022 2.36653,0 2.97937,2.724 0.81512,3.6232 -0.40493,0.1682 -0.76978,0.2961 -0.81078,0.2842 -0.041,-0.012 -0.26687,-0.062 -0.50194,-0.1117 z m 1.34628,-1.2137 c 0.78696,-0.6891 -0.31777,-1.9037 -1.35504,-1.49 -0.97049,0.3872 -0.48866,1.7145 0.62237,1.7145 0.26194,0 0.59164,-0.1011 0.73267,-0.2245 z m -34.36214,-13.4339 -31.52,-0.094 -0.99932,-0.5143 c -1.141181,-0.5873 -2.094299,-1.5274 -2.792262,-2.7541 -0.474131,-0.8334 -0.482321,-0.9636 -0.482321,-7.677 v -6.8292 l 0.716109,-0.9031 c 0.646448,-0.8153 2.264439,-1.9113 3.322764,-2.2507 0.22332,-0.072 16.11449,-0.1294 35.31369,-0.1283 l 34.90764,0.01 1.0545,0.4678 c 1.23241,0.5469 2.4323,1.5697 3.07969,2.6252 0.44525,0.7259 0.45904,0.9506 0.45904,7.484 v 6.7357 l -0.63491,1.0037 c -0.69725,1.1021 -1.9451,2.1 -3.20067,2.5593 -1.056,0.3863 -1.01135,0.386 -39.22395,0.2726 z m 38.9223,-0.9642 c 1.32041,-0.525 2.47476,-1.5874 2.96085,-2.7247 0.42267,-0.9892 0.44158,-1.3463 0.3831,-7.2358 -0.0551,-5.5554 -0.10179,-6.2661 -0.4516,-6.8817 -0.5194,-0.914 -1.98494,-2.1631 -2.80005,-2.3865 -0.41122,-0.1127 -13.79831,-0.1665 -35.84409,-0.1439 l -35.18774,0.036 -0.921657,0.5671 c -0.506905,0.312 -1.21241,0.9789 -1.567791,1.4823 l -0.64614,0.9152 v 6.6566 c 0,6.1473 0.03085,6.711 0.403131,7.3673 0.796052,1.403 2.136967,2.1797 4.405007,2.5519 0.5289,0.087 16.15533,0.1459 34.72543,0.1315 30.90405,-0.024 33.82966,-0.052 34.54155,-0.3355 z m -16.05694,-7.8807 c -0.29383,-0.1278 -0.7133,-0.5528 -0.93215,-0.9443 -0.35639,-0.6375 -0.36696,-0.783 -0.10129,-1.3941 0.61774,-1.4212 2.56188,-1.727 3.84362,-0.6048 0.89283,0.7817 0.78934,1.7037 -0.3098,2.7603 -0.49823,0.479 -1.63021,0.5617 -2.50038,0.1829 z m 1.5809,-0.9098 c 0.65282,-0.2604 0.83847,-0.6353 0.54911,-1.1086 -0.26715,-0.4372 -1.21695,-0.6733 -1.68227,-0.4184 -0.55285,0.3029 -0.54458,1.0976 0.015,1.4408 0.57968,0.3554 0.46544,0.3466 1.11816,0.086 z m 7.80267,0.7212 c -1.23955,-0.7314 -1.36643,-1.9322 -0.30257,-2.8637 0.80968,-0.7088 2.08273,-0.6309 3.01413,0.1845 0.80767,0.7072 0.91833,1.3031 0.4038,2.1742 -0.60323,1.0214 -1.88741,1.2295 -3.11536,0.505 z m 2.12851,-0.9885 c 0.4708,-0.524 0.40502,-0.9271 -0.19735,-1.2094 -0.8747,-0.4099 -1.91216,0 -1.91216,0.7537 0,0.9349 1.40611,1.2387 2.10951,0.4557 z m -56.34742,-13.3191 c -0.5822,-1.3316 -0.65715,-5.4283 -0.13702,-7.4891 1.39734,-5.5364 3.32664,-8.7763 7.38358,-12.3992 2.55326,-2.2801 4.53073,-3.4728 8.35246,-5.0381 3.27206,-1.34 4.72651,-1.5699 10.00377,-1.5811 4.57429,-0.01 4.60522,-0.01 7.04961,0.6074 4.77347,1.2001 8.18753,2.8839 11.23312,5.5404 5.68958,4.9626 8.36994,10.8068 7.92396,17.2774 -0.13055,1.894 -0.48509,3.5968 -0.74894,3.5969 -0.0742,10e-5 -0.13802,-1.8312 -0.14183,-4.0694 -0.006,-3.8103 -0.043,-4.1853 -0.5733,-5.8867 -0.54858,-1.7601 -1.90155,-4.4296 -2.72967,-5.386 l -0.40478,-0.4673 -1.66781,0.7225 c -1.59543,0.6912 -4.29557,1.4995 -6.58827,1.9722 l -1.0723,0.2212 0.25463,1.9095 c 0.27432,2.0572 0.34749,8.6708 0.11117,10.0485 -0.31125,1.8144 -0.47176,0.5334 -0.55679,-4.4437 -0.0811,-4.75 -0.25766,-6.7766 -0.61766,-7.0918 -0.0745,-0.065 -1.1234,-0.016 -2.33079,0.1082 -3.4191,0.3534 -11.38619,0.4666 -14.80326,0.2105 -1.64545,-0.1234 -3.62918,-0.2707 -4.40829,-0.3275 l -1.41655,-0.1031 -0.2641,1.629 c -0.31591,1.9485 -0.39239,6.8496 -0.14245,9.1296 0.15258,1.3921 0.13206,1.6372 -0.13711,1.6372 -0.40609,0 -0.50969,-0.3884 -0.78468,-2.9416 -0.21635,-2.0088 -0.12755,-3.9336 0.38824,-8.4159 l 0.15506,-1.3475 -1.07581,-0.2201 c -2.07423,-0.4242 -4.49642,-1.1561 -6.2747,-1.8958 -2.09049,-0.8695 -1.94335,-0.9229 -3.20808,1.1624 -1.86419,3.0738 -2.50993,6.0795 -2.32145,10.8052 0.1182,2.9632 0.009,3.5758 -0.44996,2.5258 z m 33.68455,-12.5776 c 1.57671,-0.1914 2.96132,-0.4309 3.07692,-0.5321 0.13777,-0.1206 0.13314,-0.3999 -0.0134,-0.8107 -0.9255,-2.5939 -1.52494,-3.9374 -2.7238,-6.105 -1.14818,-2.0759 -1.59674,-2.6794 -2.72674,-3.6688 -0.84651,-0.7411 -1.88022,-1.4117 -2.76319,-1.7922 -1.29715,-0.5592 -1.54502,-0.6025 -3.07931,-0.5382 -3.52199,0.1478 -6.05429,2.0263 -8.41039,6.2387 -1.2432,2.2227 -2.69878,6.0417 -2.48695,6.5251 0.15792,0.3602 2.6393,0.859 4.91872,0.9884 1.07766,0.061 2.00744,0.1533 2.0662,0.2045 0.23419,0.204 9.4528,-0.183 12.14197,-0.5097 z m -20.04519,-1.1744 c 1.4981,-5.0983 4.63326,-10.0287 7.36898,-11.5885 l 0.64109,-0.3656 -0.96162,0.1288 c -2.89151,0.3873 -6.86116,1.8154 -9.65074,3.472 -1.70105,1.0102 -4.7831,3.6783 -5.81001,5.0298 -0.42904,0.5646 -0.78006,1.0869 -0.78006,1.1606 0,0.151 1.49189,0.7649 3.09858,1.275 2.89537,0.9195 5.36871,1.6565 5.60124,1.6691 0.14239,0.01 0.36403,-0.3439 0.49254,-0.7812 z m 26.40632,0.4299 c 1.23989,-0.3009 6.59475,-2.2753 6.90326,-2.5455 0.22684,-0.1986 -1.71624,-2.394 -3.38533,-3.8249 -2.15107,-1.844 -4.50309,-3.3224 -6.69328,-4.2069 -1.60191,-0.647 -4.41199,-1.4771 -5.71147,-1.6873 -0.41136,-0.067 -0.9098,-0.1606 -1.10765,-0.2091 -0.19785,-0.049 0.33512,0.526 1.18437,1.2768 2.82774,2.5001 4.68512,5.4221 5.68445,8.9428 0.59848,2.1084 0.84574,2.6195 1.26756,2.6195 0.19379,0 1.02992,-0.1645 1.85809,-0.3654 z"
         id="path716" /></g></g></svg>
