<?xml version="1.0" encoding="UTF-8" standalone="no"?>
<!-- Created with Inkscape (http://www.inkscape.org/) -->

<svg
   width="45.534702mm"
   height="27.519629mm"
   viewBox="0 0 45.534702 27.519628"
   version="1.1"
   id="svg1"
   xml:space="preserve"
   xmlns="http://www.w3.org/2000/svg"
   xmlns:svg="http://www.w3.org/2000/svg"><defs
     id="defs1"><rect
       x="30.320267"
       y="100.16517"
       width="156.47424"
       height="19.4916"
       id="rect1" /></defs><g
     id="layer1"
     transform="translate(0,-6.8762035)"><text
       xml:space="preserve"
       transform="matrix(0.26458333,0,0,0.26458333,-2.0766101,2.8829915)"
       id="text1"
       style="font-style:normal;font-variant:normal;font-weight:bold;font-stretch:normal;font-size:16px;line-height:1.35;font-family:Arial;-inkscape-font-specification:'Arial, Bold';font-variant-ligatures:none;font-variant-caps:normal;font-variant-numeric:normal;font-variant-east-asian:normal;text-align:start;white-space:pre;shape-inside:url(#rect1)"
       x="59.453125"
       y="0"><tspan
         x="30.320312"
         y="115.37809"
         id="tspan2">Media &amp; Content</tspan></text><path
       style="fill:#000000;stroke-width:0.366248"
       d="m 14.134931,26.765377 c -0.596797,-0.04369 -0.690037,-0.07969 -0.944802,-0.36492 l -0.282658,-0.316481 v -3.431085 -3.431084 l 0.249326,-0.296321 c 0.31954,-0.379754 0.805839,-0.508268 1.865516,-0.493053 0.462384,0.0068 1.167754,0.0076 1.567475,0.0022 l 0.726776,-0.0098 0.2806,-0.442543 c 0.482691,-0.761255 0.633732,-0.809352 2.543771,-0.809754 h 1.661536 l 0.300754,0.342529 c 0.580194,0.660799 0.222312,1.152967 -0.402699,0.553832 C 21.427781,17.807428 21.396368,17.80178 20.03678,17.76938 l -1.38575,-0.03305 -0.302745,0.323737 -0.302744,0.323737 2.591053,0.0525 c 1.425078,0.02886 2.601954,0.06152 2.615279,0.0727 0.09398,0.07853 -0.0053,0.495263 -0.129057,0.542817 -0.0843,0.03238 -2.188316,0.0595 -4.675571,0.06032 -2.487263,0 -4.579954,0.03807 -4.650433,0.08273 -0.243379,0.154322 -0.299699,0.847139 -0.30118,3.704313 -0.0016,2.298859 0.0253,2.904567 0.13338,3.052456 0.128442,0.175727 0.355061,0.186802 4.769842,0.232949 l 4.634991,0.04846 v 0.242254 0.242255 l -4.118389,0.04846 c -2.265101,0.02667 -4.416346,0.02667 -4.780525,0 z m 10.54626,0.01447 c -0.298066,-0.09692 -0.480944,-0.234476 -0.659941,-0.496408 -0.144957,-0.212107 -0.163736,-0.580946 -0.163736,-3.215723 0,-1.698839 0.04057,-3.082786 0.09449,-3.224646 0.05196,-0.136674 0.237301,-0.33646 0.411845,-0.44395 0.305129,-0.187926 0.452912,-0.194459 3.838122,-0.169636 l 3.520777,0.02583 0.282667,0.316461 0.282666,0.316461 v 3.055732 c 0,2.584248 -0.0234,3.101017 -0.151785,3.349262 -0.280441,0.542315 -0.479919,0.569951 -4.036157,0.559318 -1.773826,-0.0052 -3.31235,-0.03807 -3.418944,-0.0727 z m 6.87462,-0.811342 c 0.127955,-0.182681 0.150852,-0.633887 0.150852,-2.972141 0,-2.429222 -0.01908,-2.777822 -0.160371,-2.933992 -0.149401,-0.165074 -0.386723,-0.177194 -3.469128,-0.177194 -2.444273,0 -3.339137,0.03037 -3.425046,0.116274 -0.08532,0.08532 -0.11628,0.896904 -0.11628,3.047633 0,2.689526 0.01397,2.939499 0.169578,3.030126 0.105796,0.06161 1.397767,0.09987 3.434571,0.101702 l 3.26498,0.0022 z m -4.554619,-1.460283 c -0.02636,-0.06882 -0.03593,-0.79872 -0.02119,-1.6219 0.02438,-1.356311 0.04338,-1.499879 0.202592,-1.53045 0.245922,-0.04724 2.392191,1.425994 2.392191,1.64202 0,0.202841 -2.042061,1.635527 -2.331169,1.635527 -0.106913,0 -0.216015,-0.0563 -0.242436,-0.125197 z m 1.507667,-1.517505 c 0,-0.03023 -0.09812,-0.115691 -0.218027,-0.189957 -0.11992,-0.07429 -0.316146,-0.198781 -0.436065,-0.276705 l -0.218036,-0.141698 v 0.639032 0.639012 l 0.436065,-0.307377 c 0.239838,-0.169053 0.436063,-0.332077 0.436063,-0.362306 z m -10.029466,2.429584 c -1.603861,-0.423529 -2.606436,-2.123213 -2.135528,-3.620378 0.650969,-2.069589 3.179649,-2.792635 4.727934,-1.351889 0.884191,0.822779 1.15765,1.882204 0.798251,3.092454 -0.196233,0.660779 -0.855658,1.387465 -1.517322,1.672108 -0.54733,0.235462 -1.407203,0.330792 -1.873335,0.207705 z m 1.586231,-0.789455 c 0.886356,-0.402163 1.465378,-1.44163 1.324903,-2.378411 -0.149827,-0.999088 -1.198018,-1.896595 -2.215056,-1.896595 -0.954291,0 -1.649571,0.445336 -2.064029,1.322041 -0.283335,0.599336 -0.29321,1.209908 -0.02902,1.792702 0.265689,0.586051 0.528863,0.853973 1.106237,1.126256 0.603567,0.284644 1.296932,0.297186 1.876942,0.03405 z m -0.980583,-0.440612 c -0.160331,-0.162421 -0.05378,-0.307014 0.305517,-0.414685 0.519146,-0.155527 0.768533,-0.381683 0.924004,-0.837933 0.09005,-0.264244 0.196834,-0.397461 0.335522,-0.418585 0.157879,-0.024 0.203436,0.02022 0.203436,0.197514 0,0.327335 -0.392725,1.050321 -0.686711,1.264196 -0.269455,0.196047 -0.962554,0.330269 -1.081768,0.209493 z m -1.623127,-1.83885 c 0,-0.550757 0.581324,-1.213968 1.218217,-1.389815 0.638717,-0.17637 1.306467,0.06822 1.168422,0.42793 -0.04543,0.118364 -0.155364,0.138101 -0.519579,0.09318 -0.592673,-0.07308 -1.040928,0.184932 -1.270314,0.731167 -0.119212,0.28388 -0.216956,0.382888 -0.37871,0.383632 -0.169363,0 -0.218036,-0.05416 -0.218036,-0.246094 z m -2.70943,-1.637879 c -0.241524,-0.290996 -0.08144,-0.487203 0.423696,-0.519302 0.438426,-0.02788 0.631712,0.06007 0.636886,0.289689 0.0076,0.320722 -0.833856,0.502821 -1.060582,0.229613 z m 0.157636,-2.637189 c -0.03555,-0.03555 -0.06457,-0.209111 -0.06457,-0.385762 0,-0.38727 0.154005,-0.445839 1.058851,-0.402706 0.687455,0.03274 0.854183,0.165877 0.746275,0.595818 -0.07171,0.28585 -0.414726,0.361061 -0.510344,0.111892 -0.03137,-0.08166 -0.175548,-0.145336 -0.329195,-0.145336 -0.15038,0 -0.338835,0.0654 -0.418774,0.145336 -0.152833,0.152834 -0.373225,0.189736 -0.482213,0.08076 z m 4.101342,-1.922985 c -0.131876,-0.158884 0.01845,-0.559238 0.79095,-2.106571 0.317088,-0.635133 0.412142,-0.750984 0.616117,-0.750984 0.173216,0 0.241173,0.05242 0.241173,0.186017 0,0.22702 -1.013369,2.405485 -1.230682,2.64561 -0.190413,0.210378 -0.260841,0.214759 -0.417558,0.02596 z M 27.03426,15.89152 c -1.100077,-2.112219 -1.241744,-2.595744 -0.76055,-2.595744 0.196477,0 1.401027,2.394873 1.347008,2.67813 -0.0607,0.318129 -0.402897,0.270052 -0.586458,-0.08239 z m -5.447051,-0.422344 c -0.179491,-0.179485 -0.202905,-0.824285 -0.03601,-0.991188 0.06396,-0.06396 0.281997,-0.116274 0.484519,-0.116274 0.286657,0 0.367902,-0.0376 0.366739,-0.169597 -0.0023,-0.287699 -0.123193,-0.38725 -0.774512,-0.639012 -1.13252,-0.437739 -2.914544,-1.209466 -3.151739,-1.364892 -0.177072,-0.116013 -0.497009,-0.152191 -1.346292,-0.152191 -1.263796,0 -1.433435,-0.08309 -1.5448,-0.756652 -0.106853,-0.646268 -0.06867,-0.892081 0.176573,-1.137351 0.195346,-0.1953632 0.333883,-0.2378529 0.775226,-0.2378529 h 0.53737 V 9.3736491 8.8431525 L 15.54806,8.8164811 14.021836,8.7898325 V 8.5475777 8.3053025 l 1.526224,-0.026649 1.526226,-0.026671 V 7.8183842 c 0,-0.3927374 0.0218,-0.4335991 0.231884,-0.4335991 0.127548,0 0.258359,0.068976 0.290713,0.1532758 0.03236,0.084296 0.0588,0.6511925 0.0588,1.2597343 v 1.1064773 h 0.562894 c 0.344919,0 0.635738,0.055151 0.750993,0.1422625 0.281337,0.212789 8.440478,0.218557 8.721283,0.006 0.11327,-0.085662 0.409771,-0.1434876 0.745294,-0.1453366 l 0.55719,-0.0022 1.53e-4,-0.5571877 1.36e-4,-0.5571885 -1.437932,0.028943 c -1.204276,0.024218 -1.458166,0.00463 -1.562461,-0.121138 -0.101428,-0.1222023 -0.101428,-0.1778575 0,-0.3000803 0.10427,-0.1256397 0.357766,-0.1453367 1.558147,-0.1211175 l 1.433608,0.028943 0.02841,-0.436071 c 0.0256,-0.3929576 0.05234,-0.436071 0.270657,-0.436071 h 0.242261 l 0.02712,1.235515 0.02712,1.2355142 h 0.578529 c 0.753439,0 0.966126,0.1888104 0.966126,0.8576704 0,0.580342 -0.157209,1.053999 -0.391427,1.179337 -0.09749,0.0522 -0.660874,0.09487 -1.251975,0.09487 -1.043178,0 -1.095267,0.01045 -1.774845,0.352599 -0.385075,0.193937 -0.961772,0.453135 -1.281549,0.576021 -1.690182,0.649504 -2.131759,0.870776 -2.162547,1.083626 -0.02613,0.180831 0.02803,0.221553 0.366904,0.275739 0.434649,0.06952 0.584354,0.247461 0.584354,0.694627 0,0.544526 -0.185089,0.602793 -1.914536,0.602793 -1.289093,0 -1.58658,-0.02651 -1.712411,-0.152271 z m 3.045523,-0.526055 c 0,-0.05963 -0.482607,-0.0969 -1.25402,-0.0969 -0.731484,0 -1.278973,0.04034 -1.313917,0.0969 -0.03874,0.06283 0.402758,0.0969 1.254026,0.0969 0.81134,0 1.313911,-0.03706 1.313911,-0.0969 z m -0.950788,-1.126436 c 0.04284,-0.166501 0.145777,-0.359091 0.22876,-0.427951 0.08299,-0.0689 0.943687,-0.455908 1.912699,-0.860102 l 1.761802,-0.734865 -0.03152,-0.436071 c -0.01733,-0.239823 -0.05295,-0.457858 -0.07916,-0.48451 -0.02621,-0.02665 -1.908231,-0.04846 -4.182259,-0.04846 h -4.134577 l -0.02879,0.493454 -0.02871,0.493494 0.561724,0.250013 c 0.308952,0.137519 1.084093,0.45816 1.722543,0.712555 1.139798,0.45416 1.600923,0.771264 1.600923,1.100931 0,0.232044 0.102348,0.305868 0.378382,0.272926 0.177379,-0.0212 0.260684,-0.107933 0.318174,-0.331415 z m -5.173417,-2.808935 0.02917,-0.398426 -0.39281,-0.05266 c -0.216043,-0.029 -0.741541,-0.02878 -1.167752,0 l -0.774944,0.05316 v 0.357624 c 0,0.19667 0.03046,0.388034 0.06761,0.425197 0.03722,0.03716 0.549546,0.05531 1.138603,0.04034 l 1.071019,-0.02719 z m 11.938388,0.02346 c 0,-0.413962 -0.0081,-0.424715 -0.363387,-0.483445 -0.199865,-0.03304 -0.702702,-0.06054 -1.117428,-0.06114 -0.84344,-0.002 -0.911041,0.05179 -0.802663,0.629526 l 0.06351,0.338429 h 1.109989 1.109997 z m -13.30802,3.556583 c -0.03555,-0.03555 -0.06457,-0.555862 -0.06457,-1.156303 0,-1.004958 0.01534,-1.096569 0.192945,-1.152927 0.106123,-0.03367 0.236944,-0.03411 0.290711,0 0.143408,0.08862 0.12681,2.113043 -0.01853,2.258379 -0.128655,0.128655 -0.301278,0.150924 -0.400528,0.05166 z m 11.973584,-0.04884 c -0.07951,-0.07951 -0.119105,-0.467087 -0.119105,-1.165673 v -1.046542 h 0.29378 0.29378 l -0.02727,1.137431 c -0.02226,0.926329 -0.05462,1.142676 -0.174675,1.165669 -0.08105,0.01548 -0.200974,-0.02545 -0.266485,-0.09089 z M 17.815464,8.6954662 c -0.03122,-0.081381 -0.03122,-0.2145381 0,-0.2958992 0.04793,-0.1248155 0.270923,-0.143749 1.42628,-0.1211175 l 1.369509,0.026808 V 8.547513 8.7897677 l -1.369509,0.026808 c -1.155357,0.022653 -1.378384,0.0038 -1.42628,-0.1211175 z m 11.905709,0.047554 c -0.03411,-0.055234 -0.03411,-0.1883088 4.6e-5,-0.2958194 0.05903,-0.1859971 0.130987,-0.1941976 1.484027,-0.168712 l 1.421986,0.026808 V 8.547572 8.7898268 l -1.422024,0.026816 c -0.904548,0.017085 -1.444586,-0.00965 -1.484035,-0.073527 z"
       id="path4-1" /></g></svg>
