<?xml version="1.0" encoding="UTF-8" standalone="no"?>
<!-- Created with Inkscape (http://www.inkscape.org/) -->

<svg
   width="45.534702mm"
   height="27.519629mm"
   viewBox="0 0 45.534702 27.519628"
   version="1.1"
   id="svg1"
   xml:space="preserve"
   xmlns="http://www.w3.org/2000/svg"
   xmlns:svg="http://www.w3.org/2000/svg"><defs
     id="defs1"><rect
       x="30.320267"
       y="100.16517"
       width="156.47424"
       height="19.4916"
       id="rect1" /></defs><g
     id="layer1"
     transform="translate(0,-6.8762035)"><text
       xml:space="preserve"
       transform="matrix(0.26458333,0,0,0.26458333,-1.1381661,2.8829915)"
       id="text1"
       style="font-style:normal;font-variant:normal;font-weight:bold;font-stretch:normal;font-size:16px;line-height:1.35;font-family:Arial;-inkscape-font-specification:'Arial, Bold';font-variant-ligatures:none;font-variant-caps:normal;font-variant-numeric:normal;font-variant-east-asian:normal;white-space:pre;shape-inside:url(#rect1)"><tspan
         x="30.320312"
         y="115.37809"
         id="tspan2">SEO &amp; Visibility</tspan></text><path
       style="fill:#000000;stroke-width:0.297418"
       d="m 13.40592,27.013231 c -0.857301,-0.39693 -1.239049,-1.476911 -0.824647,-2.332937 0.106269,-0.219545 0.903978,-1.056349 2.405421,-2.523325 1.235519,-1.207195 2.270589,-2.203081 2.300127,-2.213128 0.02951,-0.01008 0.609036,0.538849 1.287739,1.219726 l 1.234026,1.237965 -2.296368,2.231679 c -1.263002,1.227426 -2.420315,2.297157 -2.571804,2.377155 -0.369161,0.194974 -1.116538,0.196362 -1.534494,0.0032 z m 1.08455,-0.746937 c 0.139277,-0.06005 1.114501,-0.950861 2.167208,-1.97953 l 1.913955,-1.870284 -0.615538,-0.619272 c -0.338565,-0.340585 -0.654755,-0.60954 -0.702677,-0.597635 -0.04788,0.01186 -0.943547,0.857705 -1.990291,1.879616 -2.09037,2.040732 -2.184157,2.171842 -1.932814,2.701493 0.159922,0.337004 0.429938,0.524056 0.845399,0.585685 0.03383,0.0047 0.175483,-0.04002 0.314758,-0.10007 z m 9.145443,-3.384944 c -2.805157,-0.540974 -5.197263,-2.494324 -6.192076,-5.056339 -0.392072,-1.009692 -0.485693,-1.542522 -0.488663,-2.781179 -0.0032,-1.29778 0.134583,-2.005981 0.608163,-3.127873 1.335205,-3.1629384 4.743456,-5.1256854 8.233717,-4.7416439 3.550728,0.3907102 6.363738,2.8240545 7.152804,6.1873819 0.20907,0.891181 0.230154,2.413027 0.04577,3.305662 -0.596429,2.887539 -2.915209,5.300969 -5.818577,6.056117 -0.969554,0.252172 -2.661104,0.327584 -3.54113,0.157874 z m 2.774457,-0.958628 c 1.278828,-0.264165 2.282387,-0.733912 3.245939,-1.51945 1.632472,-1.33083 2.517694,-3.204986 2.517694,-5.330326 0,-3.21989 -2.252415,-6.020784 -5.473843,-6.8067239 -0.967539,-0.2360819 -2.559363,-0.2381856 -3.429897,-0.00469 -2.615176,0.7018015 -4.507238,2.5565989 -5.192547,5.0903289 -0.200639,0.741855 -0.237903,2.295968 -0.07356,3.06902 0.339022,1.594749 1.382857,3.185807 2.799488,4.267107 0.688301,0.525378 2.099739,1.124982 3.007643,1.277707 0.653447,0.109896 1.963601,0.08819 2.599079,-0.04303 z m -6.231294,-3.618766 c -0.303336,-0.303349 -0.182898,-0.496959 1.088888,-1.750341 0.991199,-0.976864 1.253426,-1.195 1.43649,-1.195 0.16707,0 0.438124,0.179847 1.067287,0.708223 0.46384,0.389525 0.870534,0.708224 0.903769,0.708224 0.03322,0 0.667801,-0.606631 1.41015,-1.348039 l 1.349704,-1.348062 -0.48328,-0.430295 C 26.384632,13.14345 26.320988,13.04857 26.3832,12.80065 c 0.05872,-0.233844 0.06957,-0.236977 1.625722,-0.471358 1.609041,-0.242347 1.692795,-0.243243 1.833898,-0.01992 0.09758,0.154382 0.09205,0.348284 -0.04318,1.514819 -0.08531,0.735771 -0.197999,1.426294 -0.250428,1.534488 -0.162707,0.335796 -0.407421,0.29366 -0.877784,-0.151182 -0.232419,-0.219835 -0.45152,-0.39966 -0.486916,-0.39966 -0.03539,0 -0.779802,0.690522 -1.654284,1.534509 -1.269233,1.224919 -1.632994,1.534488 -1.803242,1.534488 -0.149745,0 -0.449444,-0.191417 -1.00628,-0.64268 -0.436149,-0.353452 -0.828656,-0.669353 -0.872255,-0.70198 -0.04492,-0.03362 -0.522834,0.364081 -1.101686,0.916625 -1.066811,1.018353 -1.285311,1.137535 -1.567665,0.855199 z m -0.981873,-1.836249 c -0.108119,-0.108127 -0.165886,-0.319795 -0.206994,-0.758572 -0.113061,-1.206413 0.07764,-2.189162 0.648233,-3.340839 0.492213,-0.993469 1.469599,-1.998261 2.423617,-2.4916369 0.809297,-0.4185257 1.576221,-0.6515418 2.338846,-0.7106405 0.689465,-0.053374 0.848183,0.017228 0.848183,0.3771939 0,0.3043105 -0.235906,0.4371884 -0.86561,0.4876045 -1.907682,0.152748 -3.61454,1.522851 -4.343368,3.486426 -0.148145,0.399101 -0.172969,0.630933 -0.176874,1.652194 -0.0047,1.248571 -0.05559,1.448245 -0.368308,1.448245 -0.08126,0 -0.21524,-0.06752 -0.297725,-0.149975 z"
       id="path1-9" /></g></svg>
