<?xml version="1.0" encoding="UTF-8" standalone="no"?>
<!-- Created with Inkscape (http://www.inkscape.org/) -->

<svg
   width="45.534702mm"
   height="27.519629mm"
   viewBox="0 0 45.534702 27.519628"
   version="1.1"
   id="svg1"
   xml:space="preserve"
   xmlns="http://www.w3.org/2000/svg"
   xmlns:svg="http://www.w3.org/2000/svg"><defs
     id="defs1"><rect
       x="30.320267"
       y="100.16517"
       width="156.47424"
       height="19.4916"
       id="rect1" /></defs><g
     id="layer1"
     transform="translate(0,-6.8762035)"><text
       xml:space="preserve"
       transform="matrix(0.26458333,0,0,0.26458333,-0.2927397,2.8829915)"
       id="text1"
       style="font-style:normal;font-variant:normal;font-weight:bold;font-stretch:normal;font-size:16px;line-height:1.35;font-family:Arial;-inkscape-font-specification:'Arial, Bold';font-variant-ligatures:none;font-variant-caps:normal;font-variant-numeric:normal;font-variant-east-asian:normal;text-align:start;white-space:pre;shape-inside:url(#rect1)"
       x="59.453125"
       y="0"><tspan
         x="30.320312"
         y="115.37809"
         id="tspan2">Website Builds</tspan></text><path
       style="fill:#000000;stroke-width:0.412587"
       d="m 11.837853,25.132235 -0.257719,-0.208653 -0.03079,-7.787585 c -0.01694,-4.283175 -0.0036,-7.8967354 0.02856,-8.0301724 0.03273,-0.1334177 0.166348,-0.3422032 0.297026,-0.4639431 0.23534,-0.2192488 0.339631,-0.2213567 10.974579,-0.2213567 h 10.736983 l 0.267946,0.2679563 0.267946,0.2679369 v 7.904615 c 0,7.831565 -0.0022,7.907236 -0.226256,8.192207 l -0.226247,0.287647 H 22.882715 c -10.457755,0 -10.795045,-0.0057 -11.044884,-0.208652 z m 21.603203,-6.477619 0.02821,-5.976703 H 22.879471 12.289689 v 6.004541 6.004523 l 10.561562,-0.02785 10.561571,-0.02784 z m -18.796543,3.89479 c -0.149891,-0.149881 -0.171552,-0.691509 -0.171552,-4.290125 0,-3.057785 0.0338,-4.152321 0.131002,-4.249583 0.188081,-0.188068 8.501341,-0.188068 8.689421,0 0.09724,0.09724 0.130994,1.189766 0.130994,4.240468 0,3.842532 -0.01291,4.121198 -0.199635,4.290125 -0.178306,0.16137 -0.638043,0.180663 -4.304165,0.180663 -3.585838,0 -4.126203,-0.02167 -4.276065,-0.171548 z m 8.015715,-1.333172 V 20.475638 L 22.072783,19.8955 c -0.653551,-0.645441 -0.721791,-0.646599 -1.316047,-0.02218 -0.176339,0.185277 -0.396558,0.336886 -0.489371,0.336886 -0.09281,0 -0.66083,-0.488971 -1.262242,-1.086578 l -1.093502,-1.086578 -1.337255,1.26069 -1.337255,1.260727 v 0.699181 0.699181 h 3.711565 3.711552 z m -4.967111,-3.908803 c 0.270387,-0.17715 0.277844,-0.172327 1.431216,0.928873 l 1.159425,1.106973 0.528571,-0.49444 c 0.290718,-0.271924 0.581919,-0.49442 0.647101,-0.49442 0.06517,0 0.362028,0.227774 0.659659,0.506175 l 0.541139,0.506174 v -2.357009 -2.35701 l -0.354774,-0.05691 c -0.195142,-0.03137 -1.853059,-0.04578 -3.684278,-0.03222 l -3.329477,0.02461 -0.02935,2.498859 -0.02935,2.498859 1.094193,-1.050233 c 0.601811,-0.577631 1.216507,-1.130367 1.36599,-1.228313 z m 2.24595,-0.441461 c -0.297122,-0.377712 -0.285644,-0.645346 0.0417,-0.9727 0.364629,-0.364629 0.847498,-0.356312 1.143262,0.01967 0.124433,0.158198 0.226247,0.372624 0.226247,0.476513 0,0.36613 -0.426435,0.764143 -0.818725,0.764143 -0.26562,0 -0.428387,-0.07901 -0.592474,-0.287629 z m 5.077974,1.529197 c -0.171323,-0.446472 0.03682,-0.477406 3.212218,-0.477406 2.593992,0 3.040594,0.02368 3.094367,0.163744 0.03459,0.09007 0.03459,0.23744 0,0.327487 -0.05376,0.140215 -0.506626,0.163743 -3.150642,0.163743 -2.75093,0 -3.095233,-0.01937 -3.155943,-0.177568 z m 7.89e-4,-1.963288 c -0.17501,-0.456063 0.02454,-0.483901 3.251936,-0.453443 l 3.069116,0.029 v 0.272894 0.272912 l -3.126136,0.029 c -2.814721,0.02605 -3.132992,0.0112 -3.194916,-0.150299 z m 0,-1.96496 c -0.17501,-0.456062 0.02454,-0.483882 3.251936,-0.453423 l 3.069116,0.02897 v 0.272931 0.272893 l -3.126136,0.029 c -2.814721,0.02613 -3.132992,0.0112 -3.194916,-0.15028 z m 8.425811,-3.890403 -0.03065,-1.3372544 -0.873306,-0.070206 C 32.059371,9.1304506 27.318948,9.1058406 22.00541,9.1144456 l -9.660972,0.015574 -0.0305,1.3918294 -0.03057,1.391848 h 10.595479 10.595482 z m -19.451252,0.321372 c -0.409347,-0.299307 0.02577,-1.0416877 0.453444,-0.773618 0.268915,0.168586 0.308726,0.600076 0.07134,0.773618 -0.107231,0.07841 -0.225314,0.142571 -0.262405,0.142571 -0.0371,0 -0.155174,-0.06416 -0.262406,-0.142571 z m 1.977802,-0.03423 c -0.04292,-0.04292 -0.07794,-0.216192 -0.07794,-0.385176 0,-0.237061 0.06258,-0.32293 0.274327,-0.376062 0.358475,-0.08997 0.619037,0.132127 0.577202,0.49201 -0.0262,0.225533 -0.0994,0.288768 -0.364218,0.314707 -0.182282,0.01785 -0.366487,-0.0021 -0.40937,-0.0455 z m 2.068937,-0.005 c -0.118606,-0.118625 -0.08298,-0.528335 0.05821,-0.669539 0.328986,-0.3289868 0.81591,-0.0021 0.697834,0.467988 -0.05318,0.211691 -0.138982,0.274317 -0.376061,0.274317 -0.168976,0 -0.339967,-0.03279 -0.379993,-0.07279 z"
       id="path10-6" /></g></svg>
