<?xml version="1.0" encoding="UTF-8" standalone="no"?>
<!-- Created with Inkscape (http://www.inkscape.org/) -->

<svg
   width="45.534702mm"
   height="27.519629mm"
   viewBox="0 0 45.534702 27.519628"
   version="1.1"
   id="svg1"
   xml:space="preserve"
   xmlns="http://www.w3.org/2000/svg"
   xmlns:svg="http://www.w3.org/2000/svg"><defs
     id="defs1"><rect
       x="30.320267"
       y="100.16517"
       width="156.47424"
       height="19.4916"
       id="rect1" /></defs><g
     id="layer1"
     transform="translate(0,-6.8762035)"><text
       xml:space="preserve"
       transform="matrix(0.26458333,0,0,0.26458333,1.4505629,2.8829915)"
       id="text1"
       style="font-style:normal;font-variant:normal;font-weight:bold;font-stretch:normal;font-size:16px;line-height:1.35;font-family:Arial;-inkscape-font-specification:'Arial, Bold';font-variant-ligatures:none;font-variant-caps:normal;font-variant-numeric:normal;font-variant-east-asian:normal;text-align:start;white-space:pre;shape-inside:url(#rect1)"
       x="59.453125"
       y="0"><tspan
         x="30.320312"
         y="115.37809"
         id="tspan2">Website Care</tspan></text><path
       style="fill:#000000;stroke-width:0.30297"
       d="m 12.130233,26.066958 c -0.506591,-0.29524 -0.475699,0.306351 -0.475699,-9.265539 V 8.1680725 l 0.252514,-0.3253796 0.252513,-0.3253778 10.462215,-0.022142 c 9.849373,-0.020789 10.477029,-0.013234 10.715154,0.1306507 0.139116,0.084032 0.318212,0.2579633 0.397996,0.3864927 0.141872,0.2286244 0.145056,0.4206845 0.145607,8.8246935 0,8.416401 -0.0028,8.595734 -0.145056,8.825576 -0.08008,0.129034 -0.259431,0.303137 -0.398547,0.386913 -0.237306,0.142879 -0.893809,0.152182 -10.617283,0.150461 C 13.639784,26.19786 12.327436,26.1819 12.130233,26.066937 Z M 33.120876,18.79481 V 12.438942 H 22.756533 12.392209 l 0.0017,6.293598 c 0,3.461467 0.02742,6.342449 0.05948,6.402157 0.04604,0.08566 2.205874,0.11324 10.23412,0.130671 5.596645,0.01219 10.2338,-0.0088 10.304816,-0.04635 0.121224,-0.06422 0.129085,-0.455189 0.129085,-6.424249 z m -10.275595,5.294909 c -0.155406,-0.171437 -0.248956,-0.599933 -0.746566,-3.419023 -0.748736,-4.241678 -0.825017,-4.654632 -0.869533,-4.707199 -0.04518,-0.05334 -0.321235,0.801569 -1.013647,3.13926 -0.527133,1.779698 -0.657108,2.047049 -0.995149,2.047049 -0.202378,0 -0.380728,-0.230052 -0.74285,-0.958199 -0.43289,-0.870434 -0.383074,-0.846786 -0.78886,-0.374606 l -0.359384,0.418164 -1.737128,0.02627 c -1.869361,0.02834 -1.945907,0.01219 -1.945907,-0.411548 0,-0.425682 0.06479,-0.442295 1.724269,-0.442295 h 1.547218 l 0.532522,-0.609761 c 0.292904,-0.335353 0.595091,-0.609761 0.671533,-0.609761 0.244633,0 0.454214,0.250948 0.733245,0.877994 0.149679,0.336362 0.299839,0.578847 0.333702,0.538881 0.03381,-0.04001 0.297812,-0.874907 0.58659,-1.85541 0.288795,-0.980502 0.657889,-2.233502 0.820215,-2.784479 0.162325,-0.550957 0.346667,-1.070347 0.409609,-1.154185 0.239602,-0.319057 0.641742,-0.131345 0.749643,0.349908 0.04013,0.178849 0.374592,2.048309 0.743294,4.154372 0.368705,2.106064 0.685582,3.84714 0.704151,3.869088 0.01856,0.0219 0.0443,0.02357 0.05714,0.004 0.02252,-0.03492 1.011369,-3.028161 1.482445,-4.487229 0.279404,-0.865372 0.365449,-0.993355 0.667903,-0.993355 0.304036,0 0.362994,0.08628 0.922657,1.350173 0.254577,0.57492 0.513671,1.113905 0.57574,1.197743 0.103066,0.1392 0.316984,0.152452 2.463579,0.152452 h 2.350716 l 0.08402,0.217766 c 0.06285,0.162909 0.06285,0.272622 0,0.435531 l -0.08402,0.217787 h -2.530146 c -2.133985,0 -2.554977,-0.02059 -2.688738,-0.131176 -0.08722,-0.07216 -0.351097,-0.541506 -0.586359,-1.043025 -0.235262,-0.501518 -0.450035,-0.883475 -0.477247,-0.848801 -0.02722,0.03469 -0.204546,0.533441 -0.394065,1.10836 -1.538805,4.668031 -1.637957,4.921626 -1.924583,4.921626 -0.05411,0 -0.178315,-0.08821 -0.276025,-0.196008 z M 33.119738,10.065232 c 0,-0.7785295 -0.02754,-1.4646529 -0.05983,-1.5246966 -0.0467,-0.086839 -2.164612,-0.1046726 -10.344761,-0.087106 l -10.286035,0.022069 -0.02016,1.5026032 -0.02016,1.5026234 h 10.366065 10.366067 z m -19.351405,0.298034 c -0.268644,-0.350558 -0.04,-0.9731094 0.357412,-0.9731094 0.403936,0 0.638858,0.6737534 0.344586,0.9882524 -0.17906,0.191346 -0.54988,0.183345 -0.701998,-0.01512 z m 2.113053,0.09016 c -0.305513,-0.229318 -0.190976,-0.9228121 0.170079,-1.0298158 0.419819,-0.1244129 0.78854,0.5594845 0.502698,0.9324308 -0.129298,0.168728 -0.505258,0.223142 -0.672777,0.09739 z m 2.017938,-0.09016 c -0.285595,-0.3726524 -0.05667,-0.9731094 0.370944,-0.9731094 0.209793,0 0.465934,0.3202748 0.465934,0.5826272 0,0.4624562 -0.575811,0.7311282 -0.836878,0.3904822 z"
       id="path3-7" /></g></svg>
