<?xml version="1.0" encoding="UTF-8" standalone="no"?>
<svg
   width="49"
   height="45"
   viewBox="0 0 49 45"
   fill="none"
   version="1.1"
   id="svg3"
   xml:space="preserve"
   xmlns="http://www.w3.org/2000/svg"
   xmlns:svg="http://www.w3.org/2000/svg"><defs
     id="defs3"><rect
       x="30.320267"
       y="100.16517"
       width="156.47424"
       height="19.4916"
       id="rect1" /><rect
       x="30.320267"
       y="100.16517"
       width="156.47424"
       height="19.4916"
       id="rect1-1" /><rect
       x="30.320267"
       y="100.16517"
       width="156.47424"
       height="19.4916"
       id="rect20" /><rect
       x="30.320267"
       y="100.16517"
       width="156.47424"
       height="19.4916"
       id="rect21" /><rect
       x="30.320267"
       y="100.16517"
       width="156.47424"
       height="19.4916"
       id="rect26" /></defs><path
     style="fill:#000000;stroke:#000000;stroke-width:1.45687;stroke-dasharray:none"
     d="m 33.405658,41.102805 c -0.04997,-0.04985 -0.09561,-3.262856 -0.101459,-7.139825 -0.0059,-3.876913 -0.05727,-11.51642 -0.114303,-16.97662 l -0.103695,-9.9276439 0.375537,-0.089675 c 0.206521,-0.04929 3.064826,-0.093708 6.35175,-0.098693 4.608937,-0.00728 5.990934,0.035287 6.040493,0.1837187 0.140398,0.4212088 0.22706,5.5170512 0.331657,19.5028632 l 0.109436,14.627484 -6.399311,0.0056 c -3.519608,0.0056 -6.440158,-0.03641 -6.490105,-0.08626 z m 12.28432,-6.813557 c -0.05841,-3.45548 -0.122655,-6.302112 -0.143177,-6.325917 -0.02062,-0.02352 -2.685425,-0.08659 -5.921838,-0.139525 l -5.884387,-0.09623 0.07698,0.998018 c 0.04235,0.548915 0.08164,3.4389 0.08736,6.422089 l 0.01047,5.424128 h 5.940254 5.940248 z m -0.0911,-11.73072 -0.05483,-4.745769 -0.702399,-0.09079 c -0.566823,-0.07326 -5.839259,-0.12457 -10.262859,-0.09987 l -0.819486,0.0056 v 4.734734 c 0,2.604102 0.04683,4.781561 0.10407,4.838748 0.05722,0.05724 2.733522,0.104071 5.9473,0.104071 h 5.84323 z M 45.465914,12.317777 V 7.4771243 l -5.814357,0.040888 -5.814299,0.040889 -0.04128,4.7196107 -0.04133,4.719611 5.270308,0.04312 c 2.898649,0.02352 5.533686,0.05988 5.85562,0.08016 l 0.585334,0.03641 z M 1.5271882,40.692126 c 0.10603,-0.370182 4.7003093,-14.310568 8.6046738,-26.109176 1.25001,-3.777324 2.373058,-7.0259529 2.495662,-7.2190816 0.219818,-0.346265 0.269596,-0.3511941 3.556151,-0.3511941 2.480068,0 3.372756,0.04985 3.487748,0.1950892 0.085,0.1073186 0.264757,0.5462829 0.39946,0.9755574 0.499457,1.5915756 3.527271,10.9509251 3.761966,11.6286681 0.242206,0.699475 0.980727,2.978596 3.995619,12.330999 0.871756,2.704251 1.860393,5.734713 2.196984,6.734412 0.336575,0.999699 0.611974,1.895215 0.611974,1.9901 0,0.260679 -5.994787,0.238946 -6.209407,-0.0224 -0.151641,-0.184783 -0.68628,-1.854608 -2.22563,-6.95129 l -0.673385,-2.229494 -5.277292,0.01624 c -3.815446,0.01233 -5.310306,0.06693 -5.396475,0.19789 -0.06555,0.09959 -0.78645,2.184069 -1.6020149,4.63212 l -1.4828456,4.451035 -3.1723741,0.04257 -3.1723524,0.04257 z m 5.8935626,-0.492904 c 0.065249,-0.09556 0.5470443,-1.508285 1.0706659,-3.139405 1.5073503,-4.695694 1.8841133,-5.76776 2.0684263,-5.885553 0.09485,-0.06061 2.642945,-0.114544 5.662429,-0.119922 4.818534,-0.0084 5.520322,0.02073 5.738163,0.238387 0.136501,0.136501 0.248183,0.344193 0.248183,0.461537 0,0.117345 0.172427,0.762097 0.3832,1.43267 0.21075,0.670686 0.773903,2.516555 1.25146,4.101969 0.477534,1.585414 0.935145,2.94947 1.016889,3.031247 0.08176,0.08172 1.285801,0.181366 2.675644,0.221415 2.428578,0.06995 2.522453,0.06139 2.409891,-0.221583 C 29.762488,39.859231 28.329885,35.51137 26.505704,29.879719 25.58804,27.046698 24.497619,23.710298 24.082544,22.465492 23.407052,20.439657 20.507092,11.491042 19.681768,8.885709 19.504996,8.3276634 19.305862,7.8114586 19.239225,7.7384752 19.034451,7.5142041 13.280387,7.599062 13.06548,7.8294943 12.964054,7.9382693 11.424138,12.452373 9.6434895,17.860817 7.8628299,23.269374 5.4661742,30.515509 4.3175793,33.963428 3.1689781,37.411347 2.229212,40.268509 2.229212,40.31259 c 0,0.184895 0.6702154,0.218671 2.8096028,0.141766 1.3984635,-0.05041 2.3086216,-0.147759 2.381936,-0.255134 z M 13.159491,26.710571 c -0.555789,-0.02576 -1.0578,-0.123898 -1.115599,-0.217381 -0.122122,-0.197611 0.0087,-0.669958 1.720677,-6.212943 2.313557,-7.490739 2.343428,-7.572236 2.657217,-7.250336 0.271955,0.278883 4.176308,13.439473 4.030392,13.585384 -0.08648,0.08648 -5.868828,0.161986 -7.292687,0.09528 z m 6.573898,-0.811107 c -0.06403,-0.26852 -1.312289,-4.574148 -2.194739,-7.570332 -0.328694,-1.116036 -0.722989,-2.468161 -0.876193,-3.004754 -0.153214,-0.536537 -0.323977,-0.975502 -0.379463,-0.975502 -0.05551,0 -0.581995,1.597905 -1.169996,3.550982 -0.58799,1.953076 -1.374351,4.521889 -1.747457,5.708611 -0.3731,1.18661 -0.678174,2.240192 -0.677939,2.341293 0,0.135662 0.931319,0.183831 3.551025,0.183831 3.076847,0 3.543151,-0.03137 3.494762,-0.234129 z"
     id="path31" /><path
     style="opacity:1;fill:#ffffff;fill-opacity:1;fill-rule:evenodd;stroke:none;stroke-width:0.588818;stroke-linecap:square;stroke-linejoin:round;stroke-miterlimit:3.8;stroke-dasharray:none;stroke-dashoffset:13.6845;paint-order:normal"
     d="m 37.02905,16.192493 -2.387571,-0.05363 V 12.236825 8.3347919 h 5.035603 5.035604 v 3.9937541 3.993755 l -2.648033,-0.03809 c -1.456418,-0.02095 -3.72244,-0.06222 -5.035603,-0.09172 z"
     id="path32" /><path
     style="opacity:1;fill:#000000;fill-opacity:1;fill-rule:evenodd;stroke:none;stroke-width:0.588818;stroke-linecap:square;stroke-linejoin:round;stroke-miterlimit:3.8;stroke-dasharray:none;stroke-dashoffset:13.6845;paint-order:normal"
     d="m 34.64152,34.163965 4.1e-5,-5.599938 h 5.013206 5.013206 l 0.108136,1.389132 c 0.05947,0.764022 0.108605,3.283994 0.109178,5.599938 l 0.001,4.210806 h -5.122424 -5.122424 z"
     id="path33" /><path
     style="opacity:1;fill:#008000;fill-opacity:1;fill-rule:evenodd;stroke:none;stroke-width:0.588818;stroke-linecap:square;stroke-linejoin:round;stroke-miterlimit:3.8;stroke-dasharray:none;stroke-dashoffset:13.6845;paint-order:normal"
     d="m 36.247663,26.437775 -1.606184,-0.0573 V 22.381153 18.38183 l 4.93458,0.0555 c 2.714019,0.03052 4.969228,0.09456 5.011575,0.142315 0.04235,0.04775 0.128127,1.864476 0.190621,4.037165 l 0.113625,3.950344 -3.519017,-0.03604 c -1.935459,-0.01982 -4.241799,-0.06182 -5.1252,-0.09334 z"
     id="path34" /></svg>
