<?xml version="1.0" encoding="UTF-8" standalone="no"?>
<svg
   width="49"
   height="45"
   viewBox="0 0 49 45"
   fill="none"
   version="1.1"
   id="svg3"
   sodipodi:docname="icon3.svg"
   inkscape:version="1.3.2 (091e20e, 2023-11-25, custom)"
   xml:space="preserve"
   xmlns:inkscape="http://www.inkscape.org/namespaces/inkscape"
   xmlns:sodipodi="http://sodipodi.sourceforge.net/DTD/sodipodi-0.dtd"
   xmlns="http://www.w3.org/2000/svg"
   xmlns:svg="http://www.w3.org/2000/svg"><defs
     id="defs3"><rect
       x="30.320267"
       y="100.16517"
       width="156.47424"
       height="19.4916"
       id="rect1" /><rect
       x="30.320267"
       y="100.16517"
       width="156.47424"
       height="19.4916"
       id="rect1-1" /><rect
       x="30.320267"
       y="100.16517"
       width="156.47424"
       height="19.4916"
       id="rect20" /><rect
       x="30.320267"
       y="100.16517"
       width="156.47424"
       height="19.4916"
       id="rect21" /><rect
       x="30.320267"
       y="100.16517"
       width="156.47424"
       height="19.4916"
       id="rect26" /></defs><sodipodi:namedview
     id="namedview3"
     pagecolor="#ffffff"
     bordercolor="#111111"
     borderopacity="1"
     inkscape:showpageshadow="0"
     inkscape:pageopacity="0"
     inkscape:pagecheckerboard="1"
     inkscape:deskcolor="#d1d1d1"
     showgrid="false"
     showguides="true"
     inkscape:zoom="1.439748"
     inkscape:cx="287.55032"
     inkscape:cy="89.946296"
     inkscape:window-width="2400"
     inkscape:window-height="1261"
     inkscape:window-x="1341"
     inkscape:window-y="616"
     inkscape:window-maximized="1"
     inkscape:current-layer="svg3" /><g
     id="g40"
     transform="translate(-145.51158,-157.66648)"><path
       style="fill:#000000;stroke:#000000;stroke-width:0.558;stroke-dasharray:none"
       d="m 148.21014,198.15168 c -0.97418,-0.52941 -0.93073,0.30173 -0.93073,-17.80246 0,-18.16903 -0.0477,-17.28729 0.96297,-17.80991 0.67116,-0.34708 41.39595,-0.34708 42.06712,0 1.01064,0.52262 0.96296,-0.35912 0.96296,17.80991 0,18.16904 0.0477,17.2873 -0.96296,17.80992 -0.66215,0.34241 -41.46886,0.33518 -42.09936,-0.008 z m 41.63252,-1.33422 c 0.0914,-0.17082 0.16381,-1.32501 0.16381,-2.61168 v -2.3056 l -20.69097,0.0402 -20.69098,0.0402 -0.0439,2.2573 c -0.0268,1.37794 0.0216,2.37971 0.12425,2.57154 0.16644,0.31098 0.37903,0.31423 20.57109,0.31423 20.0098,0 20.40606,-0.006 20.56672,-0.30609 z m -35.86098,-1.38594 c -0.2572,-0.0503 -0.3566,-0.20851 -0.409,-0.651 -0.12069,-1.01931 -0.0176,-1.16028 0.80885,-1.1067 l 0.73117,0.0474 0.0493,0.68425 c 0.0722,1.00419 -0.17829,1.222 -1.18026,1.02605 z m 4.79023,-0.094 c -0.20962,-0.15327 -0.26594,-0.37802 -0.22806,-0.90993 l 0.0503,-0.70638 0.75168,-0.0482 0.75168,-0.0482 v 0.86211 c 0,0.64015 -0.0644,0.88684 -0.25031,0.95816 -0.39414,0.15125 -0.77329,0.11335 -1.0753,-0.10749 z m 5.03291,0.0824 c -0.28317,-0.19389 -0.39599,-0.68305 -0.28904,-1.25313 0.0998,-0.53188 0.11311,-0.53976 0.83399,-0.49306 l 0.73258,0.0474 0.0503,0.70637 c 0.0379,0.53191 -0.0184,0.75666 -0.22805,0.90993 -0.30629,0.22397 -0.8352,0.26362 -1.09979,0.0824 z m 4.84783,-0.10456 c -0.10302,-0.12413 -0.16514,-0.53359 -0.13807,-0.90993 l 0.0492,-0.68425 0.75169,-0.0482 0.75168,-0.0482 v 0.86211 c 0,0.64014 -0.0644,0.88683 -0.25032,0.95816 -0.43077,0.1653 -0.9692,0.10535 -1.16421,-0.12963 z m 5.21249,0.11033 c -0.34399,-0.13095 -0.4699,-0.37566 -0.4699,-0.91327 0,-0.73933 0.17991,-0.89691 0.96033,-0.84107 l 0.69643,0.0498 0.0503,0.70638 c 0.0664,0.93246 -0.40678,1.31423 -1.23718,0.99813 z m 4.77735,-0.0211 c -0.13732,-0.0871 -0.19082,-0.3939 -0.15825,-0.9075 l 0.0492,-0.77594 h 0.71212 0.71212 l 0.0492,0.77594 c 0.0534,0.843 -0.0902,1.03907 -0.76134,1.03907 -0.21759,0 -0.48899,-0.0592 -0.6031,-0.13157 z m 4.97442,-0.0671 c -0.20961,-0.15328 -0.26594,-0.37802 -0.22806,-0.90993 l 0.0503,-0.70638 0.69644,-0.0499 c 0.80451,-0.0576 0.95921,0.0958 0.96275,0.95419 0.002,0.42088 -0.0845,0.6344 -0.30367,0.75168 -0.41246,0.22074 -0.84134,0.20627 -1.17777,-0.0397 z m -30.95706,-14.99303 v -10.29088 l -2.01767,0.0443 -2.01766,0.0443 -0.041,10.04878 c -0.0226,5.52683 -0.007,10.13779 0.0346,10.24659 0.0549,0.1437 0.61805,0.1978 2.05868,0.1978 h 1.98307 z m 31.88706,0.005 v -10.20698 l -15.18202,-0.0404 c -12.04101,-0.032 -15.2081,5.3e-4 -15.30811,0.15824 -0.1458,0.22966 -0.17934,19.74851 -0.0346,20.12576 0.0872,0.22728 1.53946,0.24728 15.31053,0.21075 l 15.21417,-0.0403 z m 5.38044,0 v -10.20698 l -2.01767,-0.0443 -2.01766,-0.0443 v 10.2956 10.2956 l 2.01766,-0.0443 2.01767,-0.0443 z m 0.0791,-13.85714 c 0,-1.28627 -0.0724,-2.44028 -0.16382,-2.6111 -0.16065,-0.30015 -0.55692,-0.30605 -20.56672,-0.30605 -20.00979,0 -20.40606,0.006 -20.56672,0.30609 -0.17833,0.3332 -0.23052,4.63841 -0.0583,4.8106 0.058,0.058 9.38677,0.10551 20.73054,0.10551 h 20.62504 z m -36.48347,0.19627 c -0.0531,-0.21172 -0.0733,-0.5894 -0.0447,-0.83926 0.0495,-0.43274 0.0895,-0.4543 0.84317,-0.4543 h 0.79124 v 0.79124 0.79124 l -0.74654,0.048 c -0.67712,0.0436 -0.75553,0.0122 -0.84316,-0.33694 z m 5.10499,0.26999 c -0.0621,-0.0621 -0.11295,-0.45713 -0.11295,-0.87781 v -0.76487 h 0.79951 0.79952 l -0.0478,0.8308 -0.0479,0.83081 -0.63874,0.047 c -0.3513,0.0259 -0.68956,-0.004 -0.75168,-0.0659 z m 4.85637,-0.12267 c -0.0466,-0.12141 -0.0622,-0.49527 -0.0346,-0.83081 l 0.0501,-0.61007 h 0.79124 c 0.7537,0 0.79371,0.0216 0.84317,0.4543 0.0286,0.24986 0.009,0.62373 -0.0426,0.83081 -0.0821,0.32691 -0.18854,0.37649 -0.80857,0.37649 -0.46482,0 -0.74363,-0.077 -0.79877,-0.22072 z m 5.00033,-0.64097 v -0.87904 h 0.79952 0.7995 l -0.0479,0.8308 -0.0478,0.83081 -0.75168,0.0482 -0.75168,0.0482 z m 4.96932,0.64097 c -0.0466,-0.12141 -0.0622,-0.49527 -0.0346,-0.83081 0.0492,-0.59912 0.0626,-0.61097 0.74654,-0.6599 0.76635,-0.0548 0.95882,0.10282 0.96275,0.78856 0.004,0.77452 -0.1386,0.92287 -0.88984,0.92287 -0.45291,0 -0.73006,-0.0779 -0.78485,-0.22072 z m 5.00033,-0.64964 v -0.88771 l 0.75168,0.0482 0.75168,0.0482 v 0.79124 0.79124 l -0.75168,0.0482 -0.75168,0.0482 z m 4.96932,0.64964 c -0.0466,-0.12141 -0.0622,-0.49527 -0.0346,-0.83081 0.0492,-0.59912 0.0626,-0.61097 0.74654,-0.6599 0.76634,-0.0548 0.95881,0.10282 0.96274,0.78856 0.004,0.77452 -0.13859,0.92287 -0.88984,0.92287 -0.45291,0 -0.73006,-0.0779 -0.78485,-0.22072 z"
       id="path37-1"
       sodipodi:nodetypes="cscsssccsscccccsssccccccccccccsccccscccscccccccsccccsccccccccccsscccccccsccccccccsccccccsccccccccccccscsccscsccscccccccscccccccccccsscscccccccccccccscscccccccccccccscscc" /><path
       style="fill:#008000;fill-opacity:1;stroke:#008000;stroke-width:0.358;stroke-dasharray:none;stroke-opacity:1"
       d="m 171.38185,187.36743 c -2.04723,-5.70144 -5.61189,-9.67352 -9.07316,-10.11018 -1.18536,-0.14954 -1.45425,-0.30956 -1.39416,-0.82971 0.0448,-0.38776 0.11587,-0.42879 0.82029,-0.47358 1.53107,-0.0973 3.75075,0.8712 5.5819,2.4356 0.99054,0.84624 2.47505,2.77601 3.4926,4.54015 l 0.73483,1.27396 0.18745,-0.54143 c 0.31292,-0.90385 1.12558,-2.42099 1.69971,-3.17313 0.49958,-0.6545 0.54218,-0.79794 0.53668,-1.80727 -0.0121,-2.23282 1.42437,-3.70746 3.61167,-3.70746 2.10343,0 3.61378,1.48767 3.61489,3.56059 0.002,3.03335 -3.45247,4.76008 -5.8008,2.89987 -0.56618,-0.44849 -0.62126,-0.46184 -0.89259,-0.2163 -0.3714,0.33612 -1.16491,1.8379 -1.50859,2.85512 -0.14703,0.43519 -0.31447,1.39655 -0.37209,2.13636 l -0.10477,1.34511 -0.5154,0.0497 c -0.38316,0.0369 -0.54183,-0.024 -0.61846,-0.23737 z m 7.5495,-6.90445 c 0.63813,-0.44697 0.94075,-1.08111 0.94187,-1.9737 0.001,-0.75174 -0.0604,-0.90282 -0.60274,-1.48422 -0.51713,-0.55439 -0.71834,-0.6583 -1.40196,-0.72398 -2.98012,-0.28636 -3.72078,3.92108 -0.79921,4.53994 0.61185,0.12961 1.37545,-0.0172 1.86204,-0.35804 z"
       id="path38-4"
       sodipodi:nodetypes="ccsssssscssssssssscsssscssss" /><ellipse
       style="fill:#008000;fill-opacity:1;fill-rule:evenodd;stroke:none;stroke-width:2;stroke-linecap:square;stroke-linejoin:round;stroke-miterlimit:3.8;stroke-dasharray:none;stroke-dashoffset:13.6845;stroke-opacity:1;paint-order:normal"
       id="path40-3"
       cx="159.15923"
       cy="176.38812"
       rx="0.69361466"
       ry="0.42867744" /><ellipse
       style="fill:#008000;fill-opacity:1;fill-rule:evenodd;stroke:none;stroke-width:2;stroke-linecap:square;stroke-linejoin:round;stroke-miterlimit:3.8;stroke-dasharray:none;stroke-dashoffset:13.6845;stroke-opacity:1;paint-order:normal"
       id="ellipse40-7"
       cx="97.297569"
       cy="215.47569"
       rx="0.69361466"
       ry="0.42867744"
       transform="rotate(-17.178598)" /></g></svg>
