<?xml version="1.0" encoding="UTF-8" standalone="no"?>
<svg
   width="49"
   height="45"
   viewBox="0 0 49 45"
   fill="none"
   version="1.1"
   id="svg3"
   xml:space="preserve"
   xmlns="http://www.w3.org/2000/svg"
   xmlns:svg="http://www.w3.org/2000/svg"><defs
     id="defs3"><rect
       x="30.320267"
       y="100.16517"
       width="156.47424"
       height="19.4916"
       id="rect1" /><rect
       x="30.320267"
       y="100.16517"
       width="156.47424"
       height="19.4916"
       id="rect1-1" /><rect
       x="30.320267"
       y="100.16517"
       width="156.47424"
       height="19.4916"
       id="rect20" /><rect
       x="30.320267"
       y="100.16517"
       width="156.47424"
       height="19.4916"
       id="rect21" /><rect
       x="30.320267"
       y="100.16517"
       width="156.47424"
       height="19.4916"
       id="rect26" /></defs><path
     style="fill:#000000;stroke:#000000;stroke-width:1.60315;stroke-dasharray:none"
     d="m 20.399577,37.333692 c 0.695112,0 0.712943,-0.07618 0.324372,-1.385826 -0.382088,-1.287822 -0.989375,-2.437333 -1.976518,-3.741303 -0.461123,-0.609149 -0.838403,-1.2493 -0.838403,-1.422559 0,-0.17332 0.917796,-2.036082 2.039547,-4.139656 1.12175,-2.103513 2.670754,-5.085892 3.442251,-6.627655 0.771485,-1.5417 1.482715,-2.776392 1.580495,-2.743848 0.09779,0.03267 0.873018,1.409984 1.722743,3.060781 0.84972,1.650857 2.428353,4.672191 3.508086,6.714191 1.079729,2.041938 1.963139,3.826361 1.963139,3.965288 0,0.138928 -0.389971,0.738584 -0.866608,1.332447 -1.049577,1.307792 -1.596066,2.352521 -1.954825,3.736991 -0.339115,1.308717 -0.344847,1.251149 0.124764,1.251149 z m 8.214651,-0.748877 c 0.208293,-1.519576 0.950199,-3.00075 2.760795,-5.511738 0.103696,-0.143797 -0.382679,-1.224707 -1.480024,-3.289019 -0.898948,-1.691167 -2.275551,-4.311497 -3.059092,-5.823058 -0.783565,-1.511499 -1.450103,-2.779659 -1.481229,-2.81812 -0.03113,-0.03821 -0.05362,2.406947 -0.05005,5.434197 0.0065,5.236839 0.02281,5.518885 0.34187,5.807711 0.374772,0.339121 0.44439,1.103038 0.129257,1.418182 -0.451323,0.45136 -1.855045,0.02527 -1.855045,-0.563353 0,-0.129065 0.194597,-0.466029 0.432425,-0.748692 l 0.432445,-0.513859 -0.01079,-5.531643 c -0.0055,-3.042413 -0.04524,-5.497312 -0.08724,-5.455338 -0.07233,0.0723 -1.409375,2.609605 -4.650656,8.825408 -0.792355,1.51945 -1.440649,2.87353 -1.440649,3.008945 0,0.135414 0.320076,0.631337 0.711267,1.101927 0.855477,1.029136 1.714966,2.760491 2.128167,4.28697 l 0.303267,1.120357 h 3.386398 3.386409 z m -3.319423,-5.533002 c 0,-0.159946 -0.116868,-0.24753 -0.286361,-0.214678 -0.43091,0.08352 -0.490074,0.484951 -0.07149,0.484951 0.210993,0 0.357847,-0.110944 0.357847,-0.270273 z M 3.6527823,27.969768 c 0,-1.196046 0.073242,-2.169093 0.1676683,-2.227463 0.092214,-0.05671 0.5478144,-0.148666 1.0124325,-0.203707 L 5.677641,25.438563 5.7931777,24.12923 C 5.9532524,22.315037 6.6047999,19.476762 7.2371973,17.838725 9.1158801,12.972565 13.825805,8.631975 19.093566,6.9121468 L 20.571338,6.4296604 13.928885,6.4234968 7.2864197,6.4173332 7.089875,7.0129216 C 6.7932395,7.9116971 6.0202446,8.4785014 5.0910515,8.4785014 c -1.4111555,0 -2.2970863,-0.8150124 -2.2970863,-2.1131273 0,-2.0383016 2.8964098,-2.9298659 3.9971294,-1.2303773 l 0.3828087,0.591089 h 7.3287757 c 4.030832,0 7.451043,0.049309 7.600473,0.1064453 0.227554,0.087215 0.271692,-0.049925 0.271692,-0.845214 0,-0.9218893 0.01541,-0.9528305 0.532048,-1.0663023 0.292622,-0.064225 1.298059,-0.062006 2.234303,0.00616 1.581469,0.1131636 1.709252,0.1496521 1.800708,0.5139823 0.05412,0.2156643 0.07282,0.5701944 0.04154,0.7877694 -0.0424,0.2945583 0.04345,0.4199258 0.336089,0.4909305 0.216145,0.052391 3.282975,0.056705 6.815178,0.00925 l 6.422178,-0.085921 0.570595,-0.6562998 c 1.356583,-1.5604379 3.782544,-0.6689352 3.782544,1.3900144 0,1.1646114 -1.34886,2.246446 -2.525669,2.0256659 C 41.661703,8.2670284 40.771531,7.4085626 40.632438,6.713001 L 40.528809,6.194889 38.622902,6.3047243 c -1.048256,0.060403 -3.760935,0.1172316 -6.028189,0.1262921 l -4.122291,0.016642 0.963445,0.3030641 c 1.475074,0.4639956 4.51504,1.9695772 6.081857,3.012088 1.970866,1.3113665 4.072394,3.6214215 5.627888,6.1863405 1.309358,2.159046 2.234779,4.968722 2.602364,7.900992 l 0.193765,1.545891 0.767552,0.08592 0.767572,0.08586 0.04814,2.189988 0.04808,2.189926 h -2.243179 -2.243161 l 0.04808,-2.189926 0.04801,-2.189988 H 42.2134 43.243972 L 43.189239,24.53726 C 43.11715,23.179173 42.441934,20.344474 41.784408,18.639499 40.64053,15.673268 37.576927,11.87415 34.916299,10.122394 33.324285,9.0742747 30.618928,7.7962529 28.727041,7.1985691 c -1.555698,-0.4914236 -1.909618,-0.4787266 -1.767862,0.0633 0.05054,0.1932285 0.04197,0.5501624 -0.01904,0.7932547 -0.0825,0.328643 -0.190757,0.4165358 -0.422558,0.3429425 -0.321364,-0.1019459 -3.103242,-0.14392 -3.713315,-0.056089 -0.296721,0.042529 -0.350696,-0.062437 -0.396122,-0.7722371 l -0.05257,-0.8219154 -0.63445,0.1142731 C 20.584793,7.0667298 17.650268,8.0868665 16.434541,8.6998978 12.478394,10.694869 9.1984107,14.39463 7.6266873,18.635062 7.0368804,20.226317 6.457003,22.952045 6.3710208,24.537137 l -0.055904,1.030554 h 0.7729335 0.7729274 v 2.232948 2.232947 l -2.1040853,0.0302 -2.1040856,0.0302 z m 3.6381554,-0.169253 0.054733,-1.63212 H 5.7568679 4.1680713 v 1.63175 1.631751 h 1.53407 1.5340759 z M 43.866582,29.260918 H 44.87568 V 27.71817 26.175421 l -1.546582,0.03945 c -0.850595,0.02219 -1.546231,0.09782 -1.545855,0.168636 v 1.610302 1.481482 l 0.536775,-0.10737 c 0.295206,-0.05917 0.990841,-0.107308 1.545855,-0.107308 z M 5.5963925,7.7705507 C 6.6663002,7.2234084 6.8641394,6.1662283 6.049158,5.3512775 5.5853288,4.8874668 5.4434182,4.8387127 4.80564,4.9242635 3.9222733,5.0427278 3.4789997,5.5361854 3.4864823,6.3926172 3.4969604,7.5896491 4.5742955,8.2932853 5.5963925,7.7705507 Z M 43.783996,7.3834768 c 0.622018,-0.535 0.65103,-1.4554099 0.06553,-2.0786729 -0.889234,-0.9465436 -2.587737,-0.3033722 -2.575385,0.9750811 0.0127,1.319934 1.498728,1.973337 2.509855,1.1035918 z M 26.282916,6.1786787 c 0.05079,-1.6815525 0.09418,-1.6452489 -1.975748,-1.649132 l -1.245281,-0.00616 v 1.5458918 1.5458299 h 1.588803 1.588803 z"
     id="path30" /><rect
     style="opacity:1;fill:none;fill-opacity:1;fill-rule:evenodd;stroke:#008000;stroke-width:1.91096;stroke-linecap:square;stroke-linejoin:round;stroke-miterlimit:3.8;stroke-dasharray:none;stroke-dashoffset:13.6845;stroke-opacity:1;paint-order:normal"
     id="rect36"
     width="10.116834"
     height="2.6936579"
     x="19.749071"
     y="37.452602"
     ry="0"
     rx="0" /></svg>
