<?xml version="1.0" encoding="UTF-8" standalone="no"?>
<svg
   width="49"
   height="45"
   viewBox="0 0 49 45"
   fill="none"
   version="1.1"
   id="svg3"
   sodipodi:docname="icon2.svg"
   inkscape:version="1.3.2 (091e20e, 2023-11-25, custom)"
   xml:space="preserve"
   xmlns:inkscape="http://www.inkscape.org/namespaces/inkscape"
   xmlns:sodipodi="http://sodipodi.sourceforge.net/DTD/sodipodi-0.dtd"
   xmlns="http://www.w3.org/2000/svg"
   xmlns:svg="http://www.w3.org/2000/svg"><defs
     id="defs3"><rect
       x="30.320267"
       y="100.16517"
       width="156.47424"
       height="19.4916"
       id="rect1" /><rect
       x="30.320267"
       y="100.16517"
       width="156.47424"
       height="19.4916"
       id="rect1-1" /><rect
       x="30.320267"
       y="100.16517"
       width="156.47424"
       height="19.4916"
       id="rect20" /><rect
       x="30.320267"
       y="100.16517"
       width="156.47424"
       height="19.4916"
       id="rect21" /><rect
       x="30.320267"
       y="100.16517"
       width="156.47424"
       height="19.4916"
       id="rect26" /></defs><sodipodi:namedview
     id="namedview3"
     pagecolor="#ffffff"
     bordercolor="#111111"
     borderopacity="1"
     inkscape:showpageshadow="0"
     inkscape:pageopacity="0"
     inkscape:pagecheckerboard="1"
     inkscape:deskcolor="#d1d1d1"
     showgrid="false"
     showguides="true"
     inkscape:zoom="1.0180556"
     inkscape:cx="221.00955"
     inkscape:cy="121.30968"
     inkscape:window-width="2400"
     inkscape:window-height="1261"
     inkscape:window-x="1341"
     inkscape:window-y="616"
     inkscape:window-maximized="1"
     inkscape:current-layer="svg3"><sodipodi:guide
       position="20.351296,3.537715"
       orientation="0,-1"
       id="guide3"
       inkscape:locked="false" /></sodipodi:namedview><g
     id="g29"
     transform="matrix(1.0383013,0,0,1.0383013,82.582927,2.0926132)"><path
       style="fill:#008000;fill-opacity:1;stroke-width:1.88959"
       d="m -62.274352,28.486463 c -0.135961,-0.355069 -0.185376,-4.120848 -0.109338,-8.367911 0.125859,-6.997637 0.223817,-7.738352 1.045234,-7.896072 1.268792,-0.243733 12.342094,7.357157 12.342094,8.47171 0,1.046517 -10.535655,8.43821 -12.027253,8.43821 -0.551599,0 -1.114499,-0.290473 -1.250801,-0.645937 z m 7.778541,-7.829295 c 0,-0.155972 -0.506236,-0.59689 -1.124873,-0.980051 -0.618705,-0.383285 -1.631096,-1.025578 -2.2498,-1.427605 l -1.124913,-0.731063 v 3.296959 3.296877 l 2.249799,-1.585857 c 1.237396,-0.872198 2.249787,-1.713299 2.249787,-1.86926 z"
       id="path20"
       sodipodi:nodetypes="scsssssssscccss" /><rect
       style="opacity:1;fill:none;fill-opacity:1;fill-rule:evenodd;stroke:#000000;stroke-width:3.391;stroke-linecap:square;stroke-linejoin:round;stroke-miterlimit:3.8;stroke-dasharray:none;stroke-dashoffset:13.6845;paint-order:normal"
       id="rect29"
       width="41.489071"
       height="25.641655"
       x="-77.139793"
       y="7.7873611"
       ry="3.9788775" /></g></svg>
