<?xml version="1.0" encoding="UTF-8" standalone="no"?>
<svg
   width="49"
   height="45"
   viewBox="0 0 49 45"
   fill="none"
   version="1.1"
   id="svg3"
   sodipodi:docname="icon3.svg"
   inkscape:version="1.3.2 (091e20e, 2023-11-25, custom)"
   xml:space="preserve"
   xmlns:inkscape="http://www.inkscape.org/namespaces/inkscape"
   xmlns:sodipodi="http://sodipodi.sourceforge.net/DTD/sodipodi-0.dtd"
   xmlns="http://www.w3.org/2000/svg"
   xmlns:svg="http://www.w3.org/2000/svg"><defs
     id="defs3"><rect
       x="30.320267"
       y="100.16517"
       width="156.47424"
       height="19.4916"
       id="rect1" /><rect
       x="30.320267"
       y="100.16517"
       width="156.47424"
       height="19.4916"
       id="rect1-1" /><rect
       x="30.320267"
       y="100.16517"
       width="156.47424"
       height="19.4916"
       id="rect20" /><rect
       x="30.320267"
       y="100.16517"
       width="156.47424"
       height="19.4916"
       id="rect21" /><rect
       x="30.320267"
       y="100.16517"
       width="156.47424"
       height="19.4916"
       id="rect26" /></defs><sodipodi:namedview
     id="namedview3"
     pagecolor="#ffffff"
     bordercolor="#111111"
     borderopacity="1"
     inkscape:showpageshadow="0"
     inkscape:pageopacity="0"
     inkscape:pagecheckerboard="1"
     inkscape:deskcolor="#d1d1d1"
     showgrid="false"
     showguides="true"
     inkscape:zoom="2.0361111"
     inkscape:cx="63.35607"
     inkscape:cy="69.495224"
     inkscape:window-width="2400"
     inkscape:window-height="1261"
     inkscape:window-x="1341"
     inkscape:window-y="616"
     inkscape:window-maximized="1"
     inkscape:current-layer="svg3" /><g
     id="g30"
     transform="matrix(1.0752187,0,0,1.0752187,-1.9522854,-1.884151)"><path
       style="fill:#000000;stroke-width:1.14496"
       d="m 22.1165,34.519679 c -0.0063,-1.068354 -0.32422,-1.438024 -2.038366,-2.372933 -2.98059,-1.625506 -7.670542,-4.491267 -8.294799,-5.068424 -0.466022,-0.430811 -1.308037,-0.56515 -3.5431941,-0.56515 -3.3260766,0 -3.7725314,-0.308548 -4.0656256,-2.809777 -0.2812217,-2.399873 -0.1807267,-3.312676 0.4647058,-4.223474 0.5141177,-0.725467 0.8787184,-0.883248 2.0402532,-0.883248 h 1.4142553 c 0.061392,-1.802714 1.6222267,-1.518746 1.5301394,3.93e-4 H 11.1053 c 0.907769,0 1.673145,0.204804 1.976476,0.528286 0.740426,0.790176 22.213781,0.811594 22.952808,0.0223 0.298107,-0.318098 1.078441,-0.532825 1.961476,-0.539693 l 1.466425,-0.0079 c -0.0073,-1.186855 1.545459,-1.275657 1.545459,2.75e-4 h 1.522584 c 1.98291,0 2.542666,0.70114 2.542666,3.1849 0,2.15506 -0.413749,3.913953 -1.030165,4.379388 -0.256578,0.19384 -1.739304,0.352289 -3.294971,0.352289 -2.745452,0 -2.882539,0.03881 -4.671061,1.309354 -1.013452,0.720172 -2.53121,1.682689 -3.3728,2.139017 -4.448248,2.411889 -5.270626,3.545599 -5.25312,4.343851 0.0179,0.814246 -3.49232,1.224602 -5.334563,0.210886 z m 5.234883,-4.163344 c 0.126461,-0.558794 -0.605108,-1.255513 -2.635327,-1.255513 -1.925135,0 -1.975529,0.363068 -2.188405,0.914296 -0.07172,0.830439 -0.02827,2.193841 2.21215,2.193841 2.135296,0 2.236689,-0.196002 2.611582,-1.852624 z m -0.416555,-4.140294 c 0.444352,0.06838 0.834112,1.680733 0.964793,2.036186 0.188177,0.511869 0.669922,1.591158 3.220178,0.09019 l 4.636738,-2.728877 -0.08295,-1.619317 c -0.04561,-0.890568 -0.139351,-1.700226 -0.208329,-1.799195 -0.06901,-0.09896 -5.022118,-0.179947 -11.006939,-0.179947 H 13.57687 l -0.07577,1.832404 -0.07556,1.832551 1.478353,0.928405 c 0.81311,0.51067 2.853133,1.701347 4.533416,2.646031 2.99974,1.686492 1.56825,-1.24272 2.218278,-2.053547 0.574337,-0.716418 0.904149,-1.08204 1.630621,-1.204373 0.466829,-0.0787 1.382314,-0.129377 1.986043,-0.03635 z m -15.066429,-3.521293 0.07677,-1.479525 -1.033806,-0.195549 c -0.568585,-0.107683 -1.9515962,-0.106868 -3.0733075,0 L 5.7985484,21.21708 v 1.328012 c 0,0.730321 0.080162,1.440942 0.1779344,1.578946 0.09796,0.137983 1.4463077,0.205384 2.996592,0.149793 l 2.8187272,-0.100963 z m 31.419637,0.08715 c 0,-1.537218 -0.02131,-1.577147 -0.956374,-1.795235 -0.526004,-0.122696 -1.849381,-0.224809 -2.940864,-0.227039 -2.219776,-0.0079 -2.397689,0.192317 -2.112457,2.3377 l 0.167149,1.25673 h 2.921283 2.921304 z"
       id="path21"
       sodipodi:nodetypes="sssssssccscccccsssscsscsscssscscssscccssscsscscccsccccsccscccsc" /><path
       id="rect25"
       style="fill:#008000;fill-rule:evenodd;stroke-width:2.89935;stroke-linecap:square;stroke-linejoin:round;stroke-miterlimit:3.8;stroke-dashoffset:13.6845"
       d="m 34.113081,15.10145 h 12.09668 c 0.448723,0 0.80998,0.280644 0.80998,0.629259 v 0.786589 c 0,0.348615 -0.361257,0.629269 -0.80998,0.629269 h -12.09668 c -0.448723,0 -0.809981,-0.280654 -0.809981,-0.629269 v -0.786589 c 0,-0.348615 0.361258,-0.629259 0.809981,-0.629259 z" /><path
       id="rect30"
       style="fill:#008000;fill-rule:evenodd;stroke-width:2.89935;stroke-linecap:square;stroke-linejoin:round;stroke-miterlimit:3.8;stroke-dashoffset:13.6845"
       d="M 2.8142007,14.978667 H 14.910881 c 0.448723,0 0.80998,0.280644 0.80998,0.629259 v 0.786589 c 0,0.348615 -0.361257,0.629269 -0.80998,0.629269 H 2.8142007 c -0.4487231,0 -0.8099805,-0.280654 -0.8099805,-0.629269 v -0.786589 c 0,-0.348615 0.3612574,-0.629259 0.8099805,-0.629259 z" /></g></svg>
