<?xml version="1.0" encoding="UTF-8" standalone="no"?>
<svg
   width="49"
   height="45"
   viewBox="0 0 49 45"
   fill="none"
   version="1.1"
   id="svg3"
   sodipodi:docname="icon1.svg"
   inkscape:version="1.3.2 (091e20e, 2023-11-25, custom)"
   xml:space="preserve"
   xmlns:inkscape="http://www.inkscape.org/namespaces/inkscape"
   xmlns:sodipodi="http://sodipodi.sourceforge.net/DTD/sodipodi-0.dtd"
   xmlns="http://www.w3.org/2000/svg"
   xmlns:svg="http://www.w3.org/2000/svg"><defs
     id="defs3"><rect
       x="30.320267"
       y="100.16517"
       width="156.47424"
       height="19.4916"
       id="rect1" /><rect
       x="30.320267"
       y="100.16517"
       width="156.47424"
       height="19.4916"
       id="rect1-1" /><rect
       x="30.320267"
       y="100.16517"
       width="156.47424"
       height="19.4916"
       id="rect20" /><rect
       x="30.320267"
       y="100.16517"
       width="156.47424"
       height="19.4916"
       id="rect21" /><rect
       x="30.320267"
       y="100.16517"
       width="156.47424"
       height="19.4916"
       id="rect26" /></defs><sodipodi:namedview
     id="namedview3"
     pagecolor="#ffffff"
     bordercolor="#111111"
     borderopacity="1"
     inkscape:showpageshadow="0"
     inkscape:pageopacity="0"
     inkscape:pagecheckerboard="1"
     inkscape:deskcolor="#d1d1d1"
     showgrid="false"
     showguides="true"
     inkscape:zoom="1.439748"
     inkscape:cx="343.1156"
     inkscape:cy="104.53218"
     inkscape:window-width="2400"
     inkscape:window-height="1261"
     inkscape:window-x="1341"
     inkscape:window-y="616"
     inkscape:window-maximized="1"
     inkscape:current-layer="svg3"><sodipodi:guide
       position="20.351296,3.537715"
       orientation="0,-1"
       id="guide3"
       inkscape:locked="false" /></sodipodi:namedview><g
     id="g28"><path
       id="path4-1"
       style="fill:#000000;stroke-width:1.38424"
       d="m 28.164153,3.889313 c -2.23996,4.71e-4 -3.83927,0.01859 -5.03515,0.128906 h -1.5293 l -0.29102,0.332031 c -1.25469,0.407484 -1.85405,1.171205 -2.75976,2.59961 l -1.06055,1.671875 -2.74609,0.03711 c -1.51075,0.02042 -4.17624,0.01789 -5.9238294,-0.0078 -4.00508,-0.05751 -5.84307,0.427991 -7.05078,1.863281 l -0.94336001,1.11914 v 12.968745 12.9668 l 1.06836001,1.19727 c 0.96289,1.07803 1.3147,1.21377 3.57031,1.3789 v 0.002 c 1.31569,0.0964 8.8316794,0.0976 16.9667994,0.01 l 10.08203,0.11914 c 8.561,0.1008 9.39896,0.1008 10.77539,0 v -0.002 c 2.25561,-0.16512 3.215165,0.003 4.178055,-1.075037 l 0.460615,-1.501133 v -12.9668 -12.968748 l -0.9414,-1.119141 c -2.75318,-3.272126 -4.38398,-1.830568 -8.42969,-1.892578 l -1.06055,-1.671875 c -0.81951,-1.292445 -1.39005,-2.038062 -2.41992,-2.470703 l -0.63086,-0.71875 z m 2.22657,2.333984 c 2.52732,0.100978 2.86184,0.279938 3.66796,1.052735 0.51369,0.492415 0.97507,0.779773 1.36719,0.917968 l 0.375,0.402344 -4.66601,0.09375 c -0.41231,-0.0088 -0.67192,-0.01677 -1.09766,-0.02539 l -9.79297,-0.197265 0.0586,-0.0625 c 0.44708,-0.06475 1.02353,-0.367273 1.68359,-1 1.03084,-0.988229 1.14851,-1.008403 6.28711,-1.130859 z m -11.08399,5.00586 c 3.11667,0.06857 8.60836,0.117042 14.97461,0.11914 9.40067,0 10.01682,0.143707 10.2832,0.3125 0.91986,0.583265 1.13308,3.201245 1.13868,14.000004 0.006,8.68859 -0.0954,10.97816 -0.50391,11.53711 -0.48545,0.66416 -0.384698,0.772679 -10.73437,0.88086 l -0.29297,0.004 -12.5918,-0.13281 c -16.6857694,-0.17442 -17.5438494,-0.2167 -18.0292994,-0.88086 -0.40852,-0.55895 -0.5099,-2.84852 -0.5039,-11.53711 0.006,-10.798756 0.21881,-13.416737 1.13867,-14 0.24188,-0.15327 6.8812894,-0.279616 15.1210894,-0.302734 z m -9.3281195,4.060544 c -0.1785999,-7e-4 -0.3729499,0.006 -0.5800799,0.0195 -1.90917,0.12132 -2.51441,0.86308 -1.60156,1.96289 0.85692,1.0326 4.0384594,0.345 4.0097594,-0.86718 -0.0171,-0.75937 -0.57794,-1.11034 -1.8281195,-1.11524 z"
       sodipodi:nodetypes="ccccccscccccccccccccccccccccccsccccccsccscccscccscccssccsss" /><path
       id="path26"
       style="fill:#008000;fill-opacity:1;stroke-width:1.38424"
       d="m 24.513763,15.813371 v 4e-5 z m -0.0898,2.06836 c -0.56793,-0.0142 -1.17774,0.0541 -1.78125,0.2207 -2.40715,0.66462 -4.60352,3.17036 -4.60352,5.25196 0,0.72542 0.18216,0.93164 0.82227,0.93164 0.61135,-0.003 0.98108,-0.37823 1.43164,-1.45117 0.86697,-2.06451 2.56272,-3.03989 4.80273,-2.76368 1.37656,0.16978 1.7912,0.0958 1.96289,-0.35156 0.39132,-1.01964 -0.93098,-1.79538 -2.63476,-1.83789 z m 6.03516,6.0918 c -0.10006,-0.0134 -0.22192,-0.007 -0.3711,0.0156 -0.52417,0.0798 -0.92724,0.58332 -1.26758,1.58203 -0.58761,1.72441 -1.53006,2.5782 -3.49218,3.16602 -1.35797,0.40695 -1.76223,0.95448 -1.15625,1.56836 0.45057,0.45647 3.07143,-0.052 4.08984,-0.79297 1.11113,-0.80834 2.5957,-3.54017 2.5957,-4.77734 0,-0.50259 -0.0983,-0.72158 -0.39843,-0.76172 z"
       sodipodi:nodetypes="cccsssssssssscscsscs" /><path
       id="path27"
       style="fill:#000000;stroke-width:1.38424"
       d="m 24.771583,13.294914 c -4.67436,-0.12329 -9.34439,2.817947 -10.95899,7.951167 -1.77981,5.65858 2.00848,12.08286 8.07031,13.6836 1.76175,0.46521 5.01339,0.10478 7.08204,-0.78516 2.50076,-1.07581 4.9927,-3.82287 5.73437,-6.32031 1.35836,-4.57417 0.32424,-8.57779 -3.01758,-11.6875 -2.01155,-1.871837 -4.46168,-2.777217 -6.91015,-2.841797 z m -0.25782,2.494137 c 3.84393,0 7.80677,3.39189 8.37305,7.16797 0.53093,3.54059 -1.65781,7.4683 -5.00781,8.98828 v 0.002 c -2.19216,0.99452 -4.81255,0.94691 -7.09375,-0.12891 -2.1822,-1.0291 -3.17747,-2.04283 -4.18164,-4.25781 -0.99852,-2.20269 -0.96151,-4.51019 0.10937,-6.77539 1.56645,-3.31353 4.19402,-4.9961 7.80078,-4.9961 z"
       sodipodi:nodetypes="sssssssscscscsss" /></g></svg>
